<svg width="87" height="87" viewBox="0 0 87 87"  fill="none" xmlns="http://www.w3.org/2000/svg">
<circle cx="43.5" cy="43.5" r="43.5" fill="#290CDD"/>
<path   d="M56.6328 31.9688H30.3672C29.8365 31.9688 29.4062 32.399 29.4062 32.9297V47.6641C29.4062 48.1948 29.8365 48.625 30.3672 48.625H56.6328C57.1635 48.625 57.5938 48.1948 57.5938 47.6641V32.9297C57.5938 32.399 57.1635 31.9688 56.6328 31.9688Z" fill="white"/>
<path d="M57.5938 28.125H44.7812V26.8438C44.7812 26.5039 44.6463 26.1781 44.406 25.9378C44.1657 25.6975 43.8398 25.5625 43.5 25.5625C43.1602 25.5625 42.8343 25.6975 42.594 25.9378C42.3537 26.1781 42.2188 26.5039 42.2188 26.8438V28.125H29.4062C28.3871 28.1261 27.4101 28.5314 26.6895 29.252C25.9689 29.9726 25.5636 30.9496 25.5625 31.9688V48.625C25.5636 49.6441 25.9689 50.6212 26.6895 51.3418C27.4101 52.0624 28.3871 52.4677 29.4062 52.4688H32.8328L30.7371 59.8039C30.6871 59.9667 30.6701 60.1379 30.687 60.3074C30.704 60.4769 30.7545 60.6413 30.8358 60.791C30.917 60.9408 31.0273 61.0728 31.1601 61.1794C31.293 61.286 31.4458 61.365 31.6095 61.4119C31.7733 61.4587 31.9448 61.4725 32.1139 61.4523C32.283 61.4321 32.4465 61.3783 32.5946 61.2942C32.7427 61.2101 32.8726 61.0973 32.9766 60.9624C33.0806 60.8275 33.1567 60.6732 33.2004 60.5086L35.4978 52.4688H42.2188V56.3125C42.2188 56.6523 42.3537 56.9782 42.594 57.2185C42.8343 57.4588 43.1602 57.5938 43.5 57.5938C43.8398 57.5938 44.1657 57.4588 44.406 57.2185C44.6463 56.9782 44.7812 56.6523 44.7812 56.3125V52.4688H51.5022L53.7996 60.5086C53.8433 60.6732 53.9194 60.8275 54.0234 60.9624C54.1274 61.0973 54.2573 61.2101 54.4054 61.2942C54.5535 61.3783 54.717 61.4321 54.8861 61.4523C55.0552 61.4725 55.2267 61.4587 55.3905 61.4119C55.5542 61.365 55.707 61.286 55.8399 61.1794C55.9727 61.0728 56.083 60.9408 56.1642 60.791C56.2455 60.6413 56.296 60.4769 56.313 60.3074C56.3299 60.1379 56.3129 59.9667 56.2629 59.8039L54.1672 52.4688H57.5938C58.6129 52.4677 59.5899 52.0624 60.3105 51.3418C61.0311 50.6212 61.4364 49.6441 61.4375 48.625V31.9688C61.4364 30.9496 61.0311 29.9726 60.3105 29.252C59.5899 28.5314 58.6129 28.1261 57.5938 28.125ZM58.875 48.625C58.875 48.9648 58.74 49.2907 58.4997 49.531C58.2594 49.7713 57.9336 49.9062 57.5938 49.9062H29.4062C29.0664 49.9062 28.7406 49.7713 28.5003 49.531C28.26 49.2907 28.125 48.9648 28.125 48.625V31.9688C28.125 31.6289 28.26 31.3031 28.5003 31.0628C28.7406 30.8225 29.0664 30.6875 29.4062 30.6875H57.5938C57.9336 30.6875 58.2594 30.8225 58.4997 31.0628C58.74 31.3031 58.875 31.6289 58.875 31.9688V48.625Z" fill="white"/>
</svg>
