<svg width="87" height="87" viewBox="0 0 87 87" fill="none" xmlns="http://www.w3.org/2000/svg">
<circle cx="43.5" cy="43.5" r="43.5" fill="#290CDD"/>
<path d="M43.5931 35.7841L44.5504 38.7303C45.4567 37.9591 46.5085 37.3781 47.6434 37.0219C48.9098 36.6093 50.0281 36.3772 51.039 36.244L50.1161 33.401C48.9651 33.5669 47.8305 33.8315 46.7247 34.1918C45.6041 34.5554 44.5474 35.0927 43.5931 35.7841ZM45.5828 41.9193L46.5401 44.8654C47.4464 44.0942 48.4982 43.5133 49.6331 43.1571C50.8995 42.7445 52.0178 42.5124 53.0287 42.3791L52.1058 39.5361C50.9548 39.7021 49.8202 39.9666 48.7145 40.3269C47.5933 40.6892 46.5364 41.2267 45.5828 41.9193ZM47.5747 48.0523L48.532 50.9984C49.4383 50.2272 50.4901 49.6463 51.625 49.2901C52.8914 48.8775 54.0097 48.6454 55.0206 48.5121L54.0977 45.6691C52.9467 45.8351 51.8121 46.0996 50.7063 46.4599C49.5852 46.8223 48.5283 47.3597 47.5747 48.0523ZM32.4168 52.7197L33.3397 55.5627C34.3626 55.0088 35.4347 54.5513 36.5422 54.196C37.6696 53.8173 38.8615 53.669 40.0473 53.7598L39.09 50.8136C37.9127 50.8153 36.7431 51.0017 35.6235 51.3659C34.5177 51.7239 33.4448 52.1769 32.4168 52.7197ZM28.4352 40.4516L29.3581 43.2946C30.3814 42.7416 31.4534 42.2841 32.5606 41.9279C33.688 41.5492 34.8799 41.4008 36.0657 41.4916L35.1105 38.5433C33.9325 38.5459 32.7622 38.733 31.6419 39.0977C30.5361 39.4558 29.4632 39.9087 28.4352 40.4516ZM30.4249 46.5867L31.3478 49.4297C32.3707 48.8758 33.4428 48.4183 34.5503 48.063C35.6777 47.6843 36.8696 47.536 38.0554 47.6268L37.1002 44.6785C35.923 44.6802 34.7534 44.8665 33.6338 45.2308C32.5272 45.5895 31.4536 46.0431 30.4249 46.5867ZM44.5998 27.6483C41.7798 28.5503 39.4265 30.5251 38.0468 33.1474C35.3916 31.8384 32.3291 31.6261 29.5191 32.5565C24.1037 34.3186 21 38.2017 21 38.2017L29.7896 65.25C30.06 66.0817 31.1761 66.2751 31.6741 65.5573C32.7452 64.0123 34.8079 61.9944 38.665 60.7395C42.3525 59.5404 45.0377 60.8555 46.5101 61.9815C47.0939 62.4285 47.931 62.1105 48.1457 61.4056C48.6866 59.6285 50.0925 57.0218 53.7478 55.8335C57.6092 54.5764 60.4639 54.9976 62.239 55.6186C63.0654 55.9066 63.8488 55.0986 63.5805 54.2669L54.806 27.2035C54.806 27.2035 50.0152 25.8884 44.5998 27.6483ZM44.3572 57.4022C42.1538 56.7383 39.7994 56.7713 37.6154 57.4968C34.9302 58.3692 33.05 59.5361 31.8222 60.5138L24.8571 39.0634C25.6255 38.2941 27.4049 36.8242 30.5708 35.7949C33.5522 34.8257 35.997 35.6552 37.6089 36.6072L44.3572 57.4022ZM59.1546 51.6238C57.5856 51.555 55.3791 51.7183 52.6939 52.5929C50.5011 53.2905 48.5768 54.6489 47.1841 56.4825L40.4357 35.6874C41.1784 33.9683 42.668 31.8581 45.6515 30.8889C48.8153 29.8596 51.1184 30.0014 52.1916 30.1712L59.1546 51.6238Z" fill="white"/>
</svg>
