<svg width="87" height="87" viewBox="0 0 87 87" fill="none" xmlns="http://www.w3.org/2000/svg">
<circle cx="43.5" cy="43.5" r="43.5" fill="#290CDD"/>
<path d="M61.0956 40.2669C61.0745 40.1693 61.0437 40.0739 61.0038 39.9823L56.5975 29.7011C56.4842 29.4376 56.2962 29.213 56.0567 29.0551C55.8173 28.8972 55.5368 28.8128 55.2499 28.8125H31.7499C31.4624 28.8125 31.1812 28.8968 30.9412 29.0551C30.7011 29.2134 30.5128 29.4386 30.3996 29.7029L25.9934 39.9842C25.9534 40.0758 25.9227 40.1711 25.9016 40.2688C25.8829 40.3655 25.874 40.4639 25.8749 40.5625V57.4531C25.8749 57.6479 25.9523 57.8347 26.09 57.9724C26.2278 58.1101 26.4145 58.1875 26.6093 58.1875H29.5468C29.7416 58.1875 29.9284 58.1101 30.0661 57.9724C30.2038 57.8347 30.2812 57.6479 30.2812 57.4531V55.25H56.7187V57.4531C56.7187 57.6479 56.7961 57.8347 56.9338 57.9724C57.0715 58.1101 57.2583 58.1875 57.4531 58.1875H60.3906C60.5853 58.1875 60.7721 58.1101 60.9099 57.9724C61.0476 57.8347 61.1249 57.6479 61.1249 57.4531V40.5625C61.1251 40.4632 61.1152 40.3642 61.0956 40.2669ZM33.2187 49.375C32.6377 49.375 32.0698 49.2027 31.5867 48.8799C31.1036 48.5572 30.7271 48.0984 30.5048 47.5616C30.2825 47.0249 30.2243 46.4342 30.3376 45.8644C30.451 45.2946 30.7307 44.7712 31.1416 44.3604C31.5524 43.9496 32.0758 43.6698 32.6456 43.5564C33.2154 43.4431 33.8061 43.5013 34.3428 43.7236C34.8796 43.9459 35.3384 44.3224 35.6611 44.8055C35.9839 45.2886 36.1562 45.8565 36.1562 46.4375C36.1562 47.2166 35.8467 47.9637 35.2958 48.5146C34.7449 49.0655 33.9978 49.375 33.2187 49.375ZM53.7812 49.375C53.2002 49.375 52.6323 49.2027 52.1492 48.8799C51.6661 48.5572 51.2896 48.0984 51.0673 47.5616C50.845 47.0249 50.7868 46.4342 50.9001 45.8644C51.0135 45.2946 51.2932 44.7712 51.7041 44.3604C52.1149 43.9496 52.6383 43.6698 53.2081 43.5564C53.7779 43.4431 54.3686 43.5013 54.9053 43.7236C55.4421 43.9459 55.9009 44.3224 56.2236 44.8055C56.5464 45.2886 56.7187 45.8565 56.7187 46.4375C56.7187 47.2166 56.4092 47.9637 55.8583 48.5146C55.3074 49.0655 54.5603 49.375 53.7812 49.375ZM29.5707 39.0938L32.7184 31.75H54.2815L57.4292 39.0938H29.5707Z" fill="white"/>
</svg>
