<svg width="87" height="87" viewBox="0 0 87 87" fill="none" xmlns="http://www.w3.org/2000/svg">
<circle cx="43.5" cy="43.5" r="43.5" fill="#290CDD"/>
<g clip-path="url(#clip0_534_3585)">
<path fill-rule="evenodd" clip-rule="evenodd" d="M58.875 51.8333C58.875 52.0448 58.8336 52.2448 58.7741 52.4354L49.3125 42.4583L58.875 35.1667V51.8333ZM30.7782 53.8604L40.3662 43.8437L44 46.5365L47.4765 43.8271L57.2218 53.8604C57.0698 53.8948 30.9302 53.8948 30.7782 53.8604ZM29.125 51.8333V35.1667L38.6875 42.4583L29.2259 52.4354C29.1664 52.2448 29.125 52.0448 29.125 51.8333ZM57.8125 33.0833L44 43.5L30.1875 33.0833H57.8125ZM56.75 31H31.25C28.9029 31 27 32.8656 27 35.1667V51.8333C27 54.1344 28.9029 56 31.25 56H56.75C59.0971 56 61 54.1344 61 51.8333V35.1667C61 32.8656 59.0971 31 56.75 31Z" fill="white"/>
</g>
<defs>
<clipPath id="clip0_534_3585">
<rect width="34" height="25" fill="white" transform="translate(27 31)"/>
</clipPath>
</defs>
</svg>
