<svg width="87" height="87" viewBox="0 0 87 87" fill="none" xmlns="http://www.w3.org/2000/svg">
<circle cx="43.5" cy="43.5" r="43.5" fill="#290CDD"/>
<path d="M32.8438 27.25C30.3211 27.25 28.25 29.3211 28.25 31.8438C28.25 34.3664 30.3211 36.4375 32.8438 36.4375C35.3664 36.4375 37.4375 34.3664 37.4375 31.8438C37.4375 29.3211 35.3664 27.25 32.8438 27.25ZM38.75 27.25V37.5449C39.0545 37.919 39.3318 38.3176 39.5549 38.7626L40.8085 41.2722L41.375 41.6952V29.875H42.8618L45.2894 46.8683L44.0385 51.8696L44 52.8438C44 54.6537 45.4713 56.125 47.2812 56.125C48.1226 56.125 48.8813 55.7976 49.4628 55.2765C50.1321 55.7989 50.9615 56.125 51.875 56.125C52.8869 56.125 53.8018 55.7309 54.5 55.1022C55.1982 55.7322 56.1131 56.125 57.125 56.125C57.587 56.125 58.0254 56.031 58.4375 55.884V58.75H61.0625V27.25H59.75H58.4375H41.375H40.0625H38.75ZM32.8438 29.875C33.9462 29.875 34.8125 30.7413 34.8125 31.8438C34.8125 32.9462 33.9462 33.8125 32.8438 33.8125C31.7413 33.8125 30.875 32.9462 30.875 31.8438C30.875 30.7413 31.7413 29.875 32.8438 29.875ZM45.5125 29.875H58.4375V52.1875C58.4375 52.912 57.8495 53.5 57.125 53.5C56.4005 53.5 55.8125 52.912 55.8125 52.1875H53.1875C53.1875 52.912 52.5995 53.5 51.875 53.5C51.1505 53.5 50.5625 52.912 50.5625 52.1875H47.9375V52.8438C47.9375 53.1994 47.6369 53.5 47.2812 53.5C46.9256 53.5 46.625 53.1994 46.625 52.8438V52.349L47.9606 47.0067L45.5125 29.875ZM32.1875 37.75C29.2908 37.75 26.9375 40.1033 26.9375 43V49.8906L29.5625 51.2031V58.75H32.1875V49.5625L29.5625 48.25V43C29.5625 41.5536 30.7411 40.375 32.1875 40.375H33.7051C34.7052 40.375 35.5967 40.9128 36.043 41.8105L37.7246 45.1738L41.2007 47.7629L42.6875 45.625L39.7754 43.4512L38.3809 40.6621C37.4831 38.8719 35.7053 37.75 33.7051 37.75H32.1875ZM38.75 48.8857V58.75H41.375V50.8391L40.4188 50.1265L38.75 48.8857ZM33.5 49.5625V58.75H36.125V49.5625H33.5Z" fill="white"/>
</svg>
