<svg width="87" height="87" viewBox="0 0 87 87" fill="none" xmlns="http://www.w3.org/2000/svg">
<circle cx="43.5" cy="43.5" r="43.5" fill="#290CDD"/>
<g clip-path="url(#clip0_534_3602)">
<path d="M45.0666 35.6668C46.3689 35.9209 47.5658 36.5578 48.504 37.4961C49.4423 38.4343 50.0792 39.6312 50.3333 40.9335M45.0666 30.3335C47.7723 30.6341 50.2954 31.8457 52.2216 33.7695C54.1478 35.6933 55.3626 38.2148 55.6666 40.9202M54.3333 51.5602V55.5602C54.3348 55.9315 54.2587 56.2991 54.11 56.6393C53.9612 56.9795 53.743 57.2849 53.4694 57.536C53.1958 57.787 52.8727 57.9781 52.521 58.0971C52.1692 58.2161 51.7964 58.2603 51.4266 58.2268C47.3237 57.781 43.3826 56.379 39.92 54.1335C36.6984 52.0864 33.9671 49.3551 31.92 46.1335C29.6666 42.6551 28.2643 38.6948 27.8266 34.5735C27.7933 34.2048 27.8371 33.8332 27.9553 33.4823C28.0735 33.1315 28.2634 32.8091 28.513 32.5357C28.7626 32.2622 29.0664 32.0438 29.405 31.8942C29.7437 31.7446 30.1097 31.6672 30.48 31.6668H34.48C35.127 31.6605 35.7543 31.8896 36.245 32.3115C36.7356 32.7335 37.0561 33.3194 37.1466 33.9602C37.3154 35.2403 37.6286 36.4971 38.08 37.7068C38.2593 38.1841 38.2982 38.7027 38.1918 39.2013C38.0855 39.7 37.8384 40.1576 37.48 40.5202L35.7866 42.2135C37.6847 45.5516 40.4486 48.3154 43.7866 50.2135L45.48 48.5202C45.8425 48.1617 46.3002 47.9146 46.7988 47.8083C47.2974 47.7019 47.8161 47.7408 48.2933 47.9202C49.503 48.3716 50.7599 48.6847 52.04 48.8535C52.6876 48.9449 53.2792 49.2711 53.702 49.7702C54.1248 50.2692 54.3495 50.9063 54.3333 51.5602Z" stroke="white" stroke-width="3" stroke-linecap="round" stroke-linejoin="round"/>
</g>
<defs>
<clipPath id="clip0_534_3602">
<rect width="32" height="32" fill="white" transform="translate(25 29)"/>
</clipPath>
</defs>
</svg>
