<svg width="87" height="87" viewBox="0 0 87 87" fill="none" xmlns="http://www.w3.org/2000/svg">
<circle cx="43.5" cy="43.5" r="43.5" fill="#290CDD"/>
<path d="M30.875 28.5625V41.6875H25.625V58.75H47.9375V53.5H62.375V36.4375H53.1875V28.5625H30.875ZM33.5 31.1875H50.5625V36.4375H38.75V41.6875H33.5V31.1875ZM41.375 39.0625H59.75V50.875H47.9375V41.6875H41.375V39.0625ZM53.1875 41.6875V44.3125H57.125V41.6875H53.1875ZM28.25 44.3125H30.875H40.0625H45.3125V45.7737L37.3862 50.7007C37.02 50.9291 36.5438 50.9304 36.1763 50.7007L28.25 45.7762V44.3125ZM45.3125 48.8652V56.125H28.25V48.8678L34.7894 52.9309C35.4037 53.3128 36.0935 53.5051 36.7812 53.5051C37.469 53.5051 38.1576 53.3129 38.7705 52.9283L45.3125 48.8652Z" fill="white"/>
</svg>
