<svg width="19" height="19" viewBox="0 0 19 19" fill="none" xmlns="http://www.w3.org/2000/svg">
<circle cx="9.27711" cy="9.27711" r="9.27711" fill="#290CDD"/>
<path d="M6.352 6.4H7.476L9.512 12H8.476L8.116 11.008H5.716L5.356 12H4.32L6.352 6.4ZM6.072 10.032H7.756L6.912 7.724L6.072 10.032ZM10.1831 12V6.4H12.0391C12.4258 6.4 12.7871 6.47333 13.1231 6.62C13.4618 6.764 13.7591 6.96533 14.0151 7.224C14.2738 7.48 14.4751 7.77733 14.6191 8.116C14.7658 8.452 14.8391 8.81333 14.8391 9.2C14.8391 9.58667 14.7658 9.94933 14.6191 10.288C14.4751 10.624 14.2738 10.9213 14.0151 11.18C13.7591 11.436 13.4618 11.6373 13.1231 11.784C12.7871 11.928 12.4258 12 12.0391 12H10.1831ZM11.1591 11.024H12.0391C12.2871 11.024 12.5205 10.9773 12.7391 10.884C12.9605 10.788 13.1551 10.6573 13.3231 10.492C13.4911 10.324 13.6231 10.1307 13.7191 9.912C13.8151 9.69067 13.8631 9.45333 13.8631 9.2C13.8631 8.94667 13.8151 8.71067 13.7191 8.492C13.6231 8.27333 13.4911 8.08 13.3231 7.912C13.1551 7.744 12.9618 7.61333 12.7431 7.52C12.5245 7.424 12.2898 7.376 12.0391 7.376H11.1591V11.024Z" fill="white"/>
</svg>
