<svg width="50" height="50" viewBox="0 0 50 50" fill="none" xmlns="http://www.w3.org/2000/svg">
<path d="M42.5781 17.1875C41.8529 17.1875 41.1574 17.4756 40.6446 17.9884C40.1318 18.5012 39.8438 19.1967 39.8438 19.9219V32.4219C39.8438 33.1471 40.1318 33.8426 40.6446 34.3554C41.1574 34.8682 41.8529 35.1562 42.5781 35.1562C43.3033 35.1562 43.9988 34.8682 44.5116 34.3554C45.0244 33.8426 45.3125 33.1471 45.3125 32.4219V19.9219C45.3125 19.1967 45.0244 18.5012 44.5116 17.9884C43.9988 17.4756 43.3033 17.1875 42.5781 17.1875Z" fill="black"/>
<path d="M7.42188 17.1875C6.69667 17.1875 6.00117 17.4756 5.48838 17.9884C4.97559 18.5012 4.6875 19.1967 4.6875 19.9219V32.4219C4.6875 33.1471 4.97559 33.8426 5.48838 34.3554C6.00117 34.8682 6.69667 35.1562 7.42188 35.1562C8.14708 35.1562 8.84258 34.8682 9.35537 34.3554C9.86816 33.8426 10.1562 33.1471 10.1562 32.4219V19.9219C10.1562 19.1967 9.86816 18.5012 9.35537 17.9884C8.84258 17.4756 8.14708 17.1875 7.42188 17.1875Z" fill="black"/>
<path d="M12.1094 17.1875V35.9375C12.1094 36.7663 12.4386 37.5612 13.0247 38.1472C13.6107 38.7333 14.4056 39.0625 15.2344 39.0625H17.1875V45.7031C17.1875 46.4283 17.4756 47.1238 17.9884 47.6366C18.5012 48.1494 19.1967 48.4375 19.9219 48.4375C20.6471 48.4375 21.3426 48.1494 21.8554 47.6366C22.3682 47.1238 22.6562 46.4283 22.6562 45.7031V39.0625H27.3438V45.7031C27.3438 46.4283 27.6318 47.1238 28.1446 47.6366C28.6574 48.1494 29.3529 48.4375 30.0781 48.4375C30.8033 48.4375 31.4988 48.1494 32.0116 47.6366C32.5244 47.1238 32.8125 46.4283 32.8125 45.7031V39.0625H34.7656C35.5944 39.0625 36.3893 38.7333 36.9753 38.1472C37.5614 37.5612 37.8906 36.7663 37.8906 35.9375V17.1875H12.1094Z" fill="black"/>
<path d="M37.5215 13.2813C36.7188 10.4209 34.8066 7.97754 32.2266 6.37012C32.082 6.28027 31.9355 6.19303 31.7871 6.1084C31.6387 6.02376 31.4896 5.94076 31.3398 5.85938L31.8359 4.97266L33.3877 2.17383C33.4139 2.12653 33.4306 2.07451 33.4367 2.02076C33.4428 1.96701 33.4382 1.91258 33.4233 1.8606C33.4083 1.80862 33.3832 1.7601 33.3495 1.71783C33.3157 1.67556 33.2739 1.64036 33.2266 1.61426C33.1669 1.58075 33.0997 1.56294 33.0312 1.5625C32.9577 1.56237 32.8855 1.58197 32.8221 1.61924C32.7587 1.65651 32.7065 1.7101 32.6709 1.77441L31.0986 4.61133L30.6025 5.50488C30.4463 5.43555 30.2881 5.37012 30.1279 5.30957C29.9678 5.24902 29.8076 5.18555 29.6445 5.12793C26.6423 4.07149 23.3694 4.07149 20.3672 5.12793C20.2044 5.18587 20.0433 5.24642 19.8838 5.30957C19.7236 5.37402 19.5654 5.43945 19.4092 5.50488L18.9131 4.61133L17.3408 1.7793C17.2864 1.68648 17.1979 1.61861 17.0941 1.59019C16.9904 1.56177 16.8796 1.57506 16.7855 1.62721C16.6914 1.67936 16.6214 1.76624 16.5905 1.86929C16.5596 1.97234 16.5702 2.08339 16.6201 2.17871L18.1641 4.97266L18.6602 5.85938C18.5085 5.9388 18.3587 6.02051 18.2109 6.10449C18.0632 6.18848 17.9173 6.27702 17.7734 6.37012C15.1953 7.97754 13.2813 10.4209 12.4805 13.2783C12.259 14.0407 12.1369 14.8284 12.1172 15.6221H37.8848C37.8648 14.8294 37.7427 14.0427 37.5215 13.2813ZM19.1406 11.7188C18.9088 11.7188 18.6823 11.65 18.4896 11.5213C18.2969 11.3925 18.1467 11.2095 18.058 10.9953C17.9693 10.7812 17.946 10.5456 17.9913 10.3183C18.0365 10.0909 18.1481 9.88212 18.312 9.71824C18.4759 9.55435 18.6847 9.44273 18.912 9.39752C19.1393 9.3523 19.3749 9.37551 19.5891 9.4642C19.8032 9.5529 19.9862 9.7031 20.115 9.89582C20.2438 10.0885 20.3125 10.3151 20.3125 10.5469C20.3125 10.8577 20.189 11.1557 19.9693 11.3755C19.7495 11.5953 19.4514 11.7188 19.1406 11.7188ZM30.8594 11.7188C30.6276 11.7188 30.401 11.65 30.2083 11.5213C30.0156 11.3925 29.8654 11.2095 29.7767 10.9953C29.688 10.7812 29.6648 10.5456 29.71 10.3183C29.7552 10.0909 29.8668 9.88212 30.0307 9.71824C30.1946 9.55435 30.4034 9.44273 30.6308 9.39752C30.8581 9.3523 31.0937 9.37551 31.3078 9.4642C31.522 9.5529 31.705 9.7031 31.8338 9.89582C31.9625 10.0885 32.0312 10.3151 32.0312 10.5469C32.0312 10.8577 31.9078 11.1557 31.688 11.3755C31.4682 11.5953 31.1702 11.7188 30.8594 11.7188Z" fill="black"/>
</svg>
