<svg width="38" height="34" viewBox="0 0 38 34" fill="none" xmlns="http://www.w3.org/2000/svg">
<path d="M28.0946 0.365234C24.1571 0.365234 22.4931 2.24414 19.7509 2.24414C16.9393 2.24414 14.7948 0.378906 11.3827 0.378906C8.04286 0.378906 4.48134 2.41797 2.21962 5.8916C-0.956161 10.79 -0.417099 20.0156 4.72646 27.875C6.5663 30.6885 9.02333 33.8438 12.246 33.8779H12.3046C15.1054 33.8779 15.9374 32.0439 19.7919 32.0225H19.8505C23.6474 32.0225 24.4091 33.8672 27.1981 33.8672H27.2567C30.4794 33.833 33.0683 30.3369 34.9081 27.5342C36.2323 25.5186 36.7245 24.5068 37.7401 22.2266C30.2997 19.4023 29.1044 8.85449 36.4628 4.81055C34.2167 1.99805 31.0604 0.36914 28.0849 0.36914L28.0946 0.365234Z" fill="black"/>
</svg>
