<svg width="44" height="41" viewBox="0 0 44 41" fill="none" xmlns="http://www.w3.org/2000/svg">
<path fill-rule="evenodd" clip-rule="evenodd" d="M0.000423348 24.3738C-0.0210555 22.2725 0.773664 20.4092 2.63875 19.8001L2.68529 19.7208C2.73982 19.6129 2.81249 19.5154 2.90007 19.4325C3.01295 19.3491 3.14049 19.2879 3.27595 19.2523L3.37977 19.2126C12.4224 15.868 16.4998 10.8474 18.8446 7.43789C18.8446 10.7861 19.6787 15.1508 21.1464 19.3748C22.6535 23.6998 24.83 27.9202 27.4863 30.8216C24.7191 30.0287 21.2466 29.0195 15.5977 29.7944C15.3611 30.3746 15.2255 30.9915 15.1967 31.6181C15.1781 31.8135 15.2003 32.0107 15.262 32.1969C15.3237 32.3831 15.4234 32.5543 15.5547 32.6993L15.6406 32.7786C15.9986 33.1066 16.174 33.2688 16.2528 33.5607C16.3054 33.9473 16.2897 34.3402 16.2063 34.7213L16.174 34.9627C16.0416 36.0188 16.5499 36.235 17.0547 36.4513C17.5594 36.6675 17.9532 36.8405 18.1573 37.4208C18.1716 37.4677 18.1716 37.518 18.1573 37.5649C17.9496 38.6462 17.2623 39.2373 16.5714 39.8319C16.4031 39.9797 16.2313 40.1275 16.0845 40.268H16.0631C14.6598 41.3997 13.7111 41.097 12.9916 40.1888C12.426 39.4679 12.0322 38.3867 11.667 37.3739L11.5095 36.9342C10.9182 35.1537 10.4399 33.3372 10.0776 31.4956L9.95589 30.9549C9.64445 31.0414 9.31868 31.1387 8.9786 31.2397C8.54902 31.3658 8.11945 31.5028 7.69345 31.6397L7.55742 31.6902C7.48673 31.737 7.40397 31.7619 7.31936 31.7619C7.23475 31.7619 7.15199 31.737 7.0813 31.6902C4.82244 32.447 2.93587 31.3658 1.67578 29.5637C1.14381 28.8032 0.732025 27.9643 0.45506 27.0769C0.171381 26.2035 0.0181629 25.2925 0.000423348 24.3738ZM31.4348 5.83405C31.3216 5.92093 31.1925 5.9843 31.0548 6.02048C30.9171 6.05666 30.7736 6.06493 30.6327 6.04481C30.4918 6.02469 30.3563 5.97658 30.2341 5.90328C30.1118 5.82997 30.0052 5.73293 29.9205 5.6178L29.8955 5.58536C29.7314 5.35329 29.6632 5.06614 29.7053 4.78443C29.7473 4.50273 29.8964 4.24846 30.121 4.07523C31.8608 2.78134 33.5934 1.47664 35.3332 0.211586C35.5627 0.0443373 35.8471 -0.027904 36.1279 0.00975421C36.4145 0.0540036 36.672 0.210826 36.8439 0.445856V0.463876C37.009 0.696468 37.076 0.985451 37.03 1.2676C37.0094 1.41082 36.9605 1.54842 36.8861 1.67224C36.8117 1.79606 36.7133 1.90358 36.5969 1.98843L31.4348 5.83405ZM37.0873 26.63C36.9457 26.627 36.806 26.5959 36.6764 26.5383C36.5467 26.4808 36.4297 26.398 36.332 26.2948C36.2333 26.1927 36.1556 26.0721 36.1034 25.9397C36.0512 25.8073 36.0255 25.6659 36.0277 25.5235V25.4983C36.0277 25.3541 36.0562 25.2114 36.1118 25.0786C36.1673 24.9457 36.2487 24.8254 36.3511 24.7246C36.4534 24.6239 36.5748 24.5448 36.708 24.492C36.8412 24.4391 36.9836 24.4137 37.1267 24.417C39.0491 24.417 41.0036 24.4891 42.926 24.5251C43.215 24.5318 43.4897 24.6527 43.6907 24.8619C43.8918 25.071 44.0028 25.3514 43.9999 25.6424C43.9943 25.9347 43.8747 26.213 43.667 26.4173C43.5651 26.5182 43.4442 26.5975 43.3114 26.6508C43.1787 26.704 43.0367 26.73 42.8938 26.7273L37.0981 26.6155L37.0873 26.63ZM37.2556 20.9679C37.1136 20.9802 36.9706 20.9639 36.835 20.92C36.6993 20.8761 36.5737 20.8055 36.4654 20.7122C36.3571 20.619 36.2683 20.505 36.2042 20.3768C36.1402 20.2487 36.1021 20.109 36.0921 19.9659V19.9407C36.076 19.6552 36.1703 19.3746 36.3551 19.1576C36.54 18.9406 36.8011 18.804 37.0837 18.7765C38.8736 18.6324 40.6958 18.4774 42.4893 18.3621C42.7759 18.3441 43.058 18.4402 43.2749 18.6296C43.4918 18.819 43.6262 19.0866 43.6491 19.3748C43.6605 19.5184 43.6432 19.6628 43.5983 19.7996C43.5534 19.9364 43.4819 20.0628 43.3878 20.1713C43.199 20.3921 42.9316 20.5293 42.6432 20.5534C40.907 20.7264 38.9989 20.8705 37.2556 20.9642V20.9679ZM36.4823 15.7094C36.3439 15.749 36.199 15.7607 36.0561 15.7439C35.9132 15.7271 35.7749 15.6821 35.6492 15.6115C35.5236 15.5408 35.413 15.446 35.3237 15.3323C35.2345 15.2186 35.1684 15.0883 35.1292 14.9489C35.0899 14.8112 35.0782 14.667 35.0948 14.5247C35.1114 14.3824 35.156 14.2448 35.2258 14.12C35.3675 13.8651 35.6026 13.6762 35.8809 13.5938C37.746 13.1 39.6039 12.4945 41.469 11.9899C41.6058 11.9504 41.7491 11.9387 41.8904 11.9554C42.0317 11.9721 42.1684 12.0169 42.2924 12.0872C42.5425 12.2274 42.7286 12.4601 42.8114 12.736C42.89 13.017 42.855 13.3179 42.7142 13.573C42.5734 13.8282 42.3382 14.017 42.0597 14.0984L36.4788 15.7022L36.4823 15.7094ZM34.227 10.5483C34.0987 10.6126 33.959 10.6509 33.816 10.661C33.673 10.671 33.5294 10.6525 33.3934 10.6067C33.2574 10.5608 33.1318 10.4885 33.0236 10.3937C32.9154 10.299 32.8268 10.1837 32.7629 10.0545C32.6975 9.92574 32.6584 9.78507 32.6479 9.64083C32.6375 9.49658 32.6559 9.3517 32.702 9.21474C32.7945 8.93804 32.9912 8.70895 33.2498 8.5768L38.6195 5.8773C38.7473 5.81045 38.8872 5.77018 39.0309 5.7589C39.1745 5.74761 39.3189 5.76554 39.4556 5.81161C39.5922 5.85768 39.7182 5.93095 39.8261 6.02706C39.934 6.12318 40.0216 6.24017 40.0836 6.37107C40.1485 6.50008 40.1869 6.64087 40.1968 6.78511C40.2066 6.92935 40.1876 7.07411 40.1409 7.21083C40.0483 7.48658 39.8515 7.71448 39.5932 7.84516L34.2235 10.5483H34.227ZM21.0318 4.33473C21.0784 4.28066 21.1285 4.23021 21.175 4.18335C21.3219 4.01418 21.5024 3.8779 21.7048 3.78329C21.9359 3.70534 22.1843 3.69534 22.4208 3.75446C23.2263 3.88421 24.089 4.47529 24.9661 5.37993C27.114 7.61089 29.3764 11.8674 30.9873 16.3401C32.5982 20.8129 33.5648 25.4802 33.0815 28.5113C32.8989 29.6394 32.5195 30.5513 31.8966 31.1532L31.8644 31.1784C31.6025 31.3679 31.2993 31.4915 30.9802 31.5388C30.9519 31.5128 30.922 31.4887 30.8907 31.4667C28.7463 29.9241 26.849 27.3652 25.2524 24.3557C25.6605 24.435 26.1832 24.1287 26.6844 23.6061C29.1902 20.9462 27.9588 16.2969 24.8336 15.2192C23.5592 14.7867 22.2919 14.7867 21.7908 15.0354L21.7371 15.0643C20.5915 10.6131 20.2658 6.49721 21.0318 4.33473Z" fill="black"/>
</svg>
