<svg width="24" height="25" viewBox="0 0 24 25" fill="none" xmlns="http://www.w3.org/2000/svg">
<path d="M10 5.55176C10 5.02132 10.2107 4.51262 10.5858 4.13754C10.9609 3.76247 11.4696 3.55176 12 3.55176C12.5304 3.55176 13.0391 3.76247 13.4142 4.13754C13.7893 4.51262 14 5.02132 14 5.55176C15.1484 6.09479 16.1274 6.94008 16.8321 7.99706C17.5367 9.05403 17.9404 10.2828 18 11.5518V14.5518C18.0753 15.1735 18.2954 15.7688 18.6428 16.2899C18.9902 16.8109 19.4551 17.2432 20 17.5518H4C4.54494 17.2432 5.00981 16.8109 5.35719 16.2899C5.70457 15.7688 5.92474 15.1735 6 14.5518V11.5518C6.05956 10.2828 6.4633 9.05403 7.16795 7.99706C7.8726 6.94008 8.85159 6.09479 10 5.55176" stroke="#04091E" stroke-width="1.5" stroke-linecap="round" stroke-linejoin="round"/>
<path d="M9 17.5518V18.5518C9 19.3474 9.31607 20.1105 9.87868 20.6731C10.4413 21.2357 11.2044 21.5518 12 21.5518C12.7956 21.5518 13.5587 21.2357 14.1213 20.6731C14.6839 20.1105 15 19.3474 15 18.5518V17.5518" stroke="#04091E" stroke-width="1.5" stroke-linecap="round" stroke-linejoin="round"/>
</svg>
