<svg width="32" height="32" viewBox="0 0 32 32" fill="none" xmlns="http://www.w3.org/2000/svg">
<g clip-path="url(#clip0_337_2985)">
<path fill-rule="evenodd" clip-rule="evenodd" d="M9 4C8.448 4 8 4.448 8 5C8 5.553 8.448 6 9 6C9.552 6 10 5.553 10 5C10 4.448 9.552 4 9 4ZM13 4C12.448 4 12 4.448 12 5C12 5.553 12.448 6 13 6C13.552 6 14 5.553 14 5C14 4.448 13.552 4 13 4ZM30 8H2V4C2 2.896 2.896 2 4 2H28C29.104 2 30 2.896 30 4V8ZM30 28C30 29.104 29.104 30 28 30H4C2.896 30 2 29.104 2 28V10H30V28ZM28 0H4C1.791 0 0 1.791 0 4V28C0 30.209 1.791 32 4 32H28C30.209 32 32 30.209 32 28V4C32 1.791 30.209 0 28 0ZM5 4C4.448 4 4 4.448 4 5C4 5.553 4.448 6 5 6C5.552 6 6 5.553 6 5C6 4.448 5.552 4 5 4Z" fill="black"/>
</g>
<defs>
<clipPath id="clip0_337_2985">
<rect width="32" height="32" fill="white"/>
</clipPath>
</defs>
</svg>
