<svg width="13" height="13" viewBox="0 0 13 13" fill="none" xmlns="http://www.w3.org/2000/svg">
<g clip-path="url(#clip0_338_6428)">
<path d="M2.16667 1.625H10.8333C10.977 1.625 11.1148 1.68207 11.2164 1.78365C11.3179 1.88523 11.375 2.02301 11.375 2.16667V10.8333C11.375 10.977 11.3179 11.1148 11.2164 11.2164C11.1148 11.3179 10.977 11.375 10.8333 11.375H2.16667C2.02301 11.375 1.88523 11.3179 1.78365 11.2164C1.68207 11.1148 1.625 10.977 1.625 10.8333V2.16667C1.625 2.02301 1.68207 1.88523 1.78365 1.78365C1.88523 1.68207 2.02301 1.625 2.16667 1.625ZM2.70833 2.70833V10.2917H10.2917V2.70833H2.70833ZM5.95996 8.66667L3.66167 6.36838L4.42758 5.60246L5.95996 7.13483L9.02363 4.07063L9.79008 4.83654L5.95996 8.66667Z" fill="#6F13CB"/>
</g>
<defs>
<clipPath id="clip0_338_6428">
<rect width="13" height="13" fill="white"/>
</clipPath>
</defs>
</svg>
