<svg width="49" height="49" viewBox="0 0 49 49" fill="none" xmlns="http://www.w3.org/2000/svg">
<path d="M19.3391 47.6871C8.70625 45.3311 0.75 35.8454 0.75 24.5C0.75 20.1728 1.90663 16.1163 3.93012 12.6203L14.1023 30.2404C15.2451 32.3117 16.9806 33.9943 19.0863 35.0726C21.1919 36.1508 23.5716 36.5754 25.9202 36.2919L19.3415 47.6871H19.3391ZM24.5 48.25L34.6816 30.6156C35.793 28.7696 36.3785 26.6548 36.375 24.5C36.3788 21.93 35.545 19.4288 34 17.375H47.1623C47.87 19.6241 48.25 22.0181 48.25 24.5C48.25 37.6171 37.6171 48.25 24.5 48.25ZM30.6085 28.1694C29.9703 29.2333 29.0653 30.112 27.9831 30.7186C26.901 31.3252 25.6791 31.6386 24.4386 31.6278C23.198 31.617 21.9818 31.2823 20.9103 30.657C19.8389 30.0317 18.9493 29.1373 18.3298 28.0625L18.2609 27.9438C17.6595 26.8539 17.3541 25.6255 17.3751 24.3809C17.3961 23.1363 17.7429 21.9189 18.3808 20.85C19.0187 19.7811 19.9255 18.8979 21.011 18.2885C22.0964 17.6791 23.3225 17.3647 24.5673 17.3766C25.812 17.3885 27.0319 17.7264 28.1054 18.3564C29.179 18.9865 30.0688 19.8868 30.6861 20.9677C31.3035 22.0486 31.6268 23.2724 31.6241 24.5172C31.6213 25.762 31.2924 26.9844 30.6702 28.0625L30.6085 28.1694ZM7.001 8.44264C9.22338 6.01513 11.9272 4.07735 14.9401 2.75287C17.953 1.42839 21.2088 0.746275 24.5 0.750015C28.6699 0.748324 32.7667 1.84497 36.3781 3.9296C39.9895 6.01423 42.9881 9.0133 45.0723 12.625H24.5C22.1735 12.6247 19.8982 13.3077 17.9564 14.5891C16.0146 15.8705 14.492 17.694 13.5774 19.8331L7.001 8.44264Z" fill="black"/>
</svg>
