<svg width="61" height="41" viewBox="0 0 61 41" fill="none" xmlns="http://www.w3.org/2000/svg">
<path fill-rule="evenodd" clip-rule="evenodd" d="M58.6087 32.4495L58.5788 32.338C58.2058 31.0093 57.3363 29.9515 56.2268 29.3134C55.6475 28.9798 55.0078 28.7635 54.3443 28.6768C53.6809 28.5902 53.0068 28.6351 52.3608 28.8087C51.0032 29.1712 49.921 30.0478 49.2697 31.1717L49.2678 31.1707C48.6032 32.3183 48.4168 33.6797 48.7486 34.9627L48.7787 35.075C49.1514 36.4011 50.0224 37.4584 51.1351 38.0985L51.1341 38.1004C52.2857 38.7625 53.652 38.9482 54.9395 38.6177L55.0533 38.5873C56.3862 38.2155 57.4472 37.3497 58.0874 36.2446C58.7537 35.0965 58.9409 33.7337 58.6087 32.4495ZM32.1969 15.4135C33.6456 15.4135 35.0355 15.6619 36.3277 16.1166L37.689 13.0765C36.3129 12.1438 35.254 10.7365 34.791 9.01425C34.278 7.10592 34.5906 5.16909 35.511 3.58089L35.5509 3.51751C36.4759 1.96016 37.9869 0.748715 39.874 0.245191C41.7896 -0.266049 43.7336 0.0455379 45.3277 0.962493L45.3912 1.00226C46.9543 1.92384 48.1703 3.42919 48.6758 5.3094C49.1888 7.21738 48.8762 9.15456 47.9558 10.7428L47.9159 10.8061C46.9908 12.3634 45.4798 13.5749 43.5926 14.0785C42.3158 14.421 40.9687 14.4041 39.7009 14.0297L38.3526 17.041C42.0835 19.1709 44.5974 23.177 44.5974 27.7679C44.5974 28.5103 44.5317 29.2372 44.4057 29.9435L47.0389 30.6421C47.1309 30.4447 47.2316 30.2514 47.3407 30.0629V30.0585C48.2772 28.4425 49.833 27.1822 51.7848 26.661C53.7337 26.1407 55.7125 26.4582 57.3353 27.3916C58.9607 28.3265 60.2273 29.8763 60.7497 31.8191L60.7516 31.8264C61.271 33.7658 60.9521 35.734 60.0164 37.3491C59.0783 38.9681 57.5224 40.23 55.5727 40.7508L55.5508 40.7562C53.6091 41.2684 51.6389 40.9502 50.0222 40.0204H50.0178C48.3956 39.0872 47.1308 37.5377 46.6076 35.5933L46.6038 35.5788C46.3591 34.6654 46.2959 33.7131 46.4178 32.7756L43.8179 32.086C42.0602 36.7795 37.5206 40.1224 32.1969 40.1224C26.1288 40.1224 21.0786 35.7793 20.0071 30.0427L14.3746 30.6942C14.359 31.8423 14.0648 33.0033 13.4653 34.0756C13.4342 34.1449 13.396 34.2108 13.3513 34.2722C12.395 35.8696 10.8508 37.0322 9.04731 37.5125C7.29796 37.9792 5.37051 37.7902 3.6687 36.8376C3.60862 36.8087 3.55121 36.7746 3.49714 36.7356C1.83107 35.7419 0.711627 34.1807 0.245548 32.448C-0.223151 30.7052 -0.03336 28.7845 0.922744 27.0893C0.947049 27.0393 0.975166 26.9906 1.00722 26.9441C2.00168 25.2714 3.57684 24.1466 5.32869 23.6791C7.07946 23.2117 9.0093 23.4024 10.7128 24.3594L10.7822 24.3963C12.4188 25.3376 13.5438 26.8241 14.0579 28.4929L19.7974 27.8289L19.7965 27.7679C19.7965 24.6478 20.9578 21.7981 22.8731 19.6239L18.997 15.2373C18.285 15.7439 17.4872 16.1185 16.6418 16.3432L16.6273 16.347C14.6831 16.8617 12.7102 16.5437 11.0914 15.6127C9.46621 14.678 8.1995 13.1279 7.67695 11.1856L7.67314 11.171C7.15654 9.23409 7.4756 7.2683 8.41002 5.65541C9.34814 4.03634 10.9041 2.77409 12.8542 2.25347C14.803 1.73321 16.7817 2.05073 18.4045 2.98407C20.0298 3.91883 21.2965 5.46905 21.8191 7.41157C22.3413 9.35314 22.0226 11.3246 21.0858 12.9414C20.9375 13.1973 20.774 13.4441 20.596 13.6805L24.4913 18.0886C26.6073 16.4141 29.2847 15.4135 32.1969 15.4135ZM19.1568 11.8371C19.4916 11.2599 19.7087 10.6225 19.7957 9.96155C19.8826 9.30057 19.8376 8.62898 19.6633 7.98536C19.2989 6.63088 18.4207 5.55273 17.296 4.90594C16.7168 4.57229 16.077 4.35595 15.4136 4.26933C14.7502 4.18272 14.0761 4.22754 13.4301 4.40122C12.0704 4.76433 10.9883 5.63914 10.339 6.75979C9.67296 7.90797 9.48584 9.27075 9.81791 10.555L9.84817 10.6673C10.2038 11.9433 11.0484 13.0291 12.1999 13.6908C13.3522 14.3545 14.7199 14.541 16.0088 14.2101L16.1218 14.1801C17.4549 13.8083 18.5164 12.9423 19.1568 11.8371ZM46.0268 9.62959C46.3526 9.06829 46.5639 8.44838 46.6486 7.80547C46.7332 7.16257 46.6895 6.50933 46.5199 5.88331C46.171 4.58533 45.3373 3.54801 44.2674 2.9151L44.2103 2.88436C43.6469 2.55969 43.0247 2.34913 42.3794 2.2648C41.7341 2.18047 41.0784 2.22401 40.4501 2.39294C39.1473 2.74062 38.1062 3.57116 37.4708 4.63708L37.44 4.69406C37.1141 5.25537 36.9028 5.8753 36.8182 6.51823C36.7336 7.16116 36.7773 7.81442 36.9468 8.44046C37.2958 9.73832 38.1294 10.7756 39.1993 11.4085L39.2565 11.4393C39.8199 11.7639 40.4421 11.9745 41.0874 12.0588C41.7327 12.1432 42.3884 12.0996 43.0167 11.9307C44.3195 11.5829 45.3606 10.7525 45.9959 9.68657L46.0268 9.62959ZM4.7113 34.8732C5.89449 35.554 7.24518 35.6918 8.47126 35.3646C9.69817 35.0372 10.7989 34.2458 11.4811 33.0682L11.4834 33.0641C12.1652 31.8848 12.3028 30.5393 11.9744 29.317C11.6462 28.0961 10.85 26.9999 9.66481 26.3181L9.61275 26.2861C8.44219 25.6327 7.11318 25.5044 5.90461 25.8269C4.67913 26.1538 3.57887 26.9471 2.89464 28.1279L2.89274 28.1312C2.21113 29.3092 2.07305 30.6535 2.4014 31.8742C2.73011 33.0965 3.52466 34.1932 4.70642 34.8729L4.7113 34.8732ZM36.2492 20.8765C36.072 20.7558 35.8708 20.7019 35.6674 20.743C35.4644 20.7818 35.2891 20.8896 35.1678 21.0642L34.4781 22.0337C34.0122 21.8256 33.4175 21.69 32.9123 21.6176L32.696 20.351C32.6552 20.1372 32.5469 19.9757 32.3847 19.8531C32.2095 19.7326 32.0212 19.6915 31.805 19.7326L30.2111 20.0149C30.0079 20.0557 29.8457 20.1503 29.7115 20.3249C29.5904 20.4995 29.5363 20.6888 29.5754 20.9045L29.7785 22.0615C29.2882 22.2657 28.8018 22.563 28.3879 22.8954L27.3067 22.1544C27.1314 22.0337 26.9431 21.9798 26.7399 22.0207C26.5368 22.0615 26.3615 22.1692 26.2404 22.3438L25.3213 23.6495C25.2002 23.8241 25.1461 24.0245 25.1872 24.2272C25.2263 24.4425 25.3344 24.6042 25.5115 24.7249L26.4828 25.4121C26.2778 25.8726 26.1378 26.4725 26.0651 26.9721L24.7956 27.1875C24.5793 27.2284 24.4172 27.3363 24.2941 27.4978C24.1731 27.6724 24.1339 27.8599 24.1731 28.0753L24.4565 29.6633C24.4975 29.8659 24.5924 30.0274 24.7677 30.161C24.9429 30.2836 25.133 30.3375 25.3493 30.2966L26.5107 30.0943C26.7249 30.6012 27.0178 31.0563 27.3477 31.4947L26.604 32.557C26.4828 32.7316 26.4287 32.9209 26.4697 33.1216C26.5107 33.324 26.6188 33.4986 26.794 33.6193L28.1177 34.548C28.2007 34.6069 28.2951 34.6481 28.3948 34.6692C28.4945 34.6903 28.5975 34.6907 28.6974 34.6705C28.9006 34.6297 29.0758 34.5349 29.2118 34.3604L29.8997 33.3778C30.3733 33.5859 30.955 33.7178 31.4674 33.7958L31.6838 35.0604C31.7229 35.2761 31.8311 35.4376 31.9932 35.5584C32.1703 35.679 32.3586 35.7199 32.5749 35.679L34.1687 35.3966C34.3719 35.3559 34.5322 35.2611 34.6683 35.0865C34.7896 34.9119 34.8435 34.7243 34.8027 34.5089L34.6012 33.352C35.1139 33.1365 35.5612 32.8467 36.0049 32.5162L37.073 33.257C37.2483 33.3778 37.4366 33.4316 37.6529 33.3909C37.869 33.352 38.0311 33.2442 38.1524 33.0678L39.0846 31.7491C39.2058 31.5744 39.2467 31.3721 39.2058 31.1713C39.1666 30.969 39.0715 30.7943 38.8962 30.6589L37.9102 29.9866C38.1153 29.5259 38.255 28.9259 38.3277 28.4264L39.5972 28.211C39.8135 28.1701 39.9756 28.0625 40.0987 27.9009C40.2199 27.7263 40.2609 27.5387 40.2199 27.3232L39.9366 25.7352C39.8953 25.5329 39.8004 25.3711 39.6251 25.2375C39.4499 25.1148 39.2598 25.061 39.0436 25.1019L37.8821 25.3044C37.6585 24.801 37.3918 24.3479 37.0451 23.9188L37.7891 22.8415C37.9102 22.6669 37.9643 22.4775 37.9231 22.2769C37.8821 22.0745 37.774 21.8999 37.5988 21.7772L36.2882 20.8635L36.2492 20.8765ZM32.1981 24.3125C34.0792 24.3125 35.6041 25.8317 35.6041 27.7057C35.6041 29.5797 34.0792 31.0989 32.1981 31.0989C30.3174 31.0989 28.7925 29.5797 28.7925 27.7057C28.7925 25.8317 30.3174 24.3125 32.1981 24.3125Z" fill="black"/>
</svg>
