<svg width="23" height="24" viewBox="0 0 23 24" fill="none" xmlns="http://www.w3.org/2000/svg">
<g clip-path="url(#clip0_338_6390)">
<path d="M13.7915 7.91464H15.6248C15.7464 7.91464 15.863 7.96028 15.9489 8.04151C16.0349 8.12274 16.0832 8.23291 16.0832 8.34779V15.2782C16.0832 15.3931 16.0349 15.5032 15.9489 15.5845C15.863 15.6657 15.7464 15.7113 15.6248 15.7113H7.37484C7.25328 15.7113 7.1367 15.6657 7.05075 15.5845C6.96479 15.5032 6.9165 15.3931 6.9165 15.2782V8.34779C6.9165 8.23291 6.96479 8.12274 7.05075 8.04151C7.1367 7.96028 7.25328 7.91464 7.37484 7.91464H9.20817V7.04834H10.1248V7.91464H12.8748V7.04834H13.7915V7.91464ZM15.1665 10.5135V8.78094H13.7915V9.64724H12.8748V8.78094H10.1248V9.64724H9.20817V8.78094H7.83317V10.5135H15.1665ZM15.1665 11.3798H7.83317V14.845H15.1665V11.3798ZM8.74984 12.2461H11.0415V13.9787H8.74984V12.2461Z" fill="#0C1071"/>
</g>
<rect width="23" height="23.6264" rx="2" fill="#0C1071" fill-opacity="0.1"/>
<defs>
<clipPath id="clip0_338_6390">
<rect width="11" height="10.3956" fill="white" transform="translate(6 6.61523)"/>
</clipPath>
</defs>
</svg>
