<svg width="54" height="51" viewBox="0 0 54 51" fill="none" xmlns="http://www.w3.org/2000/svg">
<path d="M32.3331 40V45.3333L37.6664 48V50.6667H16.3331L16.3224 48.0107L21.6664 45.3333V40H2.97845C2.62828 39.9979 2.28196 39.9267 1.95935 39.7905C1.63674 39.6544 1.34417 39.4559 1.09843 39.2064C0.852679 38.9569 0.658579 38.6614 0.527251 38.3368C0.395924 38.0122 0.329952 37.6648 0.333116 37.3147V2.68533C0.333116 1.20267 1.54645 0 2.97845 0H51.0211C52.4824 0 53.6664 1.19733 53.6664 2.68533V37.3147C53.6664 38.7973 52.4531 40 51.0211 40H32.3331ZM5.66645 29.3333V34.6667H48.3331V29.3333H5.66645Z" fill="black"/>
</svg>
