<svg width="57" height="58" viewBox="0 0 57 58" fill="none" xmlns="http://www.w3.org/2000/svg">
<path d="M48.0503 37.3526C48.0503 42.9407 45.7678 47.9779 42.108 51.5983C38.5269 55.1794 33.5684 57.3439 28.0984 57.3439C22.6677 57.3439 17.7092 55.1401 14.0888 51.5983C10.429 47.9779 8.14648 42.9407 8.14648 37.3526C8.14648 26.2944 17.0796 17.3613 28.0984 17.3613C39.1172 17.3613 48.0503 26.3338 48.0503 37.3526Z" fill="#F1F3F9" stroke="#D6DCE8" stroke-miterlimit="10"/>
<path d="M50.1174 29.7699C51.0085 29.7699 51.7308 29.0475 51.7308 28.1564C51.7308 27.2653 51.0085 26.543 50.1174 26.543C49.2263 26.543 48.5039 27.2653 48.5039 28.1564C48.5039 29.0475 49.2263 29.7699 50.1174 29.7699Z" fill="#EAEEF9"/>
<path d="M48.68 17.9518C49.2886 17.9518 49.7819 17.4585 49.7819 16.8499C49.7819 16.2414 49.2886 15.748 48.68 15.748C48.0715 15.748 47.5781 16.2414 47.5781 16.8499C47.5781 17.4585 48.0715 17.9518 48.68 17.9518Z" fill="#EAEEF9"/>
<path d="M8.77571 24.2086C9.38426 24.2086 9.87759 23.7153 9.87759 23.1068C9.87759 22.4982 9.38426 22.0049 8.77571 22.0049C8.16716 22.0049 7.67383 22.4982 7.67383 23.1068C7.67383 23.7153 8.16716 24.2086 8.77571 24.2086Z" fill="#EAEEF9"/>
<path d="M2.04635 45.4589C3.17652 45.4589 4.0927 44.5427 4.0927 43.4126C4.0927 42.2824 3.17652 41.3662 2.04635 41.3662C0.916182 41.3662 0 42.2824 0 43.4126C0 44.5427 0.916182 45.4589 2.04635 45.4589Z" fill="#EAEEF9"/>
<path d="M43.2267 25.5829L41.5855 37.5041L39.5341 52.2343C39.0554 52.5083 38.5084 52.7139 37.9613 52.7139H14.3013C13.2756 52.7139 12.3866 52.3713 11.6344 51.8232C11.4293 51.6862 11.2241 51.4806 11.019 51.2751C10.1984 50.4529 9.65137 49.2197 9.65137 47.918V22.4314C9.65137 21.2666 10.6087 20.376 11.7028 20.376H18.8829C19.3615 20.376 19.8402 20.5815 20.2505 20.9926L22.5755 23.5275C22.9174 23.8701 23.396 24.0756 23.8747 24.0756H41.8591C42.6796 24.0756 43.2951 24.7608 43.2267 25.5829Z" fill="#D6DCE8" stroke="#AAB2C5" stroke-miterlimit="10"/>
<path d="M13.1396 50.1113L15.0543 27.9817C15.1227 27.1596 15.8065 26.543 16.6271 26.543H43.8429C44.5951 26.543 45.1422 27.1596 45.0738 27.9132L43.1591 46.7541L13.1396 50.1113Z" fill="white" stroke="#D6DCE8" stroke-miterlimit="10" stroke-linejoin="round"/>
<path d="M24.012 47.7121L14.0283 50.0415L20.1827 33.119C20.4562 32.3653 21.14 31.8857 21.9606 31.8857H46.0992C46.9882 31.8857 47.6036 32.8449 47.1933 33.6671L40.6287 47.0955L24.012 47.7121Z" fill="white" stroke="#D6DCE8" stroke-miterlimit="10" stroke-linejoin="round"/>
<path d="M49.5181 39.1496L40.355 51.4818C40.1499 51.7559 39.8079 52.0299 39.5344 52.2355C39.0557 52.5095 38.5087 52.7151 37.9616 52.7151H14.3016C13.2759 52.7151 12.387 52.3725 11.6348 51.8244L21.2082 40.6569H36.2521C36.9359 40.6569 37.6197 40.4513 38.1668 39.9718L40.7653 37.9849C41.0388 37.7794 41.3123 37.6423 41.5859 37.5053C41.9278 37.3683 42.3381 37.2998 42.68 37.2998H48.5608C49.5181 37.2313 50.0652 38.396 49.5181 39.1496Z" fill="#D6DCE8" stroke="#AAB2C5" stroke-miterlimit="10"/>
<path d="M44.4223 22.8473L33.688 15.8944C33.0708 15.4907 32.8907 14.6699 33.2924 14.0459L39.9583 3.78271C40.3628 3.16569 41.1844 2.98516 41.8086 3.386L52.543 10.3389C53.1602 10.7427 53.3402 11.5634 52.9385 12.1874L46.2755 22.4576C45.871 23.0746 45.0395 23.251 44.4223 22.8473Z" fill="#F1F3F9" stroke="#D6DCE8" stroke-miterlimit="10"/>
<path d="M44.8258 20.9254L35.3882 14.8118C35.1215 14.642 35.0495 14.2858 35.2197 14.0192L40.7321 5.53319C40.9022 5.26657 41.2588 5.19439 41.5255 5.36418L50.9631 11.4778C51.2298 11.6475 51.3017 12.0038 51.1316 12.2704L45.6192 20.7564C45.4491 21.023 45.0925 21.0952 44.8258 20.9254Z" fill="white"/>
<path d="M42.3825 14.7786L38.9377 12.5458L41.9224 11.7092L42.3825 14.7786Z" fill="#B0B7C4"/>
<path d="M45.2322 16.6235L40.2694 13.4122L44.5668 12.2103L45.2322 16.6235Z" fill="#CED6E2"/>
<path d="M41.6689 10.3681C41.831 10.7639 42.2837 10.9533 42.68 10.791C43.0764 10.6287 43.2662 10.1762 43.1041 9.78028C42.942 9.3844 42.4893 9.19506 42.0929 9.35737C41.6966 9.51968 41.5067 9.97218 41.6689 10.3681Z" fill="#B0B7C4"/>
<path d="M26.3646 10.6486C26.0669 9.5817 25.6503 8.32681 25.03 7.39541C24.6902 6.88272 24.1721 6.5145 23.5608 6.37628C22.89 6.22936 22.2873 6.3726 21.6337 6.53276C20.4707 6.77673 19.3163 7.13159 18.1874 7.56329C17.1774 7.9271 15.989 8.26481 15.1828 8.9874C14.0118 10.0586 14.2842 11.3898 14.701 12.8153C14.9987 13.8822 15.4153 15.1371 16.0356 16.0685C16.5369 16.8119 17.4115 17.2324 18.2859 17.1411C19.4405 17.0421 21.7493 16.3323 22.8612 15.9347C23.8204 15.5878 24.8984 15.2583 25.7046 14.621C27.0539 13.5759 26.8324 12.2277 26.3646 10.6486ZM18.605 10.5239C18.4775 10.1397 18.6387 9.94404 19.0377 10.039C20.1075 10.2809 21.2113 10.5399 22.2812 10.7818C22.6802 10.8768 22.7568 11.1073 22.5023 11.4477C21.7896 12.2814 21.0854 13.1408 20.3727 13.9745C20.0842 14.2978 19.872 14.2545 19.7274 13.9044C19.6764 13.7508 18.724 10.8824 18.605 10.5239Z" fill="#D6DCE8" stroke="#AAB2C5" stroke-miterlimit="10"/>
<path d="M35.035 50.5874L35.0351 50.5874L35.0367 50.5797C35.5455 48.2541 34.8188 45.7888 33.1152 44.0852L33.1087 44.0787L33.1019 44.0724C32.1032 43.145 30.9119 42.4547 29.5289 42.1632C25.6769 41.3283 21.9442 43.8373 21.1478 47.6744C20.3505 51.516 22.8136 55.2861 26.6563 56.0856C28.2982 56.4496 29.9307 56.1554 31.2998 55.4709L31.2998 55.4709L31.3046 55.4685C32.6393 54.7831 33.729 53.7323 34.42 52.3867L34.4243 52.3783L34.4283 52.3698C34.6809 51.8286 34.8935 51.1886 35.035 50.5874Z" fill="white" stroke="#AAB2C5"/>
<path d="M30.2004 47.551H29.6834V47.034C29.6834 46.2172 29.0378 45.4609 28.1104 45.4609C27.2935 45.4609 26.5373 46.1065 26.5373 47.034V47.551H26.0203C25.2035 47.551 24.4473 48.1966 24.4473 49.124C24.4473 49.5321 24.5942 49.938 24.9003 50.2441C25.2064 50.5502 25.6123 50.6971 26.0203 50.6971H26.5373V51.214C26.5373 52.0308 27.1829 52.7871 28.1104 52.7871C28.9272 52.7871 29.6834 52.1415 29.6834 51.214V50.6971H30.2004C31.0172 50.6971 31.7734 50.0515 31.7734 49.124C31.7734 48.1966 31.0172 47.551 30.2004 47.551Z" fill="white" stroke="#AAB2C5" stroke-width="2"/>
</svg>
