<svg width="25" height="25" viewBox="0 0 25 25" fill="none" xmlns="http://www.w3.org/2000/svg">
<path d="M11.7188 2.34375V3.97949C9.50317 4.35181 7.8125 6.28967 7.8125 8.59375C7.8125 9.9823 8.46252 11.0535 9.32617 11.7432C10.1898 12.4329 11.2305 12.8174 12.207 13.208C13.1836 13.5986 14.0961 13.9954 14.6973 14.4775C15.2985 14.9597 15.625 15.448 15.625 16.4062C15.625 18.0908 14.2242 19.5312 12.5 19.5312C10.7666 19.5312 9.375 18.1396 9.375 16.4062V15.625H7.8125V16.4062C7.8125 18.7225 9.50317 20.6482 11.7188 21.0205V22.6562H13.2812V21.0205C15.5029 20.6451 17.1875 18.692 17.1875 16.4062C17.1875 15.0146 16.5375 13.9496 15.6738 13.2568C14.8102 12.5641 13.7695 12.1582 12.793 11.7676C11.8164 11.377 10.9039 11.0016 10.3027 10.5225C9.70154 10.0433 9.375 9.5459 9.375 8.59375C9.375 6.88171 10.7697 5.46875 12.5 5.46875C14.2334 5.46875 15.625 6.86035 15.625 8.59375V9.375H17.1875V8.59375C17.1875 6.27747 15.4968 4.35181 13.2812 3.97949V2.34375H11.7188Z" fill="#4E5F70"/>
</svg>
