<svg width="22" height="23" viewBox="0 0 22 23" fill="none" xmlns="http://www.w3.org/2000/svg">
<path d="M7.94922 13.6873C7.94922 14.8698 8.85672 15.8231 9.98422 15.8231H12.2851C13.2659 15.8231 14.0634 14.989 14.0634 13.9623C14.0634 12.844 13.5776 12.4498 12.8534 12.1931L9.15922 10.9098C8.43505 10.6531 7.94922 10.259 7.94922 9.14062C7.94922 8.11395 8.74672 7.27979 9.72755 7.27979H12.0284C13.1559 7.27979 14.0634 8.23312 14.0634 9.41562" stroke="#04091E" stroke-width="1.5" stroke-linecap="round" stroke-linejoin="round"/>
<path d="M11 6.05176V17.0518" stroke="#04091E" stroke-width="1.5" stroke-linecap="round" stroke-linejoin="round"/>
<path d="M11 20.7186C16.0626 20.7186 20.1667 16.6145 20.1667 11.5519C20.1667 6.48931 16.0626 2.38525 11 2.38525C5.9374 2.38525 1.83334 6.48931 1.83334 11.5519C1.83334 16.6145 5.9374 20.7186 11 20.7186Z" stroke="#04091E" stroke-width="1.5" stroke-linecap="round" stroke-linejoin="round"/>
</svg>
