<svg width="11" height="11" viewBox="0 0 11 11" fill="none" xmlns="http://www.w3.org/2000/svg">
<path d="M5.50029 0C2.46685 0 0 2.46755 0 5.5C0 8.53245 2.46685 11 5.50029 11C8.53258 11 11 8.53245 11 5.5C11 2.46755 8.53258 0 5.50029 0ZM10.1911 5.5C10.1911 6.57307 9.82673 7.5625 9.21947 8.35312C9.0476 8.21906 8.86485 7.85641 9.03672 7.48057C9.2103 7.10245 9.25556 6.22703 9.21546 5.88615C9.17765 5.54583 9.00062 4.72599 8.51997 4.71797C8.03989 4.71109 7.71048 4.5524 7.42519 3.98292C6.83339 2.79812 8.53601 2.57068 7.94422 1.91526C7.77866 1.73078 6.92276 2.67266 6.7973 1.4174C6.78928 1.32745 6.87464 1.19281 6.98979 1.05302C8.84824 1.6775 10.1911 3.43464 10.1911 5.5ZM4.85579 0.855365C4.7435 1.07422 4.44732 1.16302 4.26743 1.32745C3.87558 1.68208 3.70715 1.63281 3.49633 1.97312C3.28379 2.31344 2.59861 2.80328 2.59861 3.04964C2.59861 3.29599 2.94464 3.58589 3.11765 3.52974C3.29066 3.47245 3.74725 3.47589 4.01536 3.56984C4.28405 3.66495 6.25764 3.76005 5.62861 5.42839C5.42925 5.95891 4.5556 5.86953 4.323 6.74781C4.28806 6.87672 4.16718 7.42729 4.15973 7.60719C4.14541 7.88562 4.3568 8.93521 4.08812 8.93521C3.81829 8.93521 3.09244 7.9962 3.09244 7.82604C3.09244 7.65589 2.90454 7.05948 2.90454 6.54844C2.90454 6.03797 2.03489 6.04599 2.03489 5.36708C2.03489 4.75521 2.50638 4.45042 2.4004 4.15651C2.2967 3.86432 1.46831 3.85458 1.12286 3.81849C1.42491 3.03694 1.93017 2.35022 2.58642 1.8293C3.24267 1.30838 4.02611 0.972151 4.85579 0.855365ZM4.02453 9.95156C4.30639 9.8026 4.33503 9.6101 4.59054 9.60036C4.88271 9.58719 5.12046 9.48635 5.44987 9.41359C5.74204 9.35 6.26509 9.05323 6.72512 9.01542C7.11354 8.98391 7.87949 9.03547 8.08572 9.41016C7.49434 9.80289 6.82128 10.0558 6.1176 10.1496C5.41393 10.2434 4.69813 10.1757 4.02453 9.95156Z" fill="black"/>
</svg>
