<svg width="50" height="50" viewBox="0 0 50 50" fill="none" xmlns="http://www.w3.org/2000/svg">
<g clip-path="url(#clip0_472_3569)">
<path d="M50 25C50 11.1926 38.8074 0 25 0C11.1926 0 0 11.1926 0 25C0 37.4778 9.14074 47.8222 21.0926 49.6963V32.2259H14.7444V25H21.0926V19.4926C21.0926 13.2259 24.8259 9.76667 30.537 9.76667C33.2741 9.76667 36.1333 10.2556 36.1333 10.2556V16.4074H32.9815C29.8741 16.4074 28.9074 18.3333 28.9074 20.3111V25H35.8407L34.7333 32.2259H28.9074V49.6963C40.8593 47.8222 50 37.4778 50 25Z" fill="#4676ED"/>
<path d="M34.7293 32.226L35.8367 25.0001H28.9071V20.3112C28.9071 18.3334 29.8738 16.4075 32.9812 16.4075H36.133V10.2556C36.133 10.2556 33.2738 9.76672 30.5367 9.76672C24.8256 9.76672 21.0923 13.226 21.0923 19.4927V25.0001H14.7441V32.226H21.0923V49.6964C22.3664 49.8964 23.6701 50.0001 24.9997 50.0001C26.3293 50.0001 27.633 49.8964 28.9071 49.6964V32.226H34.7293Z" fill="white"/>
</g>
<defs>
<clipPath id="clip0_472_3569">
<rect width="50" height="50" fill="white"/>
</clipPath>
</defs>
</svg>
