<svg width="23" height="25" viewBox="0 0 23 25" fill="none" xmlns="http://www.w3.org/2000/svg">
<g clip-path="url(#clip0_338_6443)">
<path d="M12.7961 10.5553L10.2038 13.1481C10.16 13.1904 10.1251 13.241 10.101 13.2969C10.077 13.3528 10.0644 13.4129 10.0639 13.4738C10.0633 13.5347 10.0749 13.595 10.098 13.6513C10.121 13.7077 10.155 13.7588 10.1981 13.8019C10.2411 13.8449 10.2923 13.8789 10.3486 13.902C10.4049 13.925 10.4653 13.9366 10.5262 13.9361C10.587 13.9356 10.6472 13.9229 10.7031 13.8989C10.759 13.8749 10.8096 13.84 10.8518 13.7962L13.4446 11.2039C13.7025 10.946 13.8474 10.5962 13.8474 10.2315C13.8474 9.86681 13.7025 9.51704 13.4446 9.25915C13.1868 9.00127 12.837 8.85639 12.4723 8.85639C12.1076 8.85639 11.7578 9.00127 11.4999 9.25915L8.90714 11.8519C8.68992 12.0638 8.51692 12.3166 8.39818 12.5958C8.27944 12.875 8.21732 13.1749 8.21542 13.4783C8.21352 13.7817 8.27188 14.0825 8.38711 14.3631C8.50234 14.6438 8.67216 14.8987 8.8867 15.1133C9.10125 15.3278 9.35625 15.4976 9.63692 15.6127C9.91759 15.7279 10.2183 15.7863 10.5217 15.7843C10.8251 15.7824 11.1251 15.7202 11.4043 15.6014C11.6834 15.4826 11.9362 15.3096 12.148 15.0924L14.7408 12.5L15.3889 13.1481L12.7961 15.7409C12.4982 16.0388 12.1445 16.2752 11.7552 16.4364C11.3659 16.5977 10.9487 16.6807 10.5273 16.6807C10.106 16.6807 9.68878 16.5977 9.29951 16.4364C8.91023 16.2752 8.55653 16.0388 8.25859 15.7409C7.96066 15.443 7.72432 15.0893 7.56308 14.7C7.40184 14.3107 7.31885 13.8935 7.31885 13.4722C7.31885 13.0508 7.40184 12.6336 7.56308 12.2443C7.72432 11.855 7.96066 11.5013 8.25859 11.2034L10.8518 8.61107C11.2841 8.19363 11.8629 7.96264 12.4638 7.96786C13.0647 7.97308 13.6395 8.21409 14.0643 8.63899C14.4892 9.06388 14.7303 9.63866 14.7355 10.2395C14.7407 10.8404 14.5097 11.4193 14.0923 11.8515L11.4999 14.4452C11.3722 14.5729 11.2206 14.6742 11.0537 14.7433C10.8869 14.8124 10.708 14.8479 10.5274 14.8479C10.3468 14.8479 10.168 14.8123 10.0011 14.7431C9.83428 14.674 9.68268 14.5727 9.55499 14.445C9.4273 14.3172 9.32601 14.1656 9.25692 13.9988C9.18783 13.8319 9.15227 13.6531 9.1523 13.4725C9.15232 13.2918 9.18791 13.113 9.25704 12.9462C9.32618 12.7793 9.4275 12.6277 9.55522 12.5L12.148 9.90724L12.7961 10.5553Z" fill="#F16232"/>
</g>
<rect width="23" height="25" rx="2" fill="#F06435" fill-opacity="0.1"/>
<defs>
<clipPath id="clip0_338_6443">
<rect width="11" height="11" fill="white" transform="translate(6 7)"/>
</clipPath>
</defs>
</svg>
