<svg width="50" height="50" viewBox="0 0 50 50" fill="none" xmlns="http://www.w3.org/2000/svg">
<g clip-path="url(#clip0_337_3204)">
<path d="M25 50C38.8071 50 50 38.8071 50 25C50 11.1929 38.8071 0 25 0C11.1929 0 0 11.1929 0 25C0 38.8071 11.1929 50 25 50Z" fill="#4467AD"/>
<path d="M26.9333 21.5888C27.3444 21.1259 27.6815 20.6592 28.1037 20.2629C29.4 19.0407 30.9333 18.4259 32.7259 18.4407C33.7111 18.4481 34.6815 18.5185 35.6296 18.7925C37.8 19.4185 39.0592 20.9148 39.663 23.0333C40.1148 24.6222 40.1963 26.2555 40.2 27.8925C40.2074 31.3444 40.1889 34.7999 40.1963 38.2518C40.1963 38.574 40.1074 38.6592 39.7889 38.6592C38.0111 38.6444 36.2296 38.6444 34.4518 38.6592C34.137 38.6629 34.0704 38.5666 34.0704 38.2703C34.0815 34.9851 34.0815 31.6999 34.0704 28.4111C34.0667 27.5888 34.0148 26.7629 33.7852 25.9629C33.3592 24.4888 32.3037 23.737 30.7592 23.8185C28.6481 23.9296 27.5518 24.974 27.2815 27.1185C27.2185 27.6296 27.1852 28.1444 27.1889 28.6592C27.1926 31.8555 27.1852 35.0518 27.1963 38.2481C27.1963 38.5666 27.1185 38.6592 26.7926 38.6592C25 38.6444 23.2074 38.6444 21.4148 38.6592C21.1259 38.6629 21.0444 38.5851 21.0444 38.2925C21.0518 31.9666 21.0518 25.637 21.0444 19.3111C21.0444 18.9962 21.1481 18.9259 21.4444 18.9259C23.1444 18.937 24.8481 18.9407 26.5481 18.9259C26.863 18.9222 26.9407 19.0259 26.937 19.3222C26.9222 20.0777 26.9333 20.8333 26.9333 21.5888Z" fill="#FEFEFE"/>
<path d="M17.1851 28.8183C17.1851 31.948 17.1814 35.0776 17.1925 38.2072C17.1925 38.5554 17.1073 38.6591 16.7481 38.6554C14.9703 38.6368 13.1925 38.6406 11.411 38.6517C11.1258 38.6554 11.0406 38.5813 11.0406 38.2887C11.0481 31.9517 11.0481 25.6146 11.0406 19.2739C11.0406 19.0109 11.1036 18.9183 11.3814 18.9183C13.1851 18.9294 14.9888 18.9331 16.7925 18.9146C17.1406 18.9109 17.1851 19.0443 17.1851 19.3443C17.1814 22.5072 17.1851 25.6628 17.1851 28.8183Z" fill="#FEFEFE"/>
<path d="M17.6777 12.6445C17.6814 14.6111 16.0852 16.2111 14.1222 16.2111C12.1852 16.2111 10.5777 14.6111 10.5703 12.6741C10.5629 10.7185 12.1703 9.10742 14.1296 9.10742C16.074 9.11483 17.674 10.7111 17.6777 12.6445Z" fill="#FEFEFE"/>
</g>
<defs>
<clipPath id="clip0_337_3204">
<rect width="50" height="50" fill="white"/>
</clipPath>
</defs>
</svg>
