<svg width="50" height="50" viewBox="0 0 50 50" fill="none" xmlns="http://www.w3.org/2000/svg">
<g clip-path="url(#clip0_337_3212)">
<path d="M25 50C38.8071 50 50 38.8071 50 25C50 11.1929 38.8071 0 25 0C11.1929 0 0 11.1929 0 25C0 38.8071 11.1929 50 25 50Z" fill="#FEFB00"/>
<path d="M14.4703 19.1591C14.4703 19.0665 14.4703 18.9961 14.4703 18.9258C14.4741 18.4813 14.4703 18.0369 14.4852 17.5924C14.5222 16.6258 14.6185 15.6628 14.8481 14.7184C15.1555 13.4628 15.7037 12.3332 16.5 11.3146C17.9148 9.49983 19.7592 8.34427 21.9629 7.73687C23.1296 7.41465 24.3259 7.31094 25.5333 7.35168C26.8222 7.39613 28.0741 7.63687 29.2778 8.11094C30.5407 8.60724 31.6741 9.31465 32.6518 10.2591C33.2111 10.7998 33.6963 11.3998 34.1148 12.0517C34.7666 13.0628 35.1629 14.1739 35.3778 15.3517C35.5592 16.3369 35.6148 17.3332 35.6222 18.3369C35.6259 18.6035 35.6222 18.8665 35.6222 19.1221C35.6778 19.1776 35.7222 19.1406 35.7629 19.1332C36.1407 19.0554 36.5185 19.0109 36.9037 19.0295C37.4111 19.0554 37.8926 19.1739 38.337 19.4184C39.1259 19.8554 39.6222 20.5184 39.8259 21.3961C40.0629 22.4221 39.8222 23.3443 39.1741 24.1628C38.8555 24.5628 38.4704 24.8924 38.0481 25.1776C37.7 25.4146 37.3444 25.6406 36.9926 25.8739C36.8481 25.9665 36.7037 26.0628 36.5629 26.1554C36.5185 26.185 36.4704 26.2146 36.4296 26.248C36.2074 26.4221 36.1555 26.5739 36.2407 26.8406C36.2666 26.9295 36.3111 27.0146 36.3518 27.0961C36.8111 28.0332 37.4333 28.848 38.1852 29.5665C39.0037 30.3517 39.9296 30.9813 40.9333 31.4998C41.2037 31.6406 41.4741 31.7776 41.7407 31.9258C41.9741 32.0554 42.1889 32.2109 42.3778 32.3998C42.7666 32.7924 42.9815 33.2702 43.0111 33.8221C43.037 34.2961 42.8963 34.7332 42.6407 35.1295C42.3592 35.5628 41.9963 35.9109 41.5555 36.1776C41.2 36.3924 40.8296 36.5739 40.4518 36.7369C40.0555 36.9072 39.6518 37.0443 39.237 37.1628C39.0963 37.2035 38.9555 37.2517 38.8148 37.3035C38.6555 37.3628 38.5407 37.4776 38.4704 37.6369C38.4296 37.7295 38.3889 37.8221 38.3518 37.9184C38 38.8258 37.3407 39.3776 36.4 39.5998C36.0481 39.6813 35.6926 39.7146 35.3333 39.7332C34.937 39.7554 34.537 39.7628 34.1407 39.7887C33.5074 39.8295 32.8852 39.9369 32.2815 40.1295C32.0185 40.2109 31.7741 40.3258 31.537 40.4665C31.2185 40.6517 30.9074 40.8406 30.5926 41.0332C30.0444 41.3665 29.4889 41.6776 28.8963 41.9295C28.0741 42.2776 27.2185 42.5072 26.3259 42.6109C25.5481 42.7035 24.7666 42.7109 23.9889 42.6332C22.7963 42.5146 21.6666 42.1776 20.6 41.6295C20.1629 41.4035 19.7407 41.1517 19.3222 40.8961C19.1407 40.785 18.9592 40.6813 18.7815 40.5665C18.2518 40.2332 17.6703 40.0443 17.0592 39.9258C16.4444 39.8035 15.8222 39.7665 15.1963 39.7443C14.7815 39.7295 14.3703 39.7109 13.9592 39.6443C13.6481 39.5924 13.3518 39.5072 13.0703 39.3665C12.4852 39.0776 12.0703 38.6295 11.8148 38.0332C11.7666 37.9184 11.7222 37.7998 11.6778 37.685C11.6 37.485 11.4592 37.3443 11.2555 37.2739C11.1296 37.2332 11.0037 37.1924 10.8778 37.1554C10.1555 36.948 9.45924 36.6739 8.80368 36.3109C8.37035 36.0702 7.98146 35.7739 7.67035 35.3813C7.44812 35.1035 7.27405 34.7998 7.18516 34.4554C6.99998 33.7109 7.17035 33.048 7.67405 32.4739C7.84072 32.285 8.04072 32.1332 8.25183 31.9998C8.47776 31.8591 8.71109 31.7369 8.94813 31.6184C9.80368 31.1961 10.6111 30.6924 11.3481 30.0813C12.2185 29.3665 12.9592 28.5369 13.5185 27.5554C13.6185 27.3813 13.7074 27.1961 13.8 27.0146C13.8555 26.9109 13.8852 26.7961 13.9 26.6813C13.9185 26.5591 13.8815 26.448 13.8 26.3554C13.7222 26.2665 13.6259 26.1998 13.5259 26.1369C13.0555 25.8295 12.5852 25.5221 12.1148 25.2109C11.8148 25.0146 11.5333 24.7887 11.2741 24.5369C10.8852 24.1554 10.5703 23.7221 10.3815 23.2072C9.95183 22.0591 10.237 20.7332 11.0963 19.8961C11.5629 19.4406 12.1259 19.1739 12.7666 19.0628C13.2666 18.9776 13.7629 18.9961 14.2555 19.1072C14.3148 19.1295 14.3741 19.1406 14.4703 19.1591Z" fill="black"/>
<path d="M33.6111 19.1183C33.6037 19.8072 33.5704 20.4924 33.5185 21.1776C33.5111 21.2961 33.5074 21.4109 33.5037 21.5294C33.5 21.785 33.6444 21.8887 33.9 21.8665C33.9926 21.8591 34.0852 21.8331 34.1741 21.8035C34.4222 21.7146 34.6741 21.622 34.9185 21.5294C35.3333 21.3702 35.7481 21.2146 36.1852 21.1146C36.4778 21.048 36.7667 21.0109 37.0667 21.0813C37.7407 21.2368 38.0889 21.9072 37.8296 22.548C37.7629 22.7183 37.6592 22.8628 37.537 22.9961C37.3629 23.1887 37.1667 23.3517 36.9518 23.4998C36.7 23.6702 36.4444 23.8368 36.1926 24.0035C35.7704 24.2813 35.3444 24.5591 34.9222 24.8406C34.7481 24.9591 34.5778 25.0813 34.4111 25.2109C34.3185 25.2813 34.2333 25.3628 34.1555 25.4517C33.9963 25.6294 33.9222 25.8368 33.937 26.0739C33.9518 26.2998 33.9926 26.522 34.0555 26.7406C34.2555 27.4443 34.5629 28.0998 34.937 28.722C35.6259 29.8739 36.5148 30.8517 37.5518 31.6961C38.4333 32.4146 39.3963 33.0035 40.4148 33.5035C40.5074 33.548 40.5963 33.5961 40.6815 33.648C40.7481 33.6887 40.8074 33.7406 40.8518 33.8072C40.9222 33.9035 40.9296 34.0072 40.8704 34.1146C40.8222 34.2072 40.7481 34.2776 40.6704 34.3406C40.5555 34.4368 40.4259 34.5109 40.2963 34.5813C39.7185 34.8961 39.1037 35.1183 38.4704 35.2887C38.2 35.3628 37.9296 35.4406 37.6592 35.5183C37.4704 35.5739 37.2963 35.6554 37.1222 35.7443C36.8296 35.8961 36.6629 36.1368 36.6037 36.4554C36.5704 36.6331 36.5481 36.8109 36.5185 36.985C36.437 37.4294 36.2778 37.5924 35.8407 37.6702C35.6889 37.6961 35.5296 37.7109 35.3741 37.722C34.9852 37.7443 34.5926 37.7554 34.2037 37.7776C33.3185 37.8257 32.4518 37.9628 31.6074 38.2406C31.2518 38.3591 30.9074 38.5109 30.5852 38.6961C30.2407 38.8924 29.9 39.0998 29.5592 39.3072C29.0185 39.6331 28.4704 39.9443 27.8778 40.1739C27.2185 40.4294 26.537 40.5813 25.8333 40.6443C25.2407 40.6998 24.6481 40.6887 24.0555 40.622C23.1704 40.522 22.3333 40.2665 21.5407 39.8591C21.1741 39.6702 20.8185 39.4591 20.4629 39.2443C20.2037 39.085 19.9444 38.9294 19.6815 38.7739C19.0592 38.4035 18.3852 38.1665 17.6778 38.0109C17.037 37.8702 16.3852 37.7924 15.7296 37.7702C15.3852 37.7554 15.0444 37.7443 14.7 37.722C14.5037 37.7109 14.3111 37.685 14.1222 37.6368C13.8555 37.5665 13.6852 37.4035 13.6296 37.1331C13.6 36.9813 13.5741 36.8257 13.5481 36.6739C13.5444 36.6443 13.5407 36.6109 13.537 36.5813C13.4778 36.1739 13.2778 35.8739 12.8926 35.6998C12.6555 35.5924 12.4148 35.5072 12.1666 35.4368C11.737 35.3183 11.3074 35.2146 10.8889 35.0628C10.5222 34.9294 10.1629 34.7739 9.8222 34.5887C9.7185 34.5331 9.6185 34.4702 9.5222 34.4072C9.45924 34.3628 9.39628 34.3146 9.34443 34.2591C9.14443 34.0517 9.16295 33.8628 9.38887 33.685C9.49998 33.5998 9.62961 33.5406 9.75554 33.4776C10.6481 33.0406 11.4926 32.5257 12.2815 31.922C13.4037 31.0554 14.3666 30.0406 15.1111 28.8294C15.5074 28.1813 15.8333 27.4998 16.0444 26.7702C16.1111 26.5368 16.1592 26.2998 16.1666 26.0591C16.1778 25.8183 16.0963 25.6146 15.937 25.4406C15.8407 25.3368 15.7333 25.248 15.6222 25.1628C15.2963 24.9183 14.9592 24.6961 14.6185 24.4739C14.1889 24.1924 13.7555 23.9109 13.3259 23.6294C13.1111 23.4887 12.9037 23.3368 12.7148 23.1591C12.5778 23.0294 12.4555 22.8887 12.3592 22.7257C12.1555 22.385 12.1407 22.0331 12.2963 21.6702C12.4037 21.422 12.5852 21.248 12.837 21.1517C13.1148 21.0443 13.4 21.0331 13.6889 21.0813C14.0296 21.1368 14.3555 21.2406 14.6778 21.3591C15.0074 21.4776 15.3333 21.6072 15.6629 21.7294C15.8148 21.7887 15.9704 21.8443 16.1333 21.8702C16.1704 21.8776 16.2111 21.8887 16.2481 21.885C16.437 21.8776 16.5926 21.8183 16.5926 21.5628C16.5926 21.3517 16.5815 21.1406 16.5666 20.9294C16.4889 19.7924 16.4592 18.6517 16.5074 17.5109C16.537 16.785 16.6111 16.0628 16.7741 15.3517C17 14.3628 17.4111 13.4665 18.0222 12.6554C19.1555 11.1591 20.6481 10.2146 22.437 9.71092C23.4148 9.43685 24.4148 9.34425 25.4259 9.37759C26.4963 9.41092 27.5333 9.61092 28.5296 9.99611C29.4778 10.3628 30.3407 10.8739 31.0889 11.5665C32.0296 12.4406 32.7518 13.4628 33.1444 14.7035C33.3222 15.2628 33.4333 15.8368 33.5037 16.4183C33.6148 17.3072 33.6185 18.2146 33.6111 19.1183Z" fill="white"/>
</g>
<defs>
<clipPath id="clip0_337_3212">
<rect width="50" height="50" fill="white"/>
</clipPath>
</defs>
</svg>
