<svg width="50" height="50" viewBox="0 0 50 50" fill="none" xmlns="http://www.w3.org/2000/svg">
<g clip-path="url(#clip0_337_3148)">
<path d="M50 25C50 11.1926 38.8074 0 25 0C11.1926 0 0 11.1926 0 25C0 37.4778 9.14074 47.8222 21.0926 49.6963V32.2259H14.7444V25H21.0926V19.4926C21.0926 13.2259 24.8259 9.76667 30.537 9.76667C33.2741 9.76667 36.1333 10.2556 36.1333 10.2556V16.4074H32.9815C29.8741 16.4074 28.9074 18.3333 28.9074 20.3111V25H35.8407L34.7333 32.2259H28.9074V49.6963C40.8593 47.8222 50 37.4778 50 25Z" fill="#4676ED"/>
<path d="M34.7296 32.2259L35.837 24.9999H28.9073V20.311C28.9073 18.3333 29.874 16.4073 32.9814 16.4073H36.1333V10.2555C36.1333 10.2555 33.274 9.7666 30.537 9.7666C24.8259 9.7666 21.0925 13.2259 21.0925 19.4925V24.9999H14.7444V32.2259H21.0925V49.6962C22.3666 49.8962 23.6703 49.9999 24.9999 49.9999C26.3296 49.9999 27.6333 49.8962 28.9073 49.6962V32.2259H34.7296Z" fill="white"/>
</g>
<defs>
<clipPath id="clip0_337_3148">
<rect width="50" height="50" fill="white"/>
</clipPath>
</defs>
</svg>
