<svg width="50" height="50" viewBox="0 0 50 50" fill="none" xmlns="http://www.w3.org/2000/svg">
<g clip-path="url(#clip0_337_3227)">
<path d="M25 50C38.8071 50 50 38.8071 50 25C50 11.1929 38.8071 0 25 0C11.1929 0 0 11.1929 0 25C0 38.8071 11.1929 50 25 50Z" fill="url(#paint0_linear_337_3227)"/>
<path d="M16.9222 26.826L19.8889 35.0371C19.8889 35.0371 20.2593 35.8037 20.6556 35.8037C21.0519 35.8037 26.9593 29.6593 26.9593 29.6593L33.5259 16.9741L17.0296 24.7075L16.9222 26.826Z" fill="#C8DAEA"/>
<path d="M20.8556 28.9331L20.2852 34.985C20.2852 34.985 20.0482 36.8405 21.9001 34.985C23.7556 33.1294 25.5297 31.6998 25.5297 31.6998L20.8556 28.9331Z" fill="#A9C6D8"/>
<path d="M16.9777 27.1187L10.8777 25.1298C10.8777 25.1298 10.1481 24.8335 10.3851 24.1632C10.4333 24.0261 10.5296 23.9076 10.8222 23.7039C12.174 22.7632 35.8444 14.2521 35.8444 14.2521C35.8444 14.2521 36.5111 14.0261 36.9074 14.178C37.0888 14.2446 37.2037 14.3224 37.3 14.6076C37.337 14.7113 37.3555 14.9298 37.3518 15.1446C37.3481 15.3002 37.3296 15.4483 37.3148 15.6743C37.1703 18.0002 32.8555 35.3595 32.8555 35.3595C32.8555 35.3595 32.5962 36.3743 31.674 36.4113C31.337 36.4224 30.9259 36.3558 30.437 35.9335C28.6222 34.3706 22.3481 30.1558 20.9629 29.2298C20.8851 29.178 20.8629 29.1113 20.8481 29.0446C20.8296 28.9483 20.9333 28.8261 20.9333 28.8261C20.9333 28.8261 31.8555 19.1187 32.1444 18.1002C32.1666 18.0224 32.0814 17.9817 31.9666 18.015C31.2407 18.2817 18.6666 26.2224 17.2777 27.1002C17.2037 27.1521 16.9777 27.1187 16.9777 27.1187Z" fill="white"/>
</g>
<defs>
<linearGradient id="paint0_linear_337_3227" x1="25" y1="50" x2="25" y2="0" gradientUnits="userSpaceOnUse">
<stop stop-color="#1D93D2"/>
<stop offset="1" stop-color="#38B0E3"/>
</linearGradient>
<clipPath id="clip0_337_3227">
<rect width="50" height="50" fill="white"/>
</clipPath>
</defs>
</svg>
