<svg width="50" height="50" viewBox="0 0 50 50" fill="none" xmlns="http://www.w3.org/2000/svg">
<g clip-path="url(#clip0_337_3192)">
<path d="M25 50C38.8071 50 50 38.8071 50 25C50 11.1929 38.8071 0 25 0C11.1929 0 0 11.1929 0 25C0 38.8071 11.1929 50 25 50Z" fill="#010201"/>
<path d="M18.3259 35.0336C18.3556 35.0595 18.3852 35.0891 18.4148 35.1151C18.6926 35.3113 18.8926 35.5928 19.1556 35.8039C19.9778 36.4632 20.9037 36.8225 21.963 36.8891C24.4741 37.0447 26.663 35.1558 26.9481 32.6706C26.963 32.5484 26.9556 32.4262 26.9556 32.3039C26.9556 24.8262 26.9556 17.3484 26.9556 9.86691C26.9556 9.3632 26.9556 9.3632 27.4593 9.3632C28.5963 9.3632 29.7333 9.3632 30.8704 9.3632C30.9778 9.3632 31.0889 9.34468 31.1852 9.41135C31.1926 9.41876 31.1963 9.42246 31.2037 9.42616C31.2593 9.48172 31.2741 9.55579 31.2889 9.62616C31.7259 11.641 32.7852 13.2484 34.4481 14.4632C34.5519 14.5373 34.6407 14.6336 34.737 14.7151C34.8111 14.778 34.8815 14.8373 34.9556 14.9002C35.2222 15.0521 35.4148 15.2965 35.6481 15.4928C36.5667 16.2595 37.6074 16.7891 38.7667 17.0854C38.8704 17.1114 38.9852 17.1113 39.0593 17.2076C39.063 17.2151 39.0704 17.2188 39.0778 17.2225C39.1444 17.2928 39.1333 17.3854 39.1333 17.4706C39.1333 18.7891 39.137 20.1076 39.1333 21.4262C39.1333 21.7262 39.0926 21.7447 38.7889 21.7447C37.8222 21.7447 36.8741 21.6151 35.937 21.4002C34.3222 21.0299 32.8333 20.3743 31.4519 19.4669C31.3815 19.4188 31.3037 19.3188 31.2259 19.3521C31.1296 19.3965 31.1778 19.5225 31.1778 19.6114C31.1741 23.3225 31.1926 27.0336 31.1704 30.7484C31.1556 33.3447 30.3296 35.6669 28.6296 37.641C26.8259 39.741 24.5333 40.9595 21.7815 41.2965C19.6593 41.5558 17.6481 41.1706 15.737 40.2299C15.4296 40.078 15.1333 39.9002 14.8556 39.6928C14.7667 39.6151 14.6815 39.5373 14.5926 39.4595C13.9333 38.9151 13.4778 38.2114 13.0481 37.4928C12.3889 36.3817 11.963 35.1817 11.7556 33.9076C11.637 33.178 11.5741 32.4447 11.6148 31.7076C11.7444 29.3299 12.5444 27.2113 14.0778 25.378C15.363 23.841 16.9704 22.7669 18.863 22.1188C19.6519 21.8484 20.4667 21.6817 21.3037 21.6225C21.4593 21.6113 21.6111 21.5743 21.7667 21.5854C21.8407 21.5891 21.9148 21.5817 21.9815 21.6336C21.9889 21.641 21.9963 21.6447 22.0037 21.6484C22.0481 21.7225 22.037 21.8076 22.037 21.8854C22.037 23.2225 22.037 24.5632 22.037 25.9002C22.037 25.9484 22.037 25.9965 22.0333 26.041C22.0259 26.1743 21.9593 26.2188 21.8333 26.1854C21.4667 26.0817 21.0926 26.0336 20.7148 26.0151C20.1296 25.9854 19.5519 26.0669 19 26.2706C17.1593 26.9484 16.0444 28.2669 15.8111 30.2076C15.5815 32.1188 16.337 33.6484 17.9259 34.7521C18.0667 34.8447 18.2037 34.9299 18.3259 35.0336Z" fill="white"/>
<path d="M14.8629 39.6964C14.9333 39.6779 14.974 39.7335 15.0222 39.7631C16.2185 40.4927 17.5074 40.9705 18.8925 41.1927C19.5888 41.3039 20.2888 41.352 20.9925 41.315C23.3444 41.1927 25.4518 40.4113 27.274 38.9039C29.0259 37.4557 30.1925 35.6261 30.774 33.4298C30.9592 32.7372 31.0592 32.0298 31.0962 31.3113C31.1185 30.9002 31.1148 30.4853 31.1148 30.0742C31.1148 26.5372 31.1148 23.0001 31.1148 19.4631C31.1148 19.3816 31.1148 19.3039 31.1148 19.2224C31.2074 19.1964 31.2481 19.2668 31.3 19.3001C32.5592 20.1631 33.9222 20.8001 35.3962 21.2076C36.2037 21.4298 37.0259 21.5779 37.8629 21.652C38.2148 21.6816 38.5666 21.6779 38.9148 21.7039C39.0666 21.715 39.0703 21.7076 39.074 21.5483C39.0777 21.3779 39.074 21.2113 39.074 21.0409C39.074 19.8446 39.074 18.6483 39.074 17.4483C39.074 17.3742 39.0777 17.3001 39.0814 17.2261C39.3962 17.2631 39.7074 17.3298 40.0259 17.352C40.2222 17.3668 40.4185 17.3853 40.6148 17.3779C40.7111 17.3742 40.7518 17.4076 40.7407 17.5076C40.737 17.5483 40.7407 17.589 40.7407 17.6298C40.7407 19.3594 40.7407 21.0927 40.7407 22.8224C40.7407 22.8557 40.7407 22.889 40.7407 22.9224C40.737 23.0742 40.737 23.0779 40.5777 23.0742C40.037 23.0742 39.4962 23.0372 38.9592 22.9668C37.8629 22.8224 36.7962 22.552 35.7666 22.152C34.7814 21.7668 33.8518 21.2779 32.9777 20.6779C32.9222 20.6409 32.8666 20.6076 32.7851 20.552C32.7851 20.652 32.7851 20.7224 32.7851 20.7964C32.7851 24.5779 32.7888 28.3557 32.7851 32.1372C32.7814 34.152 32.2629 36.0261 31.1851 37.7335C29.8851 39.7964 28.0851 41.2446 25.7962 42.0779C24.4074 42.5816 22.9666 42.7779 21.4888 42.6668C18.9962 42.4816 16.8407 41.5298 15.0037 39.8409C14.9518 39.8001 14.9111 39.7483 14.8629 39.6964Z" fill="#CB1C54"/>
<path d="M31.1889 9.41127C31.1148 9.41498 31.0408 9.42238 30.9667 9.42238C29.7482 9.42238 28.5296 9.42238 27.3148 9.42238C27.0334 9.42238 27.0334 9.42238 27.0334 9.69646C27.0334 17.1372 27.0334 24.5742 27.0371 32.015C27.0371 32.5335 27 33.0409 26.8371 33.5335C26.2667 35.2742 25.0963 36.4224 23.3111 36.8298C21.3963 37.2668 19.7704 36.6816 18.4741 35.1965C18.4519 35.1705 18.4371 35.1409 18.4222 35.1113C18.7926 35.2594 19.163 35.4076 19.5556 35.4853C20.8037 35.7335 21.9815 35.5409 23.063 34.8742C24.3148 34.1039 25.0519 32.9742 25.3111 31.5335C25.3593 31.2594 25.3667 30.9816 25.3667 30.7039C25.3667 23.252 25.3667 15.7965 25.3667 8.34461C25.3667 7.99646 25.3185 8.0409 25.663 8.0409C27.3815 8.0409 29.1 8.0409 30.8185 8.0409C30.8593 8.0409 30.9 8.0409 30.9408 8.0409C31.1148 8.0446 31.1185 8.04461 31.1185 8.22238C31.1148 8.62238 31.1074 9.01868 31.1889 9.41127Z" fill="#6ABAC5"/>
<path d="M21.9889 21.6373C20.9407 21.6706 19.9111 21.8373 18.9148 22.1706C17.474 22.6484 16.1926 23.4002 15.074 24.4298C13.6074 25.7817 12.6074 27.4187 12.0592 29.3335C11.8629 30.015 11.7518 30.715 11.7 31.4224C11.6703 31.8484 11.6592 32.2743 11.6852 32.6965C11.7481 33.878 11.9926 35.0187 12.4407 36.115C12.9407 37.341 13.6444 38.4373 14.5592 39.3965C14.5777 39.415 14.5889 39.441 14.6037 39.4632C14.3963 39.3743 14.2296 39.2224 14.0555 39.0854C12.3518 37.7336 11.1481 36.0298 10.4889 33.9521C10.2592 33.2298 10.1148 32.4891 10.0444 31.7336C9.99256 31.1854 9.98885 30.6373 10.0222 30.0928C10.1037 28.8336 10.4037 27.6261 10.9222 26.4743C11.4666 25.2706 12.2074 24.2039 13.1481 23.2817C14.2444 22.2076 15.5148 21.4002 16.9629 20.8817C17.8703 20.5558 18.8037 20.3558 19.7666 20.2854C20.4629 20.2336 21.1555 20.2484 21.8518 20.3336C21.9444 20.3447 22 20.3632 22 20.4743C21.9889 20.8669 21.9889 21.2521 21.9889 21.6373Z" fill="#6ABAC5"/>
<path d="M18.3259 35.0333C17.9036 34.8407 17.537 34.5667 17.2036 34.2481C16.3703 33.4444 15.874 32.4667 15.7444 31.3148C15.474 28.9 16.9962 26.8185 19.111 26.1741C20.0147 25.9 20.9185 25.8889 21.8259 26.1333C21.8777 26.1481 21.9259 26.1704 21.9814 26.1556C22.011 26.0815 21.9962 26.0074 21.9962 25.9333C21.9962 24.5815 21.9962 23.2296 21.9962 21.8778C21.9962 21.8037 22.0036 21.7296 22.0073 21.6556C22.5296 21.6185 23.0481 21.6667 23.5629 21.7259C23.6444 21.7333 23.6666 21.7741 23.6629 21.8444C23.6629 21.8852 23.6629 21.9259 23.6629 21.9667C23.6629 23.7593 23.6629 25.5518 23.6629 27.3407C23.6629 27.4074 23.6814 27.4741 23.637 27.5481C23.3999 27.5037 23.1703 27.4333 22.9296 27.4C21.5444 27.2074 20.2962 27.5296 19.1999 28.3926C18.237 29.1518 17.6444 30.1481 17.4444 31.3556C17.2333 32.637 17.4999 33.8259 18.237 34.9037C18.274 34.9407 18.2999 34.9889 18.3259 35.0333Z" fill="#CB1C54"/>
<path d="M34.7444 14.7187C34.2221 14.4113 33.7666 14.0224 33.3481 13.589C32.2221 12.4298 31.511 11.0557 31.2073 9.46681C31.2036 9.45199 31.2073 9.44088 31.2073 9.42606C31.6925 9.40014 32.1814 9.42236 32.6666 9.41495C32.7518 9.41495 32.7925 9.44829 32.7814 9.53347C32.7777 9.56681 32.7814 9.60014 32.7814 9.63347C32.7555 10.9964 33.1592 12.2409 33.8259 13.4112C34.0629 13.8298 34.3481 14.215 34.6555 14.5853C34.6888 14.6298 34.737 14.6594 34.7444 14.7187Z" fill="#CB1C54"/>
<path d="M39.0629 17.211C37.6777 16.9147 36.4592 16.2888 35.4 15.3481C35.2444 15.211 35.0852 15.074 34.9592 14.9036C35.0111 14.8999 35.0481 14.9296 35.0889 14.9518C35.9296 15.4333 36.8259 15.7481 37.7815 15.9036C38.1518 15.9666 38.5296 16.0036 38.9074 15.9999C39.0666 15.9999 39.0703 16.0036 39.0703 16.1555C39.0703 16.511 39.0666 16.8592 39.0629 17.211Z" fill="#6ABAC5"/>
</g>
<defs>
<clipPath id="clip0_337_3192">
<rect width="50" height="50" fill="white"/>
</clipPath>
</defs>
</svg>
