<svg width="50" height="50" viewBox="0 0 50 50" fill="none" xmlns="http://www.w3.org/2000/svg">
<g clip-path="url(#clip0_337_3140)">
<path d="M25 50C38.8071 50 50 38.8071 50 25C50 11.1929 38.8071 0 25 0C11.1929 0 0 11.1929 0 25C0 38.8071 11.1929 50 25 50Z" fill="#DA0000"/>
<path d="M40.9704 16.9779C40.5852 15.5446 39.4593 14.415 38.0223 14.0298C35.4223 13.3335 25 13.3335 25 13.3335C25 13.3335 14.5778 13.3335 11.9778 14.0298C10.5445 14.415 9.41486 15.5409 9.02967 16.9779C8.33337 19.5779 8.33337 25.0002 8.33337 25.0002C8.33337 25.0002 8.33337 30.4224 9.02967 33.0224C9.41115 34.4557 10.5408 35.5854 11.9778 35.9705C14.5778 36.6668 25 36.6668 25 36.6668C25 36.6668 35.4223 36.6668 38.0223 35.9705C39.4556 35.5854 40.5852 34.4594 40.9704 33.0224C41.6667 30.4224 41.6667 25.0002 41.6667 25.0002C41.6667 25.0002 41.6667 19.5779 40.9704 16.9779ZM21.6667 30.0002V20.0002L30.326 25.0002L21.6667 30.0002Z" fill="white"/>
</g>
<defs>
<clipPath id="clip0_337_3140">
<rect width="50" height="50" fill="white"/>
</clipPath>
</defs>
</svg>
