<svg width="50" height="50" viewBox="0 0 50 50" fill="none" xmlns="http://www.w3.org/2000/svg">
<g clip-path="url(#clip0_337_3186)">
<path d="M25 50C38.8071 50 50 38.8071 50 25C50 11.1929 38.8071 0 25 0C11.1929 0 0 11.1929 0 25C0 38.8071 11.1929 50 25 50Z" fill="#5A99EC"/>
<path d="M19.9482 39.3998C32.1593 39.3998 38.8371 29.285 38.8371 20.5109C38.8371 20.222 38.8297 19.9368 38.8186 19.6517C40.1149 18.7146 41.2408 17.5443 42.1297 16.2146C40.9408 16.7443 39.6593 17.0998 38.3186 17.2591C39.6889 16.4368 40.7408 15.1368 41.2371 13.5887C39.9556 14.348 38.5334 14.9035 37.0223 15.1998C35.8112 13.9109 34.0852 13.1035 32.1778 13.1035C28.5112 13.1035 25.5371 16.0776 25.5371 19.7406C25.5371 20.2628 25.5963 20.7665 25.7112 21.2554C20.1926 20.9776 15.3001 18.3368 12.0297 14.3183C11.4593 15.2998 11.1297 16.4406 11.1297 17.6554C11.1297 19.9591 12.3001 21.9924 14.0852 23.1813C12.9964 23.148 11.9741 22.848 11.0778 22.3517C11.0778 22.3776 11.0778 22.4072 11.0778 22.4368C11.0778 25.6517 13.3667 28.3368 16.4038 28.9443C15.8445 29.0961 15.2593 29.1776 14.6556 29.1776C14.2297 29.1776 13.8112 29.1368 13.4075 29.0591C14.2519 31.6961 16.7038 33.6146 19.6075 33.6702C17.3334 35.4517 14.4741 36.5109 11.363 36.5109C10.826 36.5109 10.3001 36.4813 9.77783 36.4183C12.7112 38.2998 16.2001 39.3998 19.9482 39.3998Z" fill="white"/>
</g>
<defs>
<clipPath id="clip0_337_3186">
<rect width="50" height="50" fill="white"/>
</clipPath>
</defs>
</svg>
