<svg width="24" height="25" viewBox="0 0 24 25" fill="none" xmlns="http://www.w3.org/2000/svg">
<path d="M12 22.5518C17.5228 22.5518 22 18.0746 22 12.5518C22 7.02891 17.5228 2.55176 12 2.55176C6.47715 2.55176 2 7.02891 2 12.5518C2 18.0746 6.47715 22.5518 12 22.5518Z" stroke="#04091E" stroke-width="1.5" stroke-linecap="round" stroke-linejoin="round"/>
<path d="M8.00001 3.55176H9.00001C7.05001 9.39176 7.05001 15.7118 9.00001 21.5518H8.00001" stroke="#04091E" stroke-width="1.5" stroke-linecap="round" stroke-linejoin="round"/>
<path d="M15 3.55176C16.95 9.39176 16.95 15.7118 15 21.5518" stroke="#04091E" stroke-width="1.5" stroke-linecap="round" stroke-linejoin="round"/>
<path d="M3 16.5518V15.5518C8.84 17.5018 15.16 17.5018 21 15.5518V16.5518" stroke="#04091E" stroke-width="1.5" stroke-linecap="round" stroke-linejoin="round"/>
<path d="M3 9.55186C8.84 7.60186 15.16 7.60186 21 9.55186" stroke="#04091E" stroke-width="1.5" stroke-linecap="round" stroke-linejoin="round"/>
</svg>
