<svg width="23" height="22" viewBox="0 0 23 22" fill="none" xmlns="http://www.w3.org/2000/svg">
<path d="M21.3761 11.2139C21.3761 10.4225 21.3105 9.84497 21.1687 9.24609H11.9475V12.818H17.3602C17.2511 13.7057 16.6618 15.0425 15.3522 15.9408L15.3339 16.0603L18.2495 18.2738L18.4515 18.2936C20.3066 16.6145 21.3761 14.1441 21.3761 11.2139Z" fill="#4285F4"/>
<path d="M11.9469 20.6248C14.5986 20.6248 16.8248 19.7692 18.4508 18.2934L15.3516 15.9405C14.5223 16.5073 13.4092 16.903 11.9469 16.903C9.3497 16.903 7.14536 15.224 6.35957 12.9033L6.2444 12.9129L3.21274 15.2122L3.1731 15.3202C4.78815 18.4644 8.10561 20.6248 11.9469 20.6248Z" fill="#34CAA5"/>
<path d="M6.36006 12.9034C6.15272 12.3045 6.03273 11.6628 6.03273 10.9997C6.03273 10.3366 6.15272 9.695 6.34915 9.09612L6.34366 8.96857L3.274 6.63232L3.17357 6.67914C2.50792 7.98388 2.12598 9.44905 2.12598 10.9997C2.12598 12.5504 2.50792 14.0155 3.17357 15.3203L6.36006 12.9034Z" fill="#FDCF24"/>
<path d="M11.9469 5.09664C13.7912 5.09664 15.0352 5.87733 15.7445 6.52974L18.5164 3.8775C16.814 2.32681 14.5987 1.375 11.9469 1.375C8.10564 1.375 4.78816 3.53526 3.1731 6.6794L6.34868 9.09638C7.14538 6.77569 9.34974 5.09664 11.9469 5.09664Z" fill="#EB4335"/>
</svg>
