<svg width="87" height="87" viewBox="0 0 87 87" fill="none" xmlns="http://www.w3.org/2000/svg">
<circle cx="43.5" cy="43.5" r="43.5" fill="#290CDD"/>
<path d="M45 47C47.2091 47 49 45.2091 49 43C49 40.7909 47.2091 39 45 39C42.7909 39 41 40.7909 41 43C41 45.2091 42.7909 47 45 47Z" stroke="white" stroke-width="3" stroke-linecap="round" stroke-linejoin="round"/>
<path d="M53.48 34.5204C54.5957 35.6348 55.4808 36.9583 56.0847 38.4151C56.6886 39.8718 56.9994 41.4334 56.9994 43.0104C56.9994 44.5873 56.6886 46.1489 56.0847 47.6056C55.4808 49.0624 54.5957 50.3859 53.48 51.5004M36.52 51.4804C35.4043 50.3659 34.5192 49.0424 33.9153 47.5856C33.3114 46.1289 33.0006 44.5673 33.0006 42.9904C33.0006 41.4134 33.3114 39.8518 33.9153 38.3951C34.5192 36.9383 35.4043 35.6148 36.52 34.5004M59.14 28.8604C62.8894 32.6109 64.9957 37.6971 64.9957 43.0004C64.9957 48.3036 62.8894 53.3898 59.14 57.1404M30.86 57.1404C27.1106 53.3898 25.0043 48.3036 25.0043 43.0004C25.0043 37.6971 27.1106 32.6109 30.86 28.8604" stroke="white" stroke-width="3" stroke-linecap="round" stroke-linejoin="round"/>
</svg>
