<svg width="87" height="87" viewBox="0 0 87 87" fill="none" xmlns="http://www.w3.org/2000/svg">
<circle cx="43.5" cy="43.5" r="43.5" fill="#290CDD"/>
<g clip-path="url(#clip0_529_3465)">
<path fill-rule="evenodd" clip-rule="evenodd" d="M61.4375 58.8753C61.4375 60.2898 60.2895 61.4378 58.875 61.4378H28.125C26.7105 61.4378 25.5625 60.2898 25.5625 58.8753V38.3753C25.5625 36.9608 26.7105 35.8128 28.125 35.8128H58.875C60.2895 35.8128 61.4375 36.9608 61.4375 38.3753V58.8753ZM58.875 33.2503H47.0183L58.2574 25.5179C58.8507 25.1092 59.0198 24.2661 58.6354 23.6357C58.2523 23.0053 57.4592 22.8247 56.8647 23.2335C56.8647 23.2335 44.5519 31.7345 43.5115 32.3624L30.1353 23.2335C29.5421 22.8247 28.7477 23.0053 28.3646 23.6357C27.9802 24.2661 28.1493 25.1092 28.7426 25.5179L39.9817 33.2503H28.125C25.2947 33.2503 23 35.545 23 38.3753V58.8753C23 61.7055 25.2947 64.0003 28.125 64.0003H58.875C61.7053 64.0003 64 61.7055 64 58.8753V38.3753C64 35.545 61.7053 33.2503 58.875 33.2503ZM57.5938 52.469H52.4688C51.7602 52.469 51.1875 53.0417 51.1875 53.7503C51.1875 54.4588 51.7602 55.0315 52.4688 55.0315H57.5938C58.3023 55.0315 58.875 54.4588 58.875 53.7503C58.875 53.0417 58.3023 52.469 57.5938 52.469ZM46.0625 55.0315C46.0625 55.74 45.4898 56.3128 44.7812 56.3128H31.9688C31.2602 56.3128 30.6875 55.74 30.6875 55.0315V42.219C30.6875 41.5118 31.2602 40.9378 31.9688 40.9378H44.7812C45.4898 40.9378 46.0625 41.5118 46.0625 42.219V55.0315ZM46.0625 38.3753H30.6875C29.273 38.3753 28.125 39.5233 28.125 40.9378V56.3128C28.125 57.7273 29.273 58.8753 30.6875 58.8753H46.0625C47.477 58.8753 48.625 57.7273 48.625 56.3128V40.9378C48.625 39.5233 47.477 38.3753 46.0625 38.3753ZM57.5938 56.3128H52.4688C51.7602 56.3128 51.1875 56.8855 51.1875 57.594C51.1875 58.3025 51.7602 58.8753 52.4688 58.8753H57.5938C58.3023 58.8753 58.875 58.3025 58.875 57.594C58.875 56.8855 58.3023 56.3128 57.5938 56.3128ZM53.75 40.9378H56.3125V43.5003H53.75V40.9378ZM55.0312 38.3753C52.9082 38.3753 51.1875 40.096 51.1875 42.219C51.1875 44.342 52.9082 46.0628 55.0312 46.0628C57.1543 46.0628 58.875 44.342 58.875 42.219C58.875 40.096 57.1543 38.3753 55.0312 38.3753Z" fill="white"/>
</g>
<defs>
<clipPath id="clip0_529_3465">
<rect width="41" height="41" fill="white" transform="translate(23 23)"/>
</clipPath>
</defs>
</svg>
