<svg width="87" height="87" viewBox="0 0 87 87" fill="none" xmlns="http://www.w3.org/2000/svg">
<circle cx="43.5" cy="43.5" r="43.5" fill="#290CDD"/>
<g clip-path="url(#clip0_532_3516)">
<path d="M63.7359 37.5719L48.1035 33.3803L45.3672 23.1722C45.1383 22.3196 44.2227 21.824 43.3239 22.0613L24.2643 27.1685C23.3655 27.4079 22.8237 28.2983 23.0526 29.1509L29.8356 54.458C30.0645 55.3106 30.978 55.8083 31.8747 55.5647L39.462 53.534L38.4288 57.3938C38.1999 58.2464 38.7417 59.1368 39.6405 59.3741L56.6715 63.9395C57.5703 64.181 58.4817 63.6854 58.7127 62.8286L64.9497 39.5522C65.1765 38.6996 64.6347 37.8092 63.7359 37.5719ZM26.4294 29.6255L42.8724 25.2239L48.9582 47.9417L32.5152 52.3433L26.4294 29.6255ZM55.9239 60.7727L41.6145 56.8604L42.7401 52.6562L50.9322 50.4575C51.831 50.2202 52.377 49.3298 52.146 48.4772L48.9792 36.6605L61.4679 40.0856L55.9239 60.7727Z" fill="white"/>
</g>
<defs>
<clipPath id="clip0_532_3516">
<rect width="42" height="42" fill="white" transform="translate(23 22)"/>
</clipPath>
</defs>
</svg>
