<svg width="23" height="25" viewBox="0 0 23 25" fill="none" xmlns="http://www.w3.org/2000/svg">
<g clip-path="url(#clip0_338_6434)">
<path d="M7.414 17.5L7.404 17.51L7.3935 17.5H6.496C6.36441 17.4999 6.23825 17.4475 6.14524 17.3544C6.05224 17.2613 6 17.1351 6 17.0035V8.9965C6.00092 8.86519 6.05345 8.73951 6.14626 8.64661C6.23906 8.55371 6.36469 8.50105 6.496 8.5H15.504C15.778 8.5 16 8.7225 16 8.9965V17.0035C15.9991 17.1348 15.9465 17.2605 15.8537 17.3534C15.7609 17.4463 15.6353 17.499 15.504 17.5H7.414ZM15 14.5V9.5H7V16.5L12 11.5L15 14.5ZM15 15.914L12 12.914L8.414 16.5H15V15.914ZM9 12.5C8.73478 12.5 8.48043 12.3946 8.29289 12.2071C8.10536 12.0196 8 11.7652 8 11.5C8 11.2348 8.10536 10.9804 8.29289 10.7929C8.48043 10.6054 8.73478 10.5 9 10.5C9.26522 10.5 9.51957 10.6054 9.70711 10.7929C9.89464 10.9804 10 11.2348 10 11.5C10 11.7652 9.89464 12.0196 9.70711 12.2071C9.51957 12.3946 9.26522 12.5 9 12.5Z" fill="#0C80EC"/>
</g>
<rect width="23" height="25" rx="2" fill="#0C80EC" fill-opacity="0.1"/>
<defs>
<clipPath id="clip0_338_6434">
<rect width="12" height="12" fill="white" transform="translate(5 7)"/>
</clipPath>
</defs>
</svg>
