<svg width="87" height="89" viewBox="0 0 87 89" fill="none" xmlns="http://www.w3.org/2000/svg">
<ellipse cx="43.5" cy="44.2373" rx="43.5" ry="44.2373" fill="#F5F5F5"/>
<path d="M62.3129 33.75H58.2817L41.5738 39.6675L36.6078 37.0144C36.9051 35.6187 36.7002 34.1629 36.0294 32.9034C35.3586 31.6439 34.2649 30.6615 32.9408 30.1292C31.6168 29.597 30.1474 29.549 28.7915 29.9938C27.4355 30.4386 26.2801 31.3476 25.5286 32.5607C24.7771 33.7738 24.4778 35.2132 24.6834 36.6253C24.8889 38.0374 25.5862 39.3317 26.6524 40.2802C27.7186 41.2287 29.0853 41.7705 30.5118 41.8102C31.9383 41.8499 33.333 41.385 34.4503 40.4973L38.8343 43.1613L38.1254 46.2636L34.4604 48.5111C33.3399 47.6215 31.9394 47.1597 30.5096 47.2082C29.0798 47.2568 27.7139 47.8126 26.6564 48.7761C25.5988 49.7396 24.9186 51.048 24.7375 52.4671C24.5564 53.8863 24.8862 55.3236 25.6679 56.5218C26.4496 57.72 27.6322 58.601 29.004 59.0071C30.3758 59.4131 31.8473 59.3178 33.1553 58.7381C34.4632 58.1585 35.5223 57.1323 36.1428 55.8433C36.7634 54.5542 36.905 53.0864 36.5423 51.7025L62.3129 36.4375V33.75ZM30.6912 39.125C30.0267 39.125 29.3772 38.9279 28.8248 38.5588C28.2723 38.1897 27.8418 37.665 27.5875 37.0512C27.3332 36.4373 27.2667 35.7619 27.3963 35.1102C27.5259 34.4586 27.8459 33.86 28.3157 33.3902C28.7855 32.9203 29.3841 32.6004 30.0358 32.4708C30.6874 32.3411 31.3629 32.4077 31.9767 32.6619C32.5906 32.9162 33.1152 33.3468 33.4844 33.8992C33.8535 34.4517 34.0505 35.1012 34.0505 35.7656C34.0505 36.2068 33.9636 36.6436 33.7948 37.0512C33.626 37.4587 33.3785 37.8291 33.0666 38.141C32.7546 38.453 32.3843 38.7004 31.9767 38.8692C31.5691 39.0381 31.1323 39.125 30.6912 39.125ZM30.6912 56.5937C30.0267 56.5937 29.3772 56.3967 28.8248 56.0276C28.2723 55.6584 27.8418 55.1338 27.5875 54.5199C27.3332 53.9061 27.2667 53.2306 27.3963 52.579C27.5259 51.9273 27.8459 51.3287 28.3157 50.8589C28.7855 50.3891 29.3841 50.0691 30.0358 49.9395C30.6874 49.8099 31.3629 49.8764 31.9767 50.1307C32.5906 50.3849 33.1152 50.8155 33.4844 51.368C33.8535 51.9204 34.0505 52.5699 34.0505 53.2343C34.0505 53.6755 33.9636 54.1123 33.7948 54.5199C33.626 54.9275 33.3785 55.2978 33.0666 55.6098C32.7546 55.9217 32.3843 56.1692 31.9767 56.338C31.5691 56.5068 31.1323 56.5937 30.6912 56.5937ZM43.4568 44.5C43.191 44.5 42.9312 44.4212 42.7102 44.2735C42.4893 44.1259 42.317 43.916 42.2153 43.6704C42.1136 43.4249 42.087 43.1547 42.1388 42.8941C42.1907 42.6334 42.3187 42.394 42.5066 42.206C42.6945 42.0181 42.934 41.8901 43.1946 41.8383C43.4553 41.7864 43.7255 41.813 43.971 41.9148C44.2165 42.0165 44.4264 42.1887 44.5741 42.4097C44.7217 42.6306 44.8005 42.8904 44.8005 43.1562C44.8005 43.3327 44.7658 43.5074 44.6982 43.6704C44.6307 43.8335 44.5317 43.9816 44.4069 44.1064C44.2822 44.2312 44.134 44.3301 43.971 44.3977C43.808 44.4652 43.6332 44.5 43.4568 44.5Z" fill="black"/>
<path d="M50.8727 44.8252L43.8398 48.8716L58.281 53.9064H62.3114L62.3122 51.2189L50.8727 44.8252Z" fill="black"/>
</svg>
