<svg width="87" height="87" viewBox="0 0 87 87" fill="none" xmlns="http://www.w3.org/2000/svg">
<circle cx="43.5" cy="43.5" r="43.5" fill="#290CDD"/>
<path d="M44.1406 26.8438C36.0162 26.8438 29.4062 33.4537 29.4062 41.5781C29.4062 47.5347 32.9666 52.6659 38.0647 54.9862C37.9199 53.9048 37.8055 52.8316 37.7594 51.9232C34.2911 49.7758 31.9688 45.9485 31.9688 41.5781C31.9688 34.8669 37.4294 29.4062 44.1406 29.4062C50.8518 29.4062 56.3125 34.8669 56.3125 41.5781C56.3125 45.9485 53.9902 49.7758 50.5219 51.9232C50.4757 52.8303 50.3613 53.9048 50.2166 54.9862C55.3146 52.6659 58.875 47.5347 58.875 41.5781C58.875 33.4537 52.265 26.8438 44.1406 26.8438ZM44.1406 31.9688C38.8414 31.9688 34.5312 36.2789 34.5312 41.5781C34.5312 44.5942 35.9316 47.2874 38.1122 49.0504C38.4018 48.2676 38.8907 47.5419 39.5762 46.9359C38.0605 45.6418 37.0938 43.7217 37.0938 41.5781C37.0938 37.6934 40.2559 34.5312 44.1406 34.5312C48.0254 34.5312 51.1875 37.6934 51.1875 41.5781C51.1875 43.7217 50.2208 45.6418 48.7051 46.9359C49.3905 47.5406 49.8807 48.2663 50.169 49.0504C52.3497 47.2874 53.75 44.5942 53.75 41.5781C53.75 36.2789 49.4399 31.9688 44.1406 31.9688ZM44.1406 37.0938C41.6678 37.0938 39.6562 39.1053 39.6562 41.5781C39.6562 44.0509 41.6678 46.0625 44.1406 46.0625C46.6134 46.0625 48.625 44.0509 48.625 41.5781C48.625 39.1053 46.6134 37.0938 44.1406 37.0938ZM44.1406 39.6562C45.2002 39.6562 46.0625 40.5185 46.0625 41.5781C46.0625 42.6377 45.2002 43.5 44.1406 43.5C43.081 43.5 42.2188 42.6377 42.2188 41.5781C42.2188 40.5185 43.081 39.6562 44.1406 39.6562ZM44.1406 47.3438C40.0932 47.3438 39.6562 50.0033 39.6562 51.1475C39.6562 53.2538 40.3444 57.491 40.7198 59.0977C40.8851 59.8024 41.5499 61.4375 44.1406 61.4375C46.7313 61.4375 47.3962 59.8024 47.5615 59.0977C47.9369 57.4923 48.625 53.2538 48.625 51.1475C48.625 50.0033 48.1881 47.3438 44.1406 47.3438ZM44.1406 49.9062C46.0625 49.9062 46.0625 50.6234 46.0625 51.1475C46.0625 52.8579 45.4599 56.8247 45.0665 58.5121C45.0345 58.6467 44.9811 58.875 44.1406 58.875C43.3001 58.875 43.2468 58.6479 43.2147 58.5146C42.8227 56.8311 42.2188 52.8592 42.2188 51.1475C42.2188 50.6234 42.2188 49.9062 44.1406 49.9062Z" fill="white"/>
</svg>
