<svg width="87" height="89" viewBox="0 0 87 89" fill="none" xmlns="http://www.w3.org/2000/svg">
<ellipse cx="43.5" cy="44.2373" rx="43.5" ry="44.2373" fill="#F5F5F5"/>
<path d="M44 41.9067C45.3117 41.9067 46.375 40.8253 46.375 39.4914C46.375 38.1575 45.3117 37.0762 44 37.0762C42.6883 37.0762 41.625 38.1575 41.625 39.4914C41.625 40.8253 42.6883 41.9067 44 41.9067Z" fill="black"/>
<path d="M44 27.415C37.4524 27.415 32.125 32.5965 32.125 38.963C32.125 41.9949 33.4839 46.0268 36.164 50.9472C38.3163 54.8976 40.8064 58.4699 42.1015 60.2474C42.3203 60.5511 42.6065 60.7981 42.9367 60.9684C43.2669 61.1386 43.632 61.2273 44.0022 61.2273C44.3725 61.2273 44.7375 61.1386 45.0677 60.9684C45.398 60.7981 45.6841 60.5511 45.903 60.2474C47.1959 58.4699 49.6881 54.8976 51.8405 50.9472C54.5161 46.0283 55.875 41.9964 55.875 38.963C55.875 32.5965 50.5476 27.415 44 27.415ZM44 44.3218C43.0605 44.3218 42.1422 44.0385 41.361 43.5077C40.5799 42.9769 39.9711 42.2225 39.6116 41.3399C39.2521 40.4572 39.158 39.486 39.3413 38.5489C39.5245 37.6119 39.9769 36.7512 40.6412 36.0756C41.3055 35.4001 42.1519 34.94 43.0733 34.7536C43.9947 34.5672 44.9498 34.6629 45.8177 35.0285C46.6857 35.3941 47.4275 36.0133 47.9495 36.8076C48.4714 37.602 48.75 38.5359 48.75 39.4913C48.7486 40.772 48.2477 41.9999 47.3572 42.9055C46.4667 43.811 45.2594 44.3204 44 44.3218Z" fill="black"/>
</svg>
