<svg width="87" height="89" viewBox="0 0 87 89" fill="none" xmlns="http://www.w3.org/2000/svg">
<ellipse cx="43.5" cy="44.2373" rx="43.5" ry="44.2373" fill="#F5F5F5"/>
<path d="M58.3069 37.4116C55.0597 29.8553 49.8363 24.1071 47.1938 25.1792C42.7064 27.0058 49.867 35.7654 27.8275 44.7219C25.923 45.4988 25.4413 48.5923 26.2387 50.4455C27.0341 52.2946 29.6376 54.1375 31.5421 53.3647C31.8721 53.2294 33.0816 52.8399 33.0816 52.8399C34.4408 54.6664 35.8635 53.584 36.3698 54.7423L38.7437 60.1953C39.1927 61.2244 40.2095 62.1776 40.9475 61.8968L45.15 60.2998C46.1094 59.9349 46.3369 59.078 46.0438 58.4056C45.7281 57.6779 44.4325 57.4647 44.0614 56.616C43.6924 55.7714 42.485 53.0531 42.1385 52.1962C41.667 51.0318 42.6695 50.0826 44.127 49.933C54.1597 48.8834 56.0355 55.0826 59.4508 53.6927C62.0891 52.6164 61.552 44.9617 58.3069 37.4116ZM57.1773 49.6624C56.589 49.8981 52.6407 46.7883 50.1192 40.915C47.5956 35.0459 47.9134 29.681 48.4997 29.4412C49.086 29.2054 52.9379 32.961 55.4594 38.8302C57.983 44.6993 57.7636 49.4225 57.1773 49.6624Z" fill="black"/>
</svg>
