<svg width="20" height="20" viewBox="0 0 20 20" fill="none" xmlns="http://www.w3.org/2000/svg">
<circle cx="10" cy="10" r="10" fill="#290CDD"/>
<g clip-path="url(#clip0_546_4319)">
<path fill-rule="evenodd" clip-rule="evenodd" d="M12.8125 10.6249C12.2947 10.6249 11.875 10.2052 11.875 9.68741C11.875 9.1696 12.2947 8.74991 12.8125 8.74991C13.3303 8.74991 13.75 9.1696 13.75 9.68741C13.75 10.2052 13.3303 10.6249 12.8125 10.6249ZM13.4375 12.8124H12.1875C12.0147 12.8124 11.875 12.6727 11.875 12.4999C11.875 12.3271 12.0147 12.1874 12.1875 12.1874H13.4375C13.6103 12.1874 13.75 12.3271 13.75 12.4999C13.75 12.6727 13.6103 12.8124 13.4375 12.8124ZM13.4375 13.7499H12.1875C12.0147 13.7499 11.875 13.6102 11.875 13.4374C11.875 13.2646 12.0147 13.1249 12.1875 13.1249H13.4375C13.6103 13.1249 13.75 13.2646 13.75 13.4374C13.75 13.6102 13.6103 13.7499 13.4375 13.7499ZM11.25 13.1249C11.25 13.4699 10.97 13.7499 10.625 13.7499H6.875C6.53 13.7499 6.25 13.4699 6.25 13.1249V9.37491C6.25 9.02991 6.53 8.74991 6.875 8.74991H10.625C10.97 8.74991 11.25 9.02991 11.25 9.37491V13.1249ZM13.75 7.49991H10.8581L13.5994 5.61398C13.7441 5.51429 13.7853 5.30865 13.6916 5.1549C13.5981 5.00115 13.4047 4.9571 13.2597 5.05679C13.2597 5.05679 10.2566 7.13022 10.0028 7.28335L6.74031 5.05679C6.59563 4.9571 6.40188 5.00115 6.30844 5.1549C6.21469 5.30865 6.25594 5.51429 6.40062 5.61398L9.14187 7.49991H6.25C5.55969 7.49991 5 8.0596 5 8.74991V13.7499C5 14.4402 5.55969 14.9999 6.25 14.9999H13.75C14.4403 14.9999 15 14.4402 15 13.7499V8.74991C15 8.0596 14.4403 7.49991 13.75 7.49991ZM12.5 9.99991H13.125V9.37491H12.5V9.99991ZM10.3125 9.37491H7.1875C7.01469 9.37491 6.875 9.51491 6.875 9.68741V12.8124C6.875 12.9852 7.01469 13.1249 7.1875 13.1249H10.3125C10.4853 13.1249 10.625 12.9852 10.625 12.8124V9.68741C10.625 9.51491 10.4853 9.37491 10.3125 9.37491Z" fill="white"/>
</g>
<defs>
<clipPath id="clip0_546_4319">
<rect width="10" height="10" fill="white" transform="translate(5 5)"/>
</clipPath>
</defs>
</svg>
