<svg width="87" height="89" viewBox="0 0 87 89" fill="none" xmlns="http://www.w3.org/2000/svg">
<ellipse cx="43.5" cy="44.2373" rx="43.5" ry="44.2373" fill="#F5F5F5"/>
<path d="M36.5 62C38.1569 62 39.5 60.6569 39.5 59C39.5 57.3431 38.1569 56 36.5 56C34.8431 56 33.5 57.3431 33.5 59C33.5 60.6569 34.8431 62 36.5 62Z" fill="black"/>
<path d="M57.5 62C59.1569 62 60.5 60.6569 60.5 59C60.5 57.3431 59.1569 56 57.5 56C55.8431 56 54.5 57.3431 54.5 59C54.5 60.6569 55.8431 62 57.5 62Z" fill="black"/>
<path d="M62.825 31.3231C62.6143 31.0654 62.3488 30.8578 62.0478 30.7154C61.7468 30.573 61.4179 30.4994 61.085 30.5H32.5522L31.9775 27.2394C31.9162 26.8921 31.7345 26.5774 31.4643 26.3508C31.1941 26.1241 30.8527 25.9999 30.5 26H24.5C24.1022 26 23.7206 26.158 23.4393 26.4393C23.158 26.7206 23 27.1022 23 27.5C23 27.8978 23.158 28.2794 23.4393 28.5607C23.7206 28.842 24.1022 29 24.5 29H29.2419L33.5225 53.2606C33.5838 53.6079 33.7655 53.9226 34.0357 54.1492C34.3059 54.3759 34.6473 54.5001 35 54.5H59C59.3978 54.5 59.7794 54.342 60.0607 54.0607C60.342 53.7794 60.5 53.3978 60.5 53C60.5 52.6022 60.342 52.2206 60.0607 51.9393C59.7794 51.658 59.3978 51.5 59 51.5H36.2581L35.7294 48.5H58.385C58.9052 48.4993 59.4092 48.319 59.8117 47.9894C60.2142 47.6599 60.4904 47.2014 60.5938 46.6916L63.2937 33.1916C63.3588 32.8648 63.3505 32.5278 63.2694 32.2046C63.1884 31.8815 63.0366 31.5804 62.825 31.3231Z" fill="black"/>
</svg>
