<svg width="127" height="107" viewBox="0 0 127 107" fill="none" xmlns="http://www.w3.org/2000/svg">
<path d="M122.1 54.8996C122.1 69.0996 116.3 81.8996 107 91.0996C97.9002 100.2 85.3002 105.7 71.4002 105.7C57.6002 105.7 45.0002 100.1 35.8002 91.0996C26.5002 81.8996 20.7002 69.0996 20.7002 54.8996C20.7002 26.7996 43.4002 4.09961 71.4002 4.09961C99.4002 4.09961 122.1 26.8996 122.1 54.8996Z" fill="#EAFAE5" stroke="#0CAF60" stroke-width="2" stroke-miterlimit="10"/>
<path d="M117.7 21.6004C119.964 21.6004 121.8 19.7648 121.8 17.5004C121.8 15.236 119.964 13.4004 117.7 13.4004C115.436 13.4004 113.6 15.236 113.6 17.5004C113.6 19.7648 115.436 21.6004 117.7 21.6004Z" fill="#0CAF60"/>
<path d="M123.7 5.6C125.246 5.6 126.5 4.3464 126.5 2.8C126.5 1.2536 125.246 0 123.7 0C122.154 0 120.9 1.2536 120.9 2.8C120.9 4.3464 122.154 5.6 123.7 5.6Z" fill="#0CAF60"/>
<path d="M22.3 21.5004C23.8464 21.5004 25.1 20.2468 25.1 18.7004C25.1 17.154 23.8464 15.9004 22.3 15.9004C20.7536 15.9004 19.5 17.154 19.5 18.7004C19.5 20.2468 20.7536 21.5004 22.3 21.5004Z" fill="#0CAF60"/>
<path d="M5.2 75.4996C8.07188 75.4996 10.4 73.1715 10.4 70.2996C10.4 67.4277 8.07188 65.0996 5.2 65.0996C2.32812 65.0996 0 67.4277 0 70.2996C0 73.1715 2.32812 75.4996 5.2 75.4996Z" fill="#0CAF60"/>
<path d="M107 28.2998V91.0998C97.8998 100.2 85.2998 105.7 71.3998 105.7C57.5998 105.7 44.9998 100.1 35.7998 91.0998V28.2998H107Z" fill="#EAFAE5" stroke="#0CAF60" stroke-width="2" stroke-miterlimit="10"/>
<path d="M67.9431 55.6392L84.0833 39.499L88.8208 44.2366L68.032 65.0253L68.0091 65.0024L67.9201 65.0914L53.9902 51.1615L58.7278 46.4239L67.9431 55.6392Z" fill="#EAFAE5" stroke="#0CAF60" stroke-width="2" stroke-miterlimit="10"/>
<path d="M89.6002 73.5996H53.2002V78.1996H89.6002V73.5996Z" fill="#0CAF60"/>
<path d="M89.6002 83.7002H53.2002V88.3002H89.6002V83.7002Z" fill="#0CAF60"/>
<path d="M80.7001 93.9004H62.1001V98.5004H80.7001V93.9004Z" fill="#0CAF60"/>
</svg>
