<svg width="32" height="40" viewBox="0 0 32 40" fill="none" xmlns="http://www.w3.org/2000/svg">
<path fill-rule="evenodd" clip-rule="evenodd" d="M23.3846 20.0002H8.61539C7.936 20.0002 7.38462 20.5602 7.38462 21.2502C7.38462 21.9414 7.936 22.5002 8.61539 22.5002H23.3846C24.064 22.5002 24.6154 21.9414 24.6154 21.2502C24.6154 20.5602 24.064 20.0002 23.3846 20.0002ZM23.3846 27.5002H8.61539C7.936 27.5002 7.38462 28.0589 7.38462 28.7502C7.38462 29.4414 7.936 30.0002 8.61539 30.0002H23.3846C24.064 30.0002 24.6154 29.4414 24.6154 28.7502C24.6154 28.0589 24.064 27.5002 23.3846 27.5002ZM24.6154 10.0002C23.2566 10.0002 22.1538 8.88019 22.1538 7.50019V2.50019L29.5385 10.0002H24.6154ZM29.5385 35.0002C29.5385 36.3802 28.4357 37.5002 27.0769 37.5002H4.92308C3.56431 37.5002 2.46154 36.3802 2.46154 35.0002V5.00019C2.46154 3.62019 3.56431 2.50019 4.92308 2.50019H19.6578C19.6357 5.49394 19.6923 7.50019 19.6923 7.50019C19.6923 10.2614 21.8966 12.5002 24.6154 12.5002H29.5385V35.0002ZM22.1538 0.000192149V0.035192C21.9963 0.035192 21.3391 -0.0260579 19.6923 0.000192149H4.92308C2.20431 0.000192149 0 2.23894 0 5.00019V35.0002C0 37.7614 2.20431 40.0002 4.92308 40.0002H27.0769C29.7957 40.0002 32 37.7614 32 35.0002V10.0002L22.1538 0.000192149Z" fill="black"/>
</svg>
