<svg width="36" height="40" viewBox="0 0 36 40" fill="none" xmlns="http://www.w3.org/2000/svg">
<path fill-rule="evenodd" clip-rule="evenodd" d="M18.2253 0.0903578C21.1045 1.99562 24.2086 3.52678 27.4646 4.64787C30.2981 5.57565 32.9484 5.95002 35.3932 5.70912C35.5208 5.69821 35.6475 5.73849 35.746 5.8213C35.8445 5.9041 35.907 6.02281 35.9201 6.15185V6.18115C36.357 15.1074 34.9916 22.2692 32.1003 27.7935C29.042 33.6337 24.2874 37.641 18.1707 39.9719C18.0668 40.0094 17.9533 40.0094 17.8494 39.9719C12.0893 37.8396 7.50494 34.1545 4.42088 28.5781C1.33681 23.0016 -0.224493 15.5696 0.0260874 5.90445C0.0294558 5.77464 0.0833745 5.65145 0.176069 5.56179C0.268764 5.47213 0.392703 5.42328 0.520822 5.42591C3.57442 5.62174 6.63828 5.2747 9.57383 4.40047C12.5019 3.48461 15.2371 2.02652 17.6406 0.100124C17.7246 0.0351792 17.8273 0 17.9329 0C18.0386 0 18.1413 0.0351792 18.2253 0.100124V0.0903578ZM26.0832 7.87069C23.2372 6.8847 20.5198 5.55218 17.9907 3.90239C15.7401 5.66213 13.1837 6.97837 10.4541 7.78279C8.0237 8.46783 5.50189 8.76007 2.98165 8.64872C2.98165 16.3444 4.33735 22.3213 6.87527 26.8072C8.95457 30.5243 12.129 33.4894 15.954 35.2874L14.0521 29.6198C13.7726 28.9492 13.5638 28.3177 13.3068 27.6666C12.8265 26.5642 12.1995 25.5335 11.4435 24.6033C10.8426 23.4708 10.5312 22.2039 10.5376 20.9182C10.9938 21.2698 11.5014 21.6897 11.9897 22.0804C12.9117 22.8128 13.8819 23.7081 14.8456 22.4059C15.0288 22.1422 15.2151 21.8883 15.4046 21.6507C16.1219 20.7448 16.9524 19.9372 17.8751 19.2482C16.9113 20.2248 16.5355 22.152 16.9949 24.5577C17.3161 20.6513 18.251 17.6303 22.8417 18.2423L22.2859 16.9239L20.4098 17.64C18.9545 18.1837 17.3065 16.2175 18.0389 15.2962C20.5383 13.8443 23.8729 11.1163 25.4889 14.0754L26.8124 16.5202C28.5665 19.6942 27.41 20.8401 25.2383 23.9164C24.4368 25.0637 23.5253 26.128 22.5172 27.0936C22.0064 27.5787 22.09 27.4192 22.4787 28.0702L24.7596 32.1818C26.5773 30.6038 28.1053 28.7126 29.2733 26.5956C31.7662 22.1325 33.0159 16.2728 32.9549 8.89287C30.6219 8.9814 28.2927 8.63493 26.0832 7.87069ZM10.5344 16.7351C10.6603 16.6011 10.8285 16.5159 11.0098 16.4942C11.1063 16.4876 11.2031 16.4986 11.2958 16.5267C11.5086 16.5965 11.6993 16.7223 11.8483 16.8913C12.8622 17.7916 13.8112 18.7642 14.6882 19.8016C15.1637 20.2476 15.2729 20.7066 14.897 21.1526L14.216 21.9241C13.8722 22.2757 13.4321 22.2496 12.9534 21.9046C10.7946 20.0686 8.24704 19.1212 10.5344 16.7351ZM20.5608 8.45991C20.6609 8.46904 20.7587 8.49547 20.8499 8.53804C21.3382 8.75615 21.9036 9.75555 22.135 10.2146C22.2892 10.5075 22.7325 11.3018 23.0987 11.9692L20.0147 13.229C19.5199 12.4217 19.0734 11.6013 18.6236 10.9275C18.4988 10.7844 18.4171 10.6082 18.388 10.4195C18.359 10.2309 18.3839 10.0377 18.4598 9.86297C18.6872 9.46529 19.0214 9.14128 19.4235 8.92868C19.7063 8.78545 20.2877 8.45991 20.5608 8.45991ZM16.9113 10.5466C17.0124 10.5493 17.1123 10.5692 17.2069 10.6052C17.4219 10.6962 17.6085 10.8447 17.7466 11.0349C18.0699 11.3925 18.3572 11.7818 18.6043 12.1971C18.7553 12.438 19.0862 12.9588 19.43 13.4992C18.3666 13.9843 16.9338 14.2447 16.8824 15.6282C16.256 14.759 15.6938 13.8313 15.1412 13.1183C15.0078 12.9829 14.9155 12.8116 14.8751 12.6247C14.8347 12.4378 14.8479 12.2431 14.9131 12.0636C15.1348 11.4548 16.3138 10.5238 16.9113 10.5336V10.5466ZM13.6217 13.343C13.7181 13.3382 13.8146 13.3492 13.9076 13.3755C14.1195 13.4436 14.3093 13.5685 14.4569 13.7369C14.7939 14.0518 15.0995 14.3997 15.3693 14.7753C15.742 15.2962 17.2229 17.1941 17.435 17.6303C17.5153 17.7758 17.548 17.9434 17.5284 18.1089C17.5088 18.2745 17.4378 18.4295 17.3257 18.5515L16.4519 19.411C16.105 19.7625 15.6648 19.7365 15.1862 19.3914C14.0682 18.3041 13.0434 16.9239 12.1439 15.9473C12.0069 15.8305 11.9055 15.6767 11.8515 15.5038C11.7975 15.3309 11.793 15.146 11.8387 14.9706C11.9865 14.4107 13.0627 13.3788 13.6217 13.343Z" fill="black"/>
</svg>
