<svg width="45" height="32" viewBox="0 0 45 32" fill="none" xmlns="http://www.w3.org/2000/svg">
<path fill-rule="evenodd" clip-rule="evenodd" d="M17.2045 0C19.1833 0 20.7864 1.6031 20.7864 3.58188C20.7864 5.56065 19.1833 7.16375 17.2045 7.16375C15.2258 7.16375 13.6227 5.56065 13.6227 3.58188C13.6227 1.6031 15.2258 0 17.2045 0ZM6.88292 9.39545C8.27773 9.39545 9.41218 10.5262 9.41218 11.9247C9.41218 13.3195 8.28146 14.454 6.88292 14.454C5.48439 14.454 4.35366 13.3232 4.35366 11.9247C4.35366 10.5299 5.48439 9.39545 6.88292 9.39545ZM3.44239 15.674C3.6358 15.4099 3.91848 15.2537 4.21976 15.2165V15.2127C5.96793 14.9375 7.71609 14.9487 9.46426 15.209C9.77297 15.2239 10.0743 15.3727 10.2714 15.6405C11.4282 17.2213 11.9154 18.233 12.6444 19.7431C12.8825 20.2341 13.1428 20.7771 13.3586 21.2049C13.6189 21.7293 13.4069 22.3653 12.8862 22.6257C12.3617 22.8861 11.7257 22.6741 11.4653 22.1533C11.1269 21.4727 10.9223 21.0486 10.7363 20.6655C10.2974 19.7543 9.95151 19.0364 9.47913 18.259V24.0875V24.3888V30.2916C9.47913 30.8904 8.96584 31.3814 8.34097 31.3814C7.71609 31.3814 7.2028 30.8904 7.2028 30.2916V24.3925H6.4961V30.2953C6.4961 30.8942 5.9828 31.3851 5.35793 31.3851C4.73305 31.3851 4.21976 30.8942 4.21976 30.2953V24.3925V24.0912V18.6272C3.75111 19.4158 3.39403 20.156 2.94397 21.0858C2.74312 21.5024 2.52367 21.9562 2.15916 22.6889C1.87648 23.2506 1.19209 23.4812 0.630446 23.1985C0.0688022 22.9158 -0.161807 22.2314 0.120875 21.6698C0.351484 21.2086 0.634166 20.6246 0.887092 20.0927C1.67191 18.4636 2.19636 17.3738 3.44239 15.674ZM38.1267 5.72803C39.5215 5.72803 40.656 6.85876 40.656 8.25729C40.656 9.6521 39.5252 10.7865 38.1267 10.7865C36.7282 10.7865 35.5975 9.65582 35.5975 8.25729C35.5975 6.85876 36.7282 5.72803 38.1267 5.72803ZM40.708 11.6978C41.0168 11.7127 41.318 11.8615 41.5152 12.1293C42.6719 13.7064 43.4456 15.7558 44.1746 17.2659C44.4127 17.7606 44.673 18.2999 44.8888 18.7314C45.1491 19.2558 44.9371 19.8919 44.4127 20.1522C43.8882 20.4126 43.2522 20.2006 42.9918 19.6799C42.6533 19.0029 42.4488 18.5789 42.2628 18.1921C41.8016 17.2362 41.3143 16.0199 40.7192 14.8892V15.7856L42.4971 23.6411H40.7192V30.2321C40.7192 30.8309 40.2059 31.3219 39.581 31.3219C38.9562 31.3219 38.4429 30.8309 38.4429 30.2321V23.6411H37.7362V30.2321C37.7362 30.8309 37.2229 31.3219 36.598 31.3219C35.9731 31.3219 35.4598 30.8309 35.4598 30.2321V23.6411H33.8456L35.4598 15.9269V15.2425C35.2329 15.7186 35.0544 16.1947 34.6899 16.9498C34.489 17.3663 34.4184 17.5672 34.0501 18.2962C33.7675 18.8579 33.0831 19.0885 32.5214 18.8058C31.9598 18.5231 31.7292 17.8387 32.0119 17.2771C32.2425 16.8159 32.3764 16.4885 32.633 15.9566C33.4178 14.3275 33.4401 13.8626 34.6825 12.1628C34.8759 11.8987 35.1586 11.7425 35.4598 11.7053V11.6978C37.1336 11.4003 38.8818 11.3928 40.708 11.6978ZM27.1914 0C29.1702 0 30.7733 1.6031 30.7733 3.58188C30.7733 5.56065 29.1702 7.16375 27.1914 7.16375C25.2126 7.16375 23.6095 5.56065 23.6095 3.58188C23.6058 1.6031 25.2126 0 27.1914 0ZM27.6824 24.9541V30.1577C27.6824 30.9983 28.4263 31.6901 29.3375 31.6901C30.2488 31.6901 30.9927 31.002 30.9927 30.1577V24.9541H33.3546L32.1867 19.4195C31.7441 19.1889 31.4316 18.8058 31.2828 18.3632C31.1341 17.9168 31.1564 17.4147 31.3833 16.9609C31.4539 16.8196 31.5172 16.6857 31.5804 16.5518L30.8774 13.2117V12.9178C31.3609 13.7138 31.7515 14.4651 32.1644 15.2983C32.2908 15.0268 32.3987 14.7776 32.4991 14.5507C32.8636 13.7175 33.124 13.1298 33.9237 12.0065C33.4178 11.1139 32.8376 10.2063 32.0305 9.10533C31.7441 8.71478 31.3089 8.49905 30.8588 8.47674C28.3556 8.02296 25.9677 8.03784 23.6876 8.48046V8.49162C23.3231 8.52137 22.9735 8.67759 22.7094 8.95283C23.4607 9.99429 24.0112 10.8758 24.4985 11.7425C25.0229 12.6798 25.473 13.6096 26.0086 14.7218C26.1797 15.0788 26.3619 15.4582 26.5405 15.8227C26.7413 16.2356 26.9199 16.6001 27.0426 16.8456C27.303 17.3663 27.3253 17.9391 27.1579 18.4487C26.9868 18.9583 26.6223 19.4046 26.1053 19.665C25.5883 19.9254 25.0118 19.9477 24.5022 19.7803C23.9926 19.6092 23.5463 19.2447 23.2859 18.7277C23.0739 18.3037 22.1105 16.3249 21.9618 16.0273L21.3481 24.9578H23.576V30.1614C23.576 31.002 24.3199 31.6938 25.2312 31.6938C26.1425 31.6938 26.8864 31.0057 26.8864 30.1614V24.9541H27.6824ZM17.5839 21.402V30.1577C17.5839 30.9983 18.3278 31.6901 19.2391 31.6901C20.1504 31.6901 20.8943 31.002 20.8943 30.1577V21.402V12.81C21.5824 13.9407 22.0845 14.9859 22.7243 16.31C22.9958 16.8716 23.2934 17.4891 23.788 18.4747C24.1674 19.2372 25.0936 19.546 25.8561 19.1629C26.6149 18.7835 26.9273 17.8573 26.5442 17.0948C26.2318 16.4699 25.8524 15.6851 25.5065 14.9673C24.4464 12.769 23.736 11.2924 22.051 8.99747C21.7646 8.60692 21.3332 8.39119 20.8868 8.36887C19.6482 8.07503 13.4255 7.50223 12.332 8.99747C10.7847 11.1101 10.0594 12.5236 9.12578 14.4503C9.27084 14.4688 9.41218 14.4874 9.55352 14.5098C9.79529 14.5284 10.0333 14.599 10.2491 14.7143C10.476 14.8371 10.6805 15.0082 10.8405 15.2276C11.1417 15.6405 11.4021 16.0162 11.629 16.3695L11.655 16.3137C12.3617 14.8482 12.9011 13.7287 13.7082 12.4529V20.3308C13.8161 20.5502 13.9128 20.7474 13.9872 20.8999C14.2029 21.335 14.2252 21.8149 14.0839 22.2426C14.0058 22.4769 13.8793 22.6964 13.7082 22.8786V30.1614C13.7082 31.002 14.4521 31.6938 15.3634 31.6938C16.2747 31.6938 17.0186 31.0057 17.0186 30.1614V21.402H17.5839Z" fill="black"/>
</svg>
