<svg width="90" height="80" viewBox="0 0 90 80" fill="none" xmlns="http://www.w3.org/2000/svg">
<path d="M72 41.811C72 61.4184 56.1074 77.311 36.5 77.311C16.8926 77.311 1 61.4184 1 41.811C1 30.7799 6.02298 20.9277 13.9208 14.4189C13.937 14.4027 13.9531 14.4027 13.9693 14.3866C20.0582 9.36358 27.8753 6.34334 36.3869 6.31104H36.5C36.9361 6.31104 37.3722 6.31104 37.8082 6.32719C40.1501 6.40794 42.4274 6.71481 44.624 7.23164C60.3228 10.9141 72 24.9978 72 41.811Z" fill="white" stroke="#0CAF60" stroke-width="2" stroke-miterlimit="10"/>
<path d="M68.9636 27.4366C67.8169 27.6143 67.3323 27.2428 66.6702 25.773C66.3471 26.0476 66.0403 26.306 65.6365 26.6614C65.4104 26.1607 65.2327 25.7407 65.0389 25.3208C64.8612 24.9009 64.6674 24.8201 64.2636 25.1432C63.9891 25.3693 63.4722 25.6115 63.2461 25.4823C62.9877 25.3531 62.8585 24.8363 62.8262 24.4648C62.7777 23.948 62.8262 23.7219 62.0671 23.7057C61.2434 23.6896 60.4197 23.1081 59.4991 22.7367C59.3537 23.6573 59.2084 24.5617 59.0469 25.4823C58.6431 25.5792 58.2393 25.66 57.8355 25.773C56.5596 26.1122 55.7843 25.87 55.0091 24.7717C54.4923 24.0449 54.0723 23.2373 53.4909 22.2521C54.5569 21.9776 55.4775 21.6868 56.4304 21.5253C57.3025 21.38 58.9823 20.0717 59.2084 19.2157C59.2245 19.135 59.2407 19.0542 59.2407 18.9896C59.0792 18.1336 58.9176 17.2937 58.74 16.3408C58.5946 16.3408 58.2878 16.3893 58.0132 16.3247C57.4964 16.2278 57.0441 16.0501 56.818 15.4687C56.7211 15.2264 56.3981 14.968 56.1397 14.9034C54.8314 14.5965 54.5407 14.3381 54.4277 13.0622C54.3954 12.5776 54.4115 12.0931 54.4277 11.6086C54.4277 11.4632 54.4438 11.334 54.4438 11.124C51.4236 9.34743 48.1126 8.0069 44.5917 7.18319C44.2848 8.02305 43.7518 8.49143 42.7828 8.62064C42.2659 8.68524 41.7652 9.23437 41.3615 9.6543C40.5862 10.4942 39.9079 11.3986 39.1811 12.3031C38.0828 11.8508 37.679 10.9464 37.2914 9.96117C36.8069 8.73369 36.9522 7.58697 37.5498 6.47255C37.5983 6.39179 36.9031 7.5646 37 7.5C36.5962 7.54845 36.9361 6.31104 36.5 6.31104L36.5 7C36.5646 7.04845 36.5 6.40794 36.5323 6.47255C36.6292 6.61791 36.5646 7.00553 36.4354 7.13474C35.8055 7.70003 35.1272 8.20071 34.465 8.73369C33.5444 7.61927 32.866 7.44161 31.4124 7.86154C31.0894 7.95844 30.5403 8.02305 30.3787 7.84538C29.7973 7.23164 29.3774 7.61927 28.9252 7.92614C28.376 8.29761 27.8753 8.71754 27.2939 9.04056C26.4217 9.52509 26.341 11.1725 26.7448 11.8024C26.8578 11.9801 27.2616 12.1254 27.4716 12.0608C28.3922 11.8347 29.2159 11.3986 29.7166 10.5588C29.9265 10.2034 30.1203 10.2357 30.5241 10.268C31.0086 10.3003 31.5901 10.0904 31.9939 9.79966C32.8822 9.13747 33.0114 9.08902 33.7866 9.86427C33.932 10.0096 34.0773 10.2034 34.255 10.3165C34.8364 10.6395 34.8203 11.0594 34.5134 11.5601C34.3035 11.8993 34.1581 12.2708 33.9481 12.7068C34.2873 12.7876 34.578 12.8522 34.901 12.9168C34.8526 13.2883 34.8364 13.6598 34.7395 13.9989C34.4004 15.2103 33.5605 16.1955 32.22 15.0972C31.7677 14.7257 31.1863 14.8388 30.9117 15.3556C30.4918 16.1793 29.7327 16.2439 29.0221 16.2116C27.407 16.1309 25.9372 16.5993 24.5321 17.326C24.3706 17.4068 24.1606 17.5522 24.0314 17.5199C23.0462 17.1968 22.4486 17.9398 21.7218 18.3274C21.0111 18.715 20.2843 19.0865 19.5414 19.4095C19.073 19.6195 18.7985 19.8295 18.7661 20.4432C18.6854 21.5253 18.4108 22.5913 18.2009 23.738C17.3126 23.3504 17.151 22.6074 17.0541 21.9937C16.8119 20.4432 16.0851 20.1848 14.9707 19.9748C12.9195 19.5872 10.2545 20.847 9.39854 22.672C9.05937 23.3988 9.05937 24.3518 9.14013 25.1755C9.20473 25.9023 10.093 26.2737 10.9329 25.9992C11.4336 25.8377 11.9504 25.8215 12.0635 26.3383C12.1281 26.6775 11.7889 27.1136 11.5628 27.4851C11.4659 27.6466 11.2236 27.7273 11.0621 27.8565C10.5453 28.2765 10.513 28.7125 11.0621 29.1002C11.4497 29.3747 11.482 29.6008 11.369 30.0692C10.8844 32.0397 11.8374 33.574 13.8078 34.0908C14.5669 34.2847 15.0999 33.9293 15.5844 33.364C15.9074 32.9764 16.1497 32.4111 16.8119 32.5242C16.9895 32.5565 17.1833 32.5888 17.3287 32.6695C18.2655 33.1379 19.1699 33.6871 20.1228 34.107C20.995 34.4946 21.851 34.8015 22.4486 35.6413C22.6909 35.9805 23.1754 36.1743 23.5792 36.3197C25.3073 36.9819 26.6156 38.1286 27.5523 39.6952C28.1661 40.7289 28.7313 41.7949 29.2966 42.8609C29.5873 43.3938 29.9427 43.7169 30.5726 43.8622C31.9131 44.1529 33.189 44.7021 34.2066 45.6711C35.1918 46.6079 35.321 47.5285 34.5942 48.6914C34.3035 49.1759 33.8189 49.5312 33.4959 49.9996C33.1083 50.5811 32.6722 51.1786 32.4784 51.8408C32.01 53.359 31.2025 54.6834 30.1688 55.8463C29.7166 56.3631 28.9413 56.7508 28.263 56.88C27.0839 57.0899 26.4379 57.849 25.8403 58.7212C25.3396 59.4641 24.742 60.1586 24.3544 60.95C23.7407 62.1775 22.5455 62.6943 21.528 63.405C19.9775 64.471 18.8631 65.8922 18.3624 67.6527C18.1363 68.4441 18.54 69.4132 18.6531 70.2853C18.7338 70.8991 18.8469 71.5128 18.9438 72.175C17.1026 71.4643 15.9397 70.14 15.0676 68.5733C14.7284 67.9596 14.6961 67.1682 14.5346 66.4575C14.4215 65.9407 14.4215 65.3916 14.2277 64.9232C13.6947 63.6472 13.8885 62.3552 14.0823 61.0792C14.1954 60.3363 14.2116 59.6418 14.1308 58.8665C14.0016 57.7683 14.3085 56.6215 14.4377 55.491C14.5023 54.9418 14.6315 54.3927 14.6799 53.8436C14.7284 53.3267 14.5346 52.923 14.26 52.4546C13.9531 51.9054 13.9208 51.1463 13.9531 50.4841C13.9854 50.0642 14.0177 49.8543 13.6301 49.5797C12.1927 48.5783 10.8844 47.2539 10.3192 45.7034C9.62466 43.7653 9.04322 41.5849 10.5776 39.5822C11.2882 38.6454 11.9827 37.6441 12.3865 36.5458C12.9356 35.0599 12.5803 34.3816 11.5143 33.7517C10.836 33.364 10.3999 32.7826 10.3353 31.9912C10.2707 31.1836 9.89923 30.6022 9.30164 30.1015C8.94631 29.8108 8.73635 29.5201 8.97862 29.0033C9.18858 28.5187 8.99477 28.1634 8.44563 27.905C7.36351 27.4043 6.20064 26.8875 5.94222 25.5792C5.81301 24.9493 5.81301 24.1418 6.11988 23.6088C7.57348 21.0085 9.41469 18.6666 11.5143 16.5669C12.1765 15.9048 12.871 15.2587 13.5817 14.645C5.89377 21.1861 1 30.9252 1 41.811C1 61.4184 16.8926 77.311 36.5 77.311C44.2525 77.311 51.4236 74.8238 57.2541 70.6084L57.3025 70.1884C57.5125 69.6877 57.7063 69.1871 57.9163 68.6864C58.3201 67.7981 58.7077 66.8936 59.1438 66.0376C59.5475 65.2624 59.4345 64.471 59.1922 63.7442C58.5785 61.8222 59.3537 60.3363 60.5489 58.9796C60.5974 58.9311 60.6458 58.8827 60.6781 58.8181C61.308 58.1074 62.0025 57.4452 62.0025 56.4277C62.0025 55.6202 61.954 54.7319 61.6472 54.0051C61.5664 53.8113 61.5018 53.6175 61.4372 53.4236C61.1303 52.2769 61.3565 51.2109 61.8571 50.145C61.8733 50.0965 61.9056 50.0481 61.9217 49.9996C62.2448 49.2405 62.3417 48.4653 62.2448 47.69C62.2286 47.5124 62.1963 47.3347 62.1479 47.157C62.0994 46.9794 61.8087 46.6887 61.7925 46.6887C60.8558 47.2862 60.2097 46.3172 59.4022 46.2687C58.3362 46.2041 57.2541 46.0265 56.2204 46.1718C55.1222 46.3333 54.1208 46.1234 53.3132 45.5258C51.8273 44.4275 50.4383 43.1677 49.0494 41.9402C48.7909 41.7141 48.6617 41.2458 48.6133 40.8904C48.4518 39.1946 48.8879 37.5795 49.3239 35.9644C49.5985 34.963 49.76 34.0101 49.6146 32.928C49.4854 31.862 50.3253 31.0867 51.149 30.473C51.4559 30.2469 51.8758 30.15 52.215 29.9562C52.5703 29.7462 53.0225 29.5685 53.2325 29.2455C54.5084 27.3074 56.495 27.049 58.5139 27.0813C60.0967 27.1136 61.7279 27.1943 63.23 27.6143C64.2959 27.905 65.2489 28.7125 66.1533 29.407C66.9286 29.9885 67.6715 30.4246 68.689 30.3115C69.1574 30.263 69.6419 30.3761 70.1103 30.4407C69.7873 29.407 69.3997 28.4057 68.9636 27.4366ZM15.3421 26.2899C15.5682 25.3693 16.3919 24.9493 16.9895 25.4016C17.7648 25.983 18.6046 26.2253 19.5576 26.2576C19.7837 26.2737 19.9936 26.4191 20.2197 26.516C20.1874 26.6291 20.1713 26.726 20.139 26.839C18.54 26.6452 16.9572 26.4675 15.3421 26.2899ZM22.1256 29.1809C21.1081 29.084 20.1551 28.9871 19.1215 28.8902C20.139 28.0988 21.1404 27.6143 22.3194 28.7125C22.2548 28.874 22.174 29.0679 22.1256 29.1809ZM44.9954 11.2048C44.8662 11.5278 44.7047 12.0608 44.4786 12.1093C44.0748 12.19 43.6065 12.0124 43.2027 11.8347C42.7989 11.6732 42.4597 11.3825 42.0883 11.1402C42.1206 11.0433 42.169 10.9302 42.2013 10.8333C42.8797 10.5749 43.558 10.268 44.2525 10.0904C44.5109 10.0258 44.9147 10.2196 45.1408 10.4296C45.2377 10.5588 45.0924 10.9625 44.9954 11.2048ZM52.4411 17.2291C52.2957 16.9546 52.1827 16.6962 52.0373 16.4216C52.6995 16.1309 52.9902 15.6786 52.7964 14.9518C52.7803 14.8872 53.3132 14.5804 53.3617 14.6288C54.3631 15.5656 55.6551 16.1793 56.172 17.6491C56.4304 18.3759 56.0912 18.602 55.7197 18.8927C54.9122 19.5064 54.0077 19.1673 53.7978 18.1982C53.7009 17.7944 53.6524 17.3745 53.5717 16.8415C53.1517 16.9707 52.8126 17.0838 52.4411 17.2291Z" fill="#EAFAE5" stroke="#0CAF60" stroke-width="2" stroke-miterlimit="10"/>
<path d="M53.9895 1C57.4562 1 60.2599 3.86266 60.2599 7.4023C60.2599 10.2263 56.2817 15.8162 54.6525 17.9825C54.3115 18.4468 53.6295 18.4468 53.2885 17.9825C51.6594 15.8162 47.6812 10.2263 47.6812 7.4023C47.719 3.86266 50.5227 1 53.9895 1Z" fill="#EAFAE5" stroke="#0CAF60" stroke-width="2" stroke-miterlimit="10"/>
<path d="M53.8307 9.94483C55.2201 9.94483 56.3465 8.81849 56.3465 7.42908C56.3465 6.03967 55.2201 4.91333 53.8307 4.91333C52.4413 4.91333 51.315 6.03967 51.315 7.42908C51.315 8.81849 52.4413 9.94483 53.8307 9.94483Z" fill="white" stroke="#0CAF60" stroke-width="2" stroke-miterlimit="10"/>
<path fill-rule="evenodd" clip-rule="evenodd" d="M50.4026 20.401C50.4204 21.1727 49.8092 21.8127 49.0376 21.8306C48.9519 21.8325 48.8664 21.8349 48.7812 21.8376C48.0096 21.8621 47.3643 21.2565 47.3398 20.485C47.3153 19.7135 47.9209 19.0682 48.6924 19.0437C48.7857 19.0408 48.8793 19.0382 48.973 19.036C49.7447 19.0182 50.3847 19.6293 50.4026 20.401ZM52.4493 20.5126C52.547 19.7469 53.2468 19.2053 54.0125 19.303C54.0593 19.3089 54.1061 19.315 54.1529 19.3211C54.9182 19.4218 55.457 20.1239 55.3563 20.8892C55.2556 21.6545 54.5536 22.1932 53.7883 22.0925C53.7451 22.0869 53.702 22.0813 53.659 22.0758C52.8933 21.9782 52.3517 21.2783 52.4493 20.5126ZM45.3054 20.7111C45.4528 21.4688 44.958 22.2024 44.2003 22.3498C44.1161 22.3661 44.0321 22.3829 43.9484 22.3999C43.1921 22.5541 42.4539 22.066 42.2997 21.3097C42.1455 20.5533 42.6336 19.8152 43.39 19.661C43.482 19.6422 43.5742 19.6239 43.6667 19.6059C44.4244 19.4585 45.1581 19.9534 45.3054 20.7111ZM40.3335 21.8812C40.6086 22.6024 40.2469 23.4101 39.5257 23.6852C39.4457 23.7157 39.366 23.7465 39.2866 23.7776C38.5679 24.0592 37.757 23.7049 37.4754 22.9862C37.1938 22.2675 37.5481 21.4566 38.2668 21.175C38.3541 21.1408 38.4417 21.1069 38.5295 21.0734C39.2507 20.7983 40.0584 21.16 40.3335 21.8812ZM35.6356 23.885C36.0284 24.5495 35.8083 25.4066 35.1438 25.7995C35.0705 25.8428 34.9974 25.8864 34.9247 25.9303C34.2638 26.329 33.4048 26.1163 33.0061 25.4553C32.6074 24.7944 32.8201 23.9354 33.481 23.5367C33.5607 23.4886 33.6408 23.4408 33.7212 23.3933C34.3856 23.0004 35.2427 23.2206 35.6356 23.885ZM31.3396 26.6494C31.8373 27.2394 31.7626 28.1211 31.1726 28.6189C31.1071 28.6741 31.0421 28.7295 30.9774 28.785C30.3919 29.2879 29.5095 29.2209 29.0065 28.6354C28.5036 28.0498 28.5706 27.1674 29.1562 26.6645C29.227 26.6036 29.2984 26.5429 29.3701 26.4824C29.9601 25.9846 30.8419 26.0594 31.3396 26.6494ZM27.5629 30.0898C28.156 30.5839 28.2363 31.4652 27.7422 32.0582C27.688 32.1233 27.6343 32.1883 27.5813 32.2533C27.0931 32.8513 26.2127 32.9403 25.6148 32.4521C25.0168 31.964 24.9278 31.0835 25.416 30.4856C25.4749 30.4134 25.5344 30.3412 25.5945 30.2691C26.0886 29.676 26.9699 29.5957 27.5629 30.0898ZM24.4649 34.1535C25.1553 34.4986 25.4353 35.3381 25.0903 36.0285C25.0722 36.0647 25.0544 36.1007 25.0368 36.1366C24.6973 36.8298 23.8601 37.1165 23.1668 36.777C22.4736 36.4374 22.1869 35.6002 22.5265 34.907C22.5473 34.8644 22.5685 34.8217 22.5898 34.7789C22.9349 34.0884 23.7744 33.8084 24.4649 34.1535Z" fill="#52C41A"/>
<path d="M22.5524 6.87012C27.791 6.87012 32.0277 11.0256 32.0277 16.1638C32.0277 20.2631 26.0161 28.3775 23.5543 31.5222C23.039 32.1961 22.0085 32.1961 21.4932 31.5222C19.0313 28.3775 13.0198 20.2631 13.0198 16.1638C13.077 11.0256 17.3137 6.87012 22.5524 6.87012Z" fill="#EAFAE5" stroke="#0CAF60" stroke-width="2" stroke-miterlimit="10"/>
<path d="M22.5237 20.0079C24.5306 20.0079 26.1576 18.3184 26.1576 16.2343C26.1576 14.1502 24.5306 12.4607 22.5237 12.4607C20.5168 12.4607 18.8898 14.1502 18.8898 16.2343C18.8898 18.3184 20.5168 20.0079 22.5237 20.0079Z" fill="white" stroke="#0CAF60" stroke-width="2" stroke-miterlimit="10"/>
<path d="M89 62.5C89 66.5338 87.5624 70.2029 85.1593 73.078C82.1339 76.7042 77.5852 79 72.4785 79C67.5865 79 63.2094 76.8758 60.184 73.5072C57.5878 70.5891 56 66.7269 56 62.5C56 53.381 63.381 46 72.5 46C81.619 46 89 53.381 89 62.5Z" fill="#F4FBF4" stroke="#0CAF60" stroke-width="2" stroke-miterlimit="10"/>
<path d="M85.1806 73.0778C82.1552 76.7039 77.6064 78.9998 72.4998 78.9998C67.6077 78.9998 63.2306 76.8756 60.2053 73.5069C60.7202 73.0992 61.3639 72.7345 62.1578 72.4126L62.7586 72.1766C63.8958 71.726 65.3763 71.1682 67.3717 70.3314C67.8223 70.1383 68.1871 69.7949 68.3802 69.3444C68.4874 69.1083 68.5518 68.8294 68.5518 68.5505V64.8385C68.4874 64.7527 68.4231 64.6883 68.3802 64.6025C68.0583 64.1304 67.8438 63.5726 67.7794 62.9718L67.4575 62.8216C66.492 63.0576 66.5564 62.0277 66.3203 60.0537C66.2131 59.2384 66.3418 59.0667 66.7066 58.938L67.007 58.5303C65.1617 54.3463 66.0843 51.7286 67.9081 50.806C67.3073 49.4757 67.2644 49.0037 67.2644 49.0037C67.2644 49.0037 71.148 49.6474 72.4998 49.3899C74.1949 49.0466 76.8125 49.4542 77.7781 51.7072C79.3873 52.3509 80.031 53.3593 80.1597 54.4751C80.3958 56.2345 79.3873 58.1656 79.1942 58.9165C79.2157 58.9594 79.2371 58.9809 79.2371 59.0024C79.4946 59.1311 79.5804 59.3457 79.4946 60.0537C79.2586 61.9204 79.3229 63.0791 78.3574 62.8216L77.4991 64.3236C77.4562 64.4952 77.4562 64.5596 77.4348 64.6883C77.3919 64.9672 77.4133 65.5251 77.4133 68.5934C77.4133 68.9581 77.5206 69.3014 77.7137 69.6233C77.9283 69.9451 78.2287 70.2241 78.6149 70.3743C78.6149 70.3743 78.6363 70.3743 78.6578 70.3957C80.8678 71.3184 82.4556 71.9191 83.6142 72.3697C84.215 72.5628 84.73 72.8203 85.1806 73.0778Z" fill="white"/>
<path d="M79.2373 58.8951C79.3231 58.423 79.1085 57.8437 78.9369 57.436C78.9154 57.3717 78.8725 57.3073 78.851 57.2215C78.1001 55.7195 76.4479 55.1187 74.8601 55.0329C70.8049 54.8184 70.4401 55.5908 69.1742 54.4321C69.5604 55.0329 69.6033 55.9555 69.0025 57.1142C68.5734 57.9295 67.7581 58.2943 67.05 58.5303C65.2047 54.3463 66.1274 51.7286 67.9512 50.806C67.3504 49.4757 67.3075 49.0037 67.3075 49.0037C67.3075 49.0037 71.1911 49.6474 72.5214 49.3899C74.2165 49.0466 76.8341 49.4542 77.7997 51.7072C79.4089 52.3509 80.0311 53.3593 80.1813 54.4751C80.4174 56.213 79.4304 58.1226 79.2373 58.8951Z" fill="#EAFAE5"/>
<path d="M85.1806 73.0778C82.1552 76.7039 77.6064 78.9998 72.4998 78.9998C67.6077 78.9998 63.2306 76.8756 60.2053 73.5069C60.7202 73.0992 61.3639 72.7345 62.1578 72.4126L62.7586 72.1766C63.8958 71.726 65.3763 71.1682 67.3717 70.3314C67.8223 70.1383 68.1871 69.7949 68.3802 69.3444C68.4874 69.1083 68.5518 68.8294 68.5518 68.5505V64.8385C68.4874 64.7527 68.4231 64.6883 68.3802 64.6025C68.0583 64.1304 67.8438 63.5726 67.7794 62.9718L67.4575 62.8216C66.492 63.0576 66.5564 62.0277 66.3203 60.0537C66.2131 59.2384 66.3418 59.0667 66.7066 58.938L67.007 58.5303C65.1617 54.3463 66.0843 51.7286 67.9081 50.806C67.3073 49.4757 67.2644 49.0037 67.2644 49.0037C67.2644 49.0037 71.148 49.6474 72.4998 49.3899C74.1949 49.0466 76.8125 49.4542 77.7781 51.7072C79.3873 52.3509 80.031 53.3593 80.1597 54.4751C80.3958 56.2345 79.3873 58.1656 79.1942 58.9165C79.2157 58.9594 79.2371 58.9809 79.2371 59.0024C79.4946 59.1311 79.5804 59.3457 79.4946 60.0537C79.2586 61.9204 79.3229 63.0791 78.3574 62.8216L77.4991 64.3236C77.4562 64.4952 77.4562 64.5596 77.4348 64.6883C77.3919 64.9672 77.4133 65.5251 77.4133 68.5934C77.4133 68.9581 77.5206 69.3015 77.7137 69.6233C77.9283 69.9451 78.2287 70.2241 78.6149 70.3743C78.6149 70.3743 78.6363 70.3743 78.6578 70.3957C80.8678 71.3184 82.4556 71.9191 83.6142 72.3697C84.215 72.5628 84.73 72.8203 85.1806 73.0778Z" stroke="#0CAF60" stroke-width="2" stroke-miterlimit="10"/>
<path d="M68.2765 64.4405C68.4716 64.7873 68.7412 65.061 69.0664 65.3212L72.0362 67.3806C72.7299 67.9659 73.7271 67.9876 74.4425 67.4239L77.2173 64.931C77.304 64.8442 77.408 64.6492 77.5234 64.2876" stroke="#0CAF60" stroke-width="2" stroke-miterlimit="10"/>
</svg>
