<svg width="47" height="53" viewBox="0 0 47 53" fill="none" xmlns="http://www.w3.org/2000/svg">
<path d="M44.7275 42.5546C43.1733 41.9181 42.5085 41.0734 42.5728 39.813C42.639 38.3418 41.8043 37.2643 41.408 36.8385C41.6474 35.9238 42.3472 32.7594 41.4087 30.0109C40.4001 27.0689 37.3209 22.5757 34.1436 18.159C32.8429 16.3451 32.7814 14.3735 32.7103 12.0905C32.6422 9.91298 32.5654 7.44472 31.3511 4.70087C30.0308 1.71321 27.3815 0 24.0821 0C22.1193 0 20.1046 0.613414 18.5542 1.6828C15.3794 3.87389 15.7991 8.65105 16.0767 11.8121C16.1148 12.245 16.1506 12.6539 16.1715 13.003C16.3563 16.0989 16.1881 17.7306 15.9681 18.2266C15.8258 18.5506 15.1252 19.473 14.3837 20.4496C13.6168 21.4596 12.7475 22.6044 12.0348 23.6712C11.1846 24.9548 10.4982 26.9169 9.83435 28.8143C9.34866 30.2027 8.8899 31.5142 8.44331 32.2979C7.59687 33.8055 7.80748 35.2113 7.98334 35.8611C7.6629 36.0837 7.19997 36.5219 6.80916 37.348C6.33685 38.3559 5.3785 38.8976 3.38569 39.2807C2.46991 39.4681 1.83842 39.8531 1.50826 40.4252C1.02778 41.2577 1.28948 42.3038 1.52824 43.0187C1.881 44.0697 1.66118 44.7349 1.2615 45.9426C1.1694 46.2213 1.06497 46.5369 0.959139 46.885C0.792492 47.4343 0.852617 47.9337 1.13743 48.3693C1.89003 49.5199 4.08616 49.9256 6.34693 50.1925C7.69679 50.3528 9.17419 50.8927 10.6031 51.415C12.0032 51.9266 13.4509 52.4557 14.7669 52.6163C14.9669 52.6415 15.165 52.6542 15.3559 52.6542C17.3428 52.6542 18.2406 51.3358 18.5252 50.7941C19.2389 50.6485 21.7003 50.1821 24.2372 50.1196C26.7701 50.0473 29.2208 50.5474 29.9151 50.7029C30.1333 51.1207 30.7087 52.0748 31.6258 52.5664C32.1299 52.842 32.8315 53 33.55 53H33.5502C34.3176 53 35.7774 52.8186 36.9328 51.6031C38.0853 50.3818 40.9647 48.8227 43.0673 47.6843C43.5365 47.4303 43.9754 47.1925 44.3603 46.9779C45.5415 46.3232 46.186 45.3876 46.1285 44.4112C46.0805 43.6002 45.5437 42.8887 44.7275 42.5546ZM18.5801 42.3195C18.4331 41.2838 17.1008 40.2566 15.5579 39.0673C14.2963 38.0947 12.8663 36.9925 12.4724 36.059C11.6583 34.1333 12.3 30.7472 13.4189 29.0035C13.9719 28.1305 14.4235 26.8065 14.8603 25.5262C15.332 24.1437 15.8197 22.7142 16.3652 22.0885C17.229 21.1115 18.0273 19.2106 18.1688 17.7125C18.9777 18.4848 20.2325 19.4647 21.3917 19.4647C21.5702 19.4647 21.7434 19.4414 21.909 19.3947C22.7021 19.1656 23.8687 18.4916 24.9968 17.8399C25.9694 17.2779 27.1688 16.5849 27.62 16.5219C28.3939 17.633 32.8902 27.5833 33.3496 30.7788C33.7132 33.3072 33.3291 35.3973 33.1361 36.2159C32.9807 36.1947 32.7955 36.1775 32.6009 36.1775C31.3485 36.1775 31.0169 36.8611 30.9306 37.2693C30.7085 38.3298 30.685 41.721 30.6826 42.483C30.2298 43.0583 27.9396 45.7678 24.6517 46.2549C23.3124 46.4495 22.0618 46.5482 20.9347 46.5482C19.9713 46.5482 19.3565 46.4738 19.1012 46.4351L17.449 44.5446C18.1005 44.223 18.7518 43.5442 18.5801 42.3195ZM20.6767 11.1473C20.625 11.1695 20.5743 11.1933 20.5244 11.2187C20.5194 11.1068 20.5078 10.9933 20.4899 10.8795C20.3095 9.84121 19.621 9.08756 18.8531 9.08756C18.7963 9.08756 18.7391 9.0919 18.6764 9.10146C18.2195 9.17757 17.8612 9.52077 17.6648 10.0073C17.8371 8.93968 18.442 8.14919 19.1596 8.14919C20.0024 8.14919 20.7144 9.28497 20.7144 10.6293C20.7144 10.7987 20.702 10.9672 20.6767 11.1473ZM27.2254 11.9478C27.3026 11.7021 27.3443 11.4363 27.3443 11.1603C27.3443 9.94147 26.571 8.9866 25.5838 8.9866C24.619 8.9866 23.8341 9.96163 23.8341 11.1603C23.8341 11.242 23.8381 11.3238 23.8457 11.4055C23.7946 11.3859 23.7448 11.3667 23.6961 11.3483C23.5851 11.0121 23.5289 10.6612 23.5289 10.3031C23.5289 8.84567 24.4604 7.65985 25.6055 7.65985C26.7505 7.65985 27.6821 8.84567 27.6821 10.3031C27.6821 10.9094 27.5147 11.488 27.2254 11.9478ZM26.3811 14.7845C26.3645 14.8582 26.3294 14.8908 25.9412 15.0928C25.7452 15.1948 25.5013 15.3218 25.1959 15.5077L24.9919 15.6313C24.1721 16.1283 22.2524 17.2924 21.7313 17.3607C21.3773 17.4083 21.1583 17.271 20.6661 16.9365C20.555 16.8609 20.4369 16.7806 20.3109 16.6998C19.4234 16.1175 18.8526 15.4761 18.7881 15.2253C19.0774 15.0017 19.7946 14.442 20.1618 14.1106C20.9071 13.4176 21.6571 12.9519 22.0283 12.9519C22.0479 12.9519 22.0656 12.9533 22.084 12.9568C22.5202 13.0337 23.596 13.4631 24.3818 13.7766C24.745 13.9215 25.0587 14.0467 25.2793 14.1259C25.9746 14.3647 26.3371 14.6701 26.3811 14.7845ZM32.6276 47.1703C33.0198 45.4011 33.4716 42.9944 33.3985 41.5756C33.3816 41.2532 33.3531 40.9024 33.3255 40.5632C33.2739 39.9289 33.1973 38.9862 33.2763 38.7066C33.292 38.6993 33.3093 38.693 33.3286 38.6876C33.3319 39.4988 33.5081 41.1168 34.802 41.681C35.1876 41.8492 35.6283 41.9344 36.1117 41.9344C37.4079 41.9344 38.846 41.2986 39.4351 40.7095C39.782 40.3626 40.0737 39.9383 40.2781 39.6022C40.3228 39.7331 40.3502 39.904 40.3358 40.1244C40.2588 41.3208 40.8402 42.908 41.9468 43.493L42.1079 43.5776C42.502 43.7844 43.5488 44.334 43.5657 44.5947C43.5657 44.5947 43.5568 44.6254 43.4984 44.6796C43.2362 44.9193 42.3133 45.3905 41.4208 45.8463C39.8376 46.6547 38.043 47.571 37.2371 48.4187C36.1024 49.6128 34.8189 50.415 34.0439 50.415C33.9506 50.415 33.8656 50.4032 33.79 50.3792C32.9482 50.1168 32.2554 48.9023 32.6276 47.1703ZM3.93602 42.6569C3.85018 42.2552 3.78241 41.938 3.85522 41.6308C3.90804 41.4032 5.03182 41.1592 5.51178 41.0551C6.18654 40.9086 6.8844 40.7573 7.34073 40.4803C7.95779 40.1065 8.29195 39.4171 8.58667 38.8089C8.80006 38.3691 9.0204 37.9144 9.28263 37.7651C9.2974 37.7564 9.31999 37.7463 9.36308 37.7463C9.85433 37.7463 10.8851 38.779 11.4791 39.7033C11.6298 39.9364 11.9088 40.4033 12.2317 40.9439C13.1974 42.5596 14.5196 44.7726 15.2101 45.5143C15.8324 46.181 16.8398 47.4629 16.592 48.5624C16.4106 49.4154 15.4447 50.1091 15.2169 50.2626C15.1342 50.2813 15.0319 50.2909 14.9114 50.2909C13.5897 50.2909 10.9734 49.1913 9.56778 48.6004L9.35978 48.513C8.57485 48.1839 7.29346 47.9766 6.0543 47.7761C5.06832 47.6164 3.71811 47.3979 3.49429 47.2005C3.31288 46.9971 3.52331 46.3355 3.7089 45.7518C3.84253 45.3323 3.98051 44.8986 4.0561 44.4445C4.16331 43.7202 4.03716 43.1306 3.93602 42.6569Z" fill="black"/>
</svg>
