<svg width="32" height="42" viewBox="0 0 32 42" fill="none" xmlns="http://www.w3.org/2000/svg">
<g clip-path="url(#clip0_2142_15249)">
<path fill-rule="evenodd" clip-rule="evenodd" d="M23.7651 36.3261C21.826 38.4213 19.5678 40.2978 17.0321 41.8153C16.7199 42.0409 16.2967 42.0683 15.9498 41.8495C12.2034 39.5014 9.05721 36.6816 6.58393 33.6156C3.17059 29.3979 1.02339 24.7221 0.287993 20.2172C-0.461276 15.6508 0.239429 11.2553 2.5462 7.68351C3.45504 6.27189 4.6171 4.98674 6.03238 3.8759C9.28615 1.32267 13.0013 -0.0274248 16.706 -8.10077e-05C20.2719 0.0272627 23.7928 1.33634 26.835 4.07414C27.9034 5.03117 28.8018 6.12834 29.5372 7.31779C32.0174 11.3442 32.5516 16.4779 31.4624 21.6801C30.3871 26.8207 27.7161 32.0434 23.7651 36.3158V36.3261ZM15.9983 8.12101C20.3968 8.12101 23.9593 11.6347 23.9593 15.9653C23.9593 20.2992 20.3934 23.8095 15.9983 23.8095C11.5999 23.8095 8.03737 20.2992 8.03737 15.9653C8.0339 11.6313 11.5999 8.12101 15.9983 8.12101Z" fill="black"/>
</g>
<defs>
<clipPath id="clip0_2142_15249">
<rect width="32" height="42" fill="white"/>
</clipPath>
</defs>
</svg>
