<svg width="24" height="25" viewBox="0 0 24 25" fill="none" xmlns="http://www.w3.org/2000/svg">
<path d="M17 11.5518H7C5.89543 11.5518 5 12.4472 5 13.5518V19.5518C5 20.6563 5.89543 21.5518 7 21.5518H17C18.1046 21.5518 19 20.6563 19 19.5518V13.5518C19 12.4472 18.1046 11.5518 17 11.5518Z" stroke="#04091E" stroke-width="1.5" stroke-linecap="round" stroke-linejoin="round"/>
<path d="M12 17.5518C12.5523 17.5518 13 17.104 13 16.5518C13 15.9995 12.5523 15.5518 12 15.5518C11.4477 15.5518 11 15.9995 11 16.5518C11 17.104 11.4477 17.5518 12 17.5518Z" stroke="#04091E" stroke-width="2" stroke-linecap="round" stroke-linejoin="round"/>
<path d="M8 11.5518V7.55176C8 6.49089 8.42143 5.47348 9.17157 4.72333C9.92172 3.97319 10.9391 3.55176 12 3.55176C13.0609 3.55176 14.0783 3.97319 14.8284 4.72333C15.5786 5.47348 16 6.49089 16 7.55176V11.5518" stroke="#04091E" stroke-width="1.5" stroke-linecap="round" stroke-linejoin="round"/>
</svg>
