<svg width="246" height="26" viewBox="0 0 246 26" fill="none" xmlns="http://www.w3.org/2000/svg">
<path d="M0 0H4.82567V26H0V0Z" fill="black"/>
<path d="M9.64746 0H14.4731L38.5898 19.4981V0H43.4154V26H38.5898L14.4731 6.50192V26H9.64746V0Z" fill="black"/>
<path d="M82.0014 26H48.2373V20.7992H77.1796V15.5985H48.2373V0H82.0014V5.20077H53.0591V10.4015H82.0014V26Z" fill="black"/>
<path d="M86.823 0H120.587V5.20077H106.118V26H101.296V5.20077H86.823V0Z" fill="black"/>
<path d="M130.235 26H125.409V0H159.173V26H154.347V15.5985H130.231V26H130.235ZM130.235 10.4015H154.351V5.20077H130.235V10.4015Z" fill="black"/>
<path d="M163.999 0H168.824L192.941 19.4981V0H197.767V26H192.941L168.824 6.50192V26H163.999V0Z" fill="black"/>
<path d="M213.843 20.7991V20.8029L217.058 25.9998H221.88L225.094 20.8029V20.7991H213.843ZM228.305 15.5983H228.312L230.251 12.4663L228.305 15.5983Z" fill="black"/>
<path d="M241.174 0H246V26H241.174V0Z" fill="black"/>
<path opacity="0.57" d="M234.741 5.20484H234.761L236.349 2.64476V2.60254L234.741 5.20484Z" fill="black"/>
<path d="M236.352 2.64069V2.6023L234.741 5.20461H204.122L202.588 2.74048L200.888 0H237.991L236.352 2.64069Z" fill="#52C41A"/>
<path opacity="0.57" d="M231.531 10.4014L230.254 12.4702L231.535 10.4014H231.531ZM228.312 15.5983L230.25 12.4663L228.305 15.5983H228.312ZM207.348 10.4014L210.578 15.5983H210.629L207.414 10.4014H207.348Z" fill="black"/>
<path d="M231.531 10.4014L230.254 12.4702L228.305 15.5983H210.629L207.41 10.4014H231.531Z" fill="#237804"/>
<path opacity="0.57" d="M213.804 20.7993V20.8032H225.098V20.7993H213.804Z" fill="black"/>
<path d="M213.804 20.7993V20.8032L217.034 26.0001H221.883L225.098 20.8032V20.7993H213.804Z" fill="#092B00"/>
</svg>
