<svg width="230" height="25" viewBox="0 0 230 25" fill="none" xmlns="http://www.w3.org/2000/svg">
<g clip-path="url(#clip0_780_16563)">
<path d="M0 0H4.5118V25H0V0Z" fill="white"/>
<path d="M9.01953 0H13.5313L36.0794 18.7482V0H40.5912V25H36.0794L13.5313 6.25185V25H9.01953V0Z" fill="white"/>
<path d="M76.6677 25H45.0996V19.9993H72.1595V14.9985H45.0996V0H76.6677V5.00074H49.6078V10.0015H76.6677V25Z" fill="white"/>
<path d="M81.1758 0H112.744V5.00074H99.2157V25H94.7075V5.00074H81.1758V0Z" fill="white"/>
<path d="M121.764 25H117.252V0H148.82V25H144.308V14.9985H121.76V25H121.764ZM121.764 10.0015H144.312V5.00074H121.764V10.0015Z" fill="white"/>
<path d="M153.332 0H157.844L180.392 18.7482V0H184.904V25H180.392L157.844 6.25185V25H153.332V0Z" fill="white"/>
<path d="M199.935 19.9993V20.003L202.94 25.0001H207.448L210.454 20.003V19.9993H199.935ZM213.455 14.9986H213.463L215.275 11.9871L213.455 14.9986Z" fill="white"/>
<path d="M225.488 0H230V25H225.488V0Z" fill="white"/>
<path opacity="0.57" d="M219.474 5.00441H219.492L220.976 2.54279V2.5022L219.474 5.00441Z" fill="white"/>
<path d="M220.98 2.53912V2.50221L219.474 5.00443H190.846L189.412 2.63508L187.822 0H222.512L220.98 2.53912Z" fill="#52C41A"/>
<path opacity="0.57" d="M216.472 10.0015L215.279 11.9907L216.476 10.0015H216.472ZM213.463 14.9985L215.275 11.987L213.456 14.9985H213.463ZM193.862 10.0015L196.882 14.9985H196.93L193.924 10.0015H193.862Z" fill="white"/>
<path d="M216.472 10.0015L215.278 11.9907L213.455 14.9985H196.929L193.92 10.0015H216.472Z" fill="#237804"/>
<path opacity="0.57" d="M199.898 19.9993V20.003H210.457V19.9993H199.898Z" fill="white"/>
<path d="M199.898 19.9993V20.003L202.918 25H207.452L210.457 20.003V19.9993H199.898Z" fill="#092B00"/>
</g>
<defs>
<clipPath id="clip0_780_16563">
<rect width="230" height="25" fill="white"/>
</clipPath>
</defs>
</svg>
