<svg width="329" height="443" viewBox="0 0 29 43" fill="none" xmlns="http://www.w3.org/2000/svg">
<path d="M15.54 26.4509C15.246 26.4903 14.947 26.4418 14.6807 26.3113C14.4143 26.1808 14.1926 25.9743 14.0436 25.7178C13.8946 25.4614 13.825 25.1665 13.8435 24.8705C13.862 24.5745 13.9679 24.2906 14.1477 24.0548C14.3276 23.8189 14.5733 23.6417 14.8538 23.5454C15.1344 23.4492 15.4371 23.4382 15.7239 23.514C16.0106 23.5898 16.2685 23.7489 16.4648 23.9712C16.6612 24.1935 16.7872 24.469 16.827 24.7629C16.8535 24.9583 16.8412 25.1569 16.7908 25.3475C16.7404 25.5381 16.6529 25.7169 16.5334 25.8737C16.4139 26.0305 16.2646 26.1621 16.0942 26.2612C15.9237 26.3602 15.7354 26.4247 15.54 26.4509Z" fill="black"/>
<path d="M20.106 27.975C20.1059 27.0277 19.9192 26.0898 19.5566 25.2147C19.194 24.3397 18.6625 23.5446 17.9927 22.8749C17.3228 22.2052 16.5275 21.674 15.6524 21.3116C14.7772 20.9493 13.8392 20.7628 12.892 20.763H12.823C12.713 20.763 12.613 20.763 12.506 20.774C12.4757 20.7919 12.4489 20.8153 12.427 20.843C12.4132 20.8591 12.4027 20.8778 12.396 20.898V30.084C12.3966 30.1901 12.3585 30.2928 12.2887 30.3727C12.2189 30.4526 12.1222 30.5043 12.017 30.518C11.9974 30.52 11.9776 30.52 11.958 30.518H11.944C11.9222 30.5171 11.9005 30.5148 11.879 30.511C11.769 30.4988 11.6611 30.4722 11.558 30.432C11.3471 30.3426 11.1647 30.197 11.031 30.011C10.989 29.956 10.945 29.901 10.896 29.842C10.2907 29.1105 9.53485 28.5181 8.68001 28.105C7.79413 27.6781 6.82336 27.4566 5.84001 27.457C5.79201 27.457 5.74001 27.457 5.69201 27.457C4.10802 27.4899 2.59004 28.0976 1.42101 29.167C1.35675 29.2284 1.27288 29.2653 1.18414 29.2711C1.0954 29.2768 1.00747 29.2511 0.935813 29.1984C0.864157 29.1458 0.813365 29.0695 0.792367 28.9831C0.771369 28.8967 0.781509 28.8056 0.821005 28.726C1.86708 26.618 3.39984 24.7892 5.29258 23.3908C7.18533 21.9924 9.3837 21.0646 11.706 20.684C11.772 20.6737 11.8322 20.6404 11.8758 20.5898C11.9194 20.5392 11.9436 20.4747 11.944 20.408V0.968965C11.9435 0.941396 11.9506 0.914226 11.9645 0.890403C11.9784 0.86658 11.9985 0.847014 12.0228 0.833825C12.047 0.820636 12.0743 0.814328 12.1019 0.815587C12.1294 0.816846 12.1561 0.825622 12.179 0.840964C13.605 1.95702 14.7866 3.35411 15.6505 4.94562C16.5144 6.53712 17.0421 8.28911 17.201 10.093C17.211 10.262 17.401 9.87196 17.445 9.70696L19.855 0.951964C19.8619 0.924674 19.8762 0.899836 19.8964 0.880218C19.9166 0.8606 19.9419 0.846973 19.9693 0.840856C19.9968 0.834738 20.0254 0.83637 20.052 0.845571C20.0787 0.854771 20.1022 0.871179 20.12 0.892964C22.0515 3.61326 22.9231 6.94531 22.571 10.263C22.543 10.425 22.805 10.101 22.892 9.96296L26.904 3.34197C26.9182 3.31788 26.9387 3.29819 26.9634 3.28508C26.988 3.27198 27.0159 3.26597 27.0437 3.26774C27.0716 3.2695 27.0985 3.27896 27.1213 3.29506C27.1441 3.31117 27.162 3.33329 27.173 3.35896C27.738 4.69696 29.916 10.825 24.839 15.827C24.729 15.937 18.204 21.138 18.204 21.138H18.187C18.6391 21.2826 19.0822 21.4539 19.514 21.651C21.3478 22.3721 23.0193 23.4515 24.431 24.8262C25.8427 26.2009 26.9662 27.8432 27.7357 29.6572C28.5053 31.4711 28.9055 33.4203 28.9129 35.3907C28.9203 37.3611 28.5348 39.3133 27.779 41.133C27.69 41.35 27.597 41.564 27.497 41.778C27.4511 41.8731 27.3854 41.9574 27.3043 42.0252C27.2232 42.093 27.1286 42.1428 27.0268 42.1712C26.925 42.1996 26.8183 42.2059 26.7139 42.1898C26.6094 42.1738 26.5096 42.1356 26.421 42.078L26.163 41.903C24.2508 40.5883 22.6877 38.8276 21.6088 36.7732C20.53 34.7188 19.9678 32.4325 19.971 30.112C19.971 29.788 19.985 29.464 20.006 29.144V29.137C20.054 28.837 20.06 28.537 20.096 28.23" fill="black"/>
</svg>
