<svg width="54" height="54" viewBox="0 0 54 54" fill="none" xmlns="http://www.w3.org/2000/svg">
<path d="M46.5021 18.9809C42.2253 9.02873 35.3457 1.45793 31.8654 2.87003C25.9551 5.27573 35.3862 16.8128 6.3585 28.6091C3.8502 29.6324 3.2157 33.7067 4.266 36.1475C5.3136 38.5829 8.7426 41.0102 11.2509 39.9923C11.6856 39.8141 13.2786 39.3011 13.2786 39.3011C15.0687 41.7068 16.9425 40.2812 17.6094 41.8067L20.736 48.9887C21.3273 50.3441 22.6665 51.5996 23.6385 51.2297L29.1735 49.1264C30.4371 48.6458 30.7368 47.5172 30.3507 46.6316C29.9349 45.6731 28.2285 45.3923 27.7398 44.2745C27.2538 43.1621 25.6635 39.5819 25.2072 38.4533C24.5862 36.9197 25.9065 35.6696 27.8262 35.4725C41.04 34.0901 43.5105 42.2549 48.0087 40.4243C51.4836 39.0068 50.7762 28.925 46.5021 18.9809ZM45.0144 35.1161C44.2395 35.4266 39.0393 31.3307 35.7183 23.5952C32.3946 15.8651 32.8131 8.79923 33.5853 8.48333C34.3575 8.17283 39.4308 13.1192 42.7518 20.8493C46.0755 28.5794 45.7866 34.8002 45.0144 35.1161Z" fill="#0CAF60"/>
</svg>
