<svg width="11" height="16" viewBox="0 0 11 16" fill="none" xmlns="http://www.w3.org/2000/svg">
<g clip-path="url(#clip0_1830_12812)">
<path fill-rule="evenodd" clip-rule="evenodd" d="M3 3.5C3 2.119 4.1195 1 5.5 1C6.8805 1 8 2.119 8 3.5V8.5C8 9.881 6.8805 11 5.5 11C4.1195 11 3 9.881 3 8.5V3.5ZM5.5 12C7.433 12 9 10.433 9 8.5V3.5C9 1.567 7.433 0 5.5 0C3.567 0 2 1.567 2 3.5V8.5C2 10.433 3.567 12 5.5 12ZM11 9.5H10C9.5445 11.5035 7.641 13 5.5 13C3.359 13 1.4555 11.5035 1 9.5H0C0.4415 11.8995 2.5315 13.755 5 13.9775V15H4.5C4.224 15 4 15.224 4 15.5C4 15.7765 4.224 16 4.5 16H6.5C6.776 16 7 15.7765 7 15.5C7 15.224 6.776 15 6.5 15H6V13.9775C8.4685 13.755 10.5585 11.8995 11 9.5Z" fill="black"/>
</g>
<defs>
<clipPath id="clip0_1830_12812">
<rect width="11" height="16" fill="white"/>
</clipPath>
</defs>
</svg>
