<svg width="95" height="42" viewBox="0 0 95 42" fill="none" xmlns="http://www.w3.org/2000/svg">
<rect width="95" height="41.8106" rx="8" fill="#FFCB05"/>
<path d="M72.7896 35.5516C72.5881 35.5442 72.3891 35.5053 72.1979 35.4357L62.2157 31.8025C61.73 31.6257 61.342 31.2702 61.1237 30.8018C60.9054 30.3333 60.8822 29.8078 61.0592 29.322L69.6201 5.79791C69.9082 5.00609 70.6671 4.4946 71.5086 4.52523C71.7101 4.53264 71.9092 4.57149 72.1004 4.64113L82.0827 8.27428C82.5684 8.45112 82.9564 8.80657 83.1747 9.27502C83.3931 9.74347 83.4162 10.269 83.2392 10.7548L74.6784 34.2789C74.3904 35.0707 73.6311 35.5822 72.7896 35.5516Z" fill="black"/>
<path d="M72.6634 34.7406C72.5981 34.7292 72.5327 34.7116 72.4696 34.6886L62.4871 31.0554C62.201 30.9513 61.9724 30.7421 61.8438 30.4659C61.715 30.1898 61.7016 29.8803 61.8057 29.594L70.3663 6.07041C70.556 5.54924 71.0888 5.24071 71.6337 5.33678C71.6989 5.34823 71.7642 5.36564 71.8274 5.38885L81.81 9.022C82.0961 9.12613 82.3247 9.33537 82.4531 9.61151C82.5821 9.88765 82.5955 10.1973 82.4914 10.4834L73.9308 34.0072C73.741 34.5283 73.2083 34.8367 72.6634 34.7406Z" fill="white"/>
<path d="M69.3472 31.18C69.5698 30.5688 69.2547 29.893 68.6434 29.6705C68.0321 29.4479 67.3562 29.7631 67.1339 30.3743C66.9113 30.9856 67.2265 31.6614 67.8377 31.8838C68.4488 32.1065 69.1248 31.7913 69.3472 31.18Z" fill="black"/>
<path d="M64.1631 26.2159C64.0381 26.5599 64.2154 26.94 64.5592 27.0652L73.447 30.2999C73.7909 30.425 74.1712 30.2478 74.2964 29.904L75.3012 27.1426C76.1832 24.7189 75.2252 22.0101 73.0157 20.6798C70.1092 18.9298 66.3281 20.2669 65.1679 23.455L64.1631 26.2159Z" fill="#FF0000"/>
<path d="M80.9 9.81895L72.0123 6.58413C71.6683 6.45888 71.2882 6.6362 71.1629 6.98004L69.1825 12.4223C68.3005 14.846 69.2585 17.5548 71.468 18.8852C74.3745 20.6351 78.1556 19.298 79.3158 16.1099L81.296 10.6682C81.421 10.3243 81.2438 9.94404 80.9 9.81895Z" fill="black"/>
<path d="M72.9014 4.07299L72.8557 4.01592C72.6282 3.72849 72.3573 3.37467 71.9996 3.45485C71.9404 3.46813 71.8829 3.49065 71.8299 3.52265C69.5822 4.88976 66.7811 4.7291 64.294 3.87116C64.1733 3.82951 64.0519 3.7891 63.9298 3.74994L63.5326 3.62259C63.2802 3.54151 62.999 3.63936 62.8759 3.85101L55.896 15.8265C55.7477 16.081 55.8847 16.3931 56.188 16.4913L56.7022 16.6576C66.5211 19.836 72.5591 23.7079 73.7037 27.56C73.7436 27.6942 73.7718 27.8279 73.8038 27.9531C74.1854 29.4557 74.2086 30.4647 74.154 31.0642C74.1313 31.3137 74.436 31.5664 74.6634 31.4612C74.7448 31.4235 74.8025 31.3484 74.8179 31.2601L75.3689 28.108C75.3794 28.0482 75.4322 28.0052 75.4929 28.0071C75.5487 28.0088 75.5987 27.9724 75.6137 27.9186C75.6446 27.8083 75.6744 27.6977 75.7034 27.5868C75.7326 27.4751 75.927 27.5258 76.0249 27.4645C76.1922 27.3601 77.2171 22.507 77.3414 18.6905C77.5774 12.9779 76.0837 8.05981 72.9014 4.07299Z" fill="white"/>
<path d="M73.3307 6.30401C74.1217 7.55714 71.7002 8.40416 70.5939 7.41824C69.9373 6.83311 69.9597 5.73535 70.7126 5.28073L71.9401 4.5395C71.9857 4.51198 72.0434 4.51802 72.0824 4.55424C72.0869 4.55844 72.0912 4.56298 72.095 4.5678C72.5431 5.12975 72.9549 5.70861 73.3307 6.30401ZM68.221 6.84454C65.7987 5.11314 62.6167 6.39588 61.1174 8.96837C59.0784 12.4668 60.8219 16.906 64.5016 18.5962C70.0868 21.1617 73.8447 24.1264 74.7866 27.2957C74.8215 27.413 74.9969 27.4162 75.0279 27.2977C75.2179 26.5706 75.3708 25.8262 75.482 25.0663C76.5692 17.6392 73.5898 10.6819 68.221 6.84454Z" fill="#00678F"/>
<path d="M65.5314 17.2816C63.0317 16.9566 61.2623 14.6584 61.5873 12.1587C61.9123 9.65875 64.2104 7.88941 66.71 8.21423C69.21 8.53937 70.9792 10.8376 70.6542 13.3374C70.3292 15.8371 68.0312 17.6066 65.5314 17.2816Z" fill="white"/>
<path d="M67.1889 15.3653C66.9123 15.4431 66.6911 15.6757 66.6911 15.9631V16.0722C66.6911 16.3204 66.49 16.5216 66.2418 16.5216C65.9936 16.5216 65.7924 16.3204 65.7924 16.0722V15.948C65.7924 15.658 65.5746 15.4175 65.2926 15.3499C64.833 15.2396 64.4233 15.0636 64.1054 14.8601C63.9314 14.7487 63.8926 14.5199 63.9934 14.3394C64.116 14.1198 64.3977 14.052 64.6211 14.1678C64.7653 14.2425 64.9197 14.3125 65.0845 14.3733C65.4772 14.5184 65.8508 14.1931 65.8508 13.7745C65.8508 13.4423 65.6117 13.1647 65.293 13.0707C64.5487 12.8511 64.02 12.4665 64.02 11.6784C64.02 10.9195 64.4652 10.3563 65.2957 10.1294C65.5726 10.0537 65.7926 9.82072 65.7926 9.5336V9.42347C65.7926 9.1753 65.9938 8.97412 66.242 8.97412C66.4901 8.97412 66.6913 9.1753 66.6913 9.42347V9.54865C66.6913 9.83845 66.9087 10.0786 67.1895 10.1501C67.4756 10.223 67.7305 10.3213 67.9444 10.428C68.0729 10.492 68.1476 10.6265 68.1476 10.77C68.1476 11.0931 67.7852 11.291 67.487 11.1667C67.4034 11.1318 67.3195 11.1007 67.2347 11.073C66.9186 10.9701 66.6247 11.2312 66.6247 11.5636V11.699C66.6247 12.0208 66.855 12.2899 67.1618 12.3868C67.8642 12.6085 68.4221 13.0119 68.4221 13.8338C68.422 14.5874 67.9832 15.1421 67.1889 15.3653ZM65.2469 11.9534C65.5406 12.0991 65.8506 11.8192 65.8506 11.4914C65.8506 11.1838 65.5762 10.9182 65.2984 11.0501C65.0842 11.1519 64.9603 11.3108 64.9603 11.5287C64.9603 11.735 65.0667 11.864 65.2469 11.9534ZM67.4817 13.942C67.4817 13.7489 67.3991 13.6215 67.2489 13.5298C66.9574 13.3517 66.6246 13.6503 66.6246 13.9919C66.6246 14.3133 66.9207 14.595 67.1971 14.431C67.38 14.3224 67.4817 14.1609 67.4817 13.942Z" fill="#00678F"/>
<path d="M70.6254 30.8441C70.5482 30.8159 70.4637 30.8682 70.4581 30.9501C70.4447 31.1469 70.4065 31.3445 70.3354 31.5396C70.2646 31.7343 70.1666 31.9107 70.0504 32.0698C70.002 32.1363 70.0335 32.2306 70.1105 32.2588L72.578 33.1567C72.8384 33.2517 73.1264 33.1174 73.2212 32.8569L73.3927 32.3854C73.4875 32.1249 73.3532 31.837 73.0929 31.7422L70.6254 30.8441Z" fill="black"/>
<path d="M66.3712 29.2956L63.9037 28.3976C63.6434 28.3028 63.3555 28.4371 63.2605 28.6974L63.089 29.1691C62.9942 29.4294 63.1285 29.7175 63.3888 29.8123L65.8565 30.7103C65.9337 30.7384 66.0183 30.6863 66.0238 30.6043C66.0372 30.4074 66.0756 30.2096 66.1463 30.0149C66.2174 29.82 66.3153 29.6438 66.4315 29.4844C66.4797 29.4182 66.4483 29.3237 66.3712 29.2956Z" fill="black"/>
<path d="M8.24609 17.8119C8.24609 16.9826 8.9184 16.3103 9.74774 16.3103V16.3103C10.3571 16.3103 10.9061 16.6785 11.1372 17.2424L13.3837 22.7233C13.3967 22.7549 13.4274 22.7755 13.4615 22.7755V22.7755C13.4956 22.7755 13.5263 22.7549 13.5393 22.7233L15.7858 17.2424C16.0169 16.6785 16.5659 16.3103 17.1753 16.3103V16.3103C18.0046 16.3103 18.6769 16.9826 18.6769 17.8119V24.9463C18.6769 25.4912 18.2352 25.933 17.6902 25.933V25.933C17.1453 25.933 16.7035 25.4912 16.7035 24.9463V19.7174C16.7035 19.6911 16.6822 19.6698 16.6559 19.6698V19.6698C16.6364 19.6698 16.6189 19.6816 16.6117 19.6997L14.3831 25.2627C14.2323 25.6392 13.8675 25.886 13.462 25.886V25.886C13.056 25.886 12.6909 25.6386 12.5404 25.2615L10.3113 19.6762C10.3041 19.6581 10.2866 19.6463 10.2671 19.6463V19.6463C10.2408 19.6463 10.2195 19.6676 10.2195 19.6939V24.9463C10.2195 25.4912 9.77774 25.933 9.2328 25.933V25.933C8.68786 25.933 8.24609 25.4912 8.24609 24.9463V17.8119Z" fill="#00678F"/>
<path d="M29.1959 21.1216C29.1959 22.171 28.997 23.0637 28.5992 23.7998C28.2045 24.5359 27.6657 25.0982 26.9829 25.4866C26.3031 25.8719 25.5388 26.0645 24.6899 26.0645C23.8348 26.0645 23.0674 25.8703 22.3876 25.4819C21.7079 25.0935 21.1707 24.5312 20.776 23.7951C20.3813 23.059 20.184 22.1678 20.184 21.1216C20.184 20.0723 20.3813 19.1795 20.776 18.4434C21.1707 17.7073 21.7079 17.1466 22.3876 16.7613C23.0674 16.3729 23.8348 16.1787 24.6899 16.1787C25.5388 16.1787 26.3031 16.3729 26.9829 16.7613C27.6657 17.1466 28.2045 17.7073 28.5992 18.4434C28.997 19.1795 29.1959 20.0723 29.1959 21.1216ZM27.1332 21.1216C27.1332 20.4419 27.0314 19.8687 26.8278 19.4019C26.6273 18.9352 26.3438 18.5813 25.9774 18.3401C25.6109 18.0989 25.1817 17.9783 24.6899 17.9783C24.1982 17.9783 23.769 18.0989 23.4025 18.3401C23.036 18.5813 22.751 18.9352 22.5474 19.4019C22.3469 19.8687 22.2467 20.4419 22.2467 21.1216C22.2467 21.8013 22.3469 22.3746 22.5474 22.8413C22.751 23.308 23.036 23.662 23.4025 23.9032C23.769 24.1444 24.1982 24.265 24.6899 24.265C25.1817 24.265 25.6109 24.1444 25.9774 23.9032C26.3438 23.662 26.6273 23.308 26.8278 22.8413C27.0314 22.3746 27.1332 21.8013 27.1332 21.1216Z" fill="#00678F"/>
<path d="M30.703 17.8119C30.703 16.9826 31.3753 16.3103 32.2046 16.3103V16.3103C32.814 16.3103 33.3629 16.6785 33.5941 17.2424L35.8406 22.7233C35.8535 22.7549 35.8843 22.7755 35.9184 22.7755V22.7755C35.9525 22.7755 35.9832 22.7549 35.9961 22.7233L38.2427 17.2424C38.4738 16.6785 39.0228 16.3103 39.6321 16.3103V16.3103C40.4615 16.3103 41.1338 16.9826 41.1338 17.8119V24.9463C41.1338 25.4912 40.692 25.933 40.1471 25.933V25.933C39.6022 25.933 39.1604 25.4912 39.1604 24.9463V19.7174C39.1604 19.6911 39.1391 19.6698 39.1128 19.6698V19.6698C39.0933 19.6698 39.0758 19.6816 39.0685 19.6997L36.84 25.2627C36.6891 25.6392 36.3244 25.886 35.9188 25.886V25.886C35.5128 25.886 35.1478 25.6386 34.9973 25.2615L32.7682 19.6762C32.761 19.6581 32.7435 19.6463 32.724 19.6463V19.6463C32.6977 19.6463 32.6764 19.6676 32.6764 19.6939V24.9463C32.6764 25.4912 32.2346 25.933 31.6897 25.933V25.933C31.1447 25.933 30.703 25.4912 30.703 24.9463V17.8119Z" fill="#00678F"/>
<path d="M51.6527 21.1216C51.6527 22.171 51.4538 23.0637 51.056 23.7998C50.6613 24.5359 50.1226 25.0982 49.4397 25.4866C48.76 25.8719 47.9957 26.0645 47.1468 26.0645C46.2917 26.0645 45.5242 25.8703 44.8445 25.4819C44.1648 25.0935 43.6276 24.5312 43.2329 23.7951C42.8382 23.059 42.6409 22.1678 42.6409 21.1216C42.6409 20.0723 42.8382 19.1795 43.2329 18.4434C43.6276 17.7073 44.1648 17.1466 44.8445 16.7613C45.5242 16.3729 46.2917 16.1787 47.1468 16.1787C47.9957 16.1787 48.76 16.3729 49.4397 16.7613C50.1226 17.1466 50.6613 17.7073 51.056 18.4434C51.4538 19.1795 51.6527 20.0723 51.6527 21.1216ZM49.5901 21.1216C49.5901 20.4419 49.4883 19.8687 49.2847 19.4019C49.0842 18.9352 48.8007 18.5813 48.4342 18.3401C48.0677 18.0989 47.6386 17.9783 47.1468 17.9783C46.655 17.9783 46.2259 18.0989 45.8594 18.3401C45.4929 18.5813 45.2079 18.9352 45.0042 19.4019C44.8038 19.8687 44.7035 20.4419 44.7035 21.1216C44.7035 21.8013 44.8038 22.3746 45.0042 22.8413C45.2079 23.308 45.4929 23.662 45.8594 23.9032C46.2259 24.1444 46.655 24.265 47.1468 24.265C47.6386 24.265 48.0677 24.1444 48.4342 23.9032C48.8007 23.662 49.0842 23.308 49.2847 22.8413C49.4883 22.3746 49.5901 21.8013 49.5901 21.1216Z" fill="#00678F"/>
</svg>
