<svg width="110" height="98" viewBox="0 0 110 98" fill="none" xmlns="http://www.w3.org/2000/svg">
<path d="M100.4 27.9002C102.664 27.9002 104.5 26.0646 104.5 23.8002C104.5 21.5358 102.664 19.7002 100.4 19.7002C98.1357 19.7002 96.3 21.5358 96.3 23.8002C96.3 26.0646 98.1357 27.9002 100.4 27.9002Z" fill="#EAEEF9"/>
<path d="M106.4 11.8998C107.946 11.8998 109.2 10.6462 109.2 9.0998C109.2 7.55341 107.946 6.2998 106.4 6.2998C104.854 6.2998 103.6 7.55341 103.6 9.0998C103.6 10.6462 104.854 11.8998 106.4 11.8998Z" fill="#EAEEF9"/>
<path d="M49.2999 96.2996C75.3126 96.2996 96.4 75.2122 96.4 49.1996C96.4 23.187 75.3126 2.09961 49.2999 2.09961C23.2873 2.09961 2.19995 23.187 2.19995 49.1996C2.19995 75.2122 23.2873 96.2996 49.2999 96.2996Z" fill="#F1F3F9" stroke="#D6DCE8" stroke-width="2" stroke-miterlimit="10"/>
<path d="M96.3 49C96.3 63 90.8 75.5 81.1 84.1H2.8C1.8 84.1 1 83.3 1 82.3V17.3C1 16.3 1.8 15.5 2.8 15.5H82C90.8 23.8 96.3 35.8 96.3 49Z" fill="#F1F3F9" stroke="#D6DCE8" stroke-width="2" stroke-miterlimit="10"/>
<path d="M81 83.9998H80.8C82.1 82.7998 83.1 81.5998 84.2 80.2998C83.1 81.6998 82.3 82.8998 81 83.9998Z" fill="#F1F3F9"/>
<path d="M35.1 55.8H3.9C3.4 55.8 3 55.4 3 54.9V32.4C3 31.9 3.4 31.5 3.9 31.5H35.1C35.6 31.5 36 31.9 36 32.4V54.8C36 55.3 35.6 55.8 35.1 55.8Z" fill="white"/>
<path d="M92.1 29.6998H3.9C3.4 29.6998 3 29.2998 3 28.7998V18.1998C3 17.6998 3.4 17.2998 3.9 17.2998H83.9C85.1 18.5998 86.2 19.9998 87.3 21.3998C88.4 22.8998 89.5 24.5998 90.4 26.1998C91 27.3998 91.6 28.4998 92.1 29.6998Z" fill="white"/>
<path d="M90.4001 26.3H76.6001C76.3001 26.3 76.1001 26.1 76.1001 25.8V22C76.1001 21.7 76.3001 21.5 76.6001 21.5H87.2001C88.4001 23 89.4001 24.6 90.4001 26.3Z" fill="#AAB2C5"/>
<path d="M88.0001 24.2998H79.6001C79.3001 24.2998 79.1001 24.0998 79.1001 23.7998C79.1001 23.4998 79.3001 23.2998 79.6001 23.2998H88.0001C88.3001 23.2998 88.5001 23.4998 88.5001 23.7998C88.5001 24.0998 88.3001 24.2998 88.0001 24.2998Z" fill="white"/>
<path d="M69.7001 55.8H38.5001C38.0001 55.8 37.6001 55.4 37.6001 54.9V32.4C37.6001 31.9 38.0001 31.5 38.5001 31.5H69.7001C70.2001 31.5 70.6001 31.9 70.6001 32.4V54.8C70.7001 55.3 70.3001 55.8 69.7001 55.8Z" fill="white"/>
<path d="M95.7 41.7C95.1 38.1 94.2 34.7 92.9 31.5H73.2C72.7 31.5 72.3 31.9 72.3 32.5V54.9C72.3 55.4 72.7 55.8 73.2 55.8H95.8C96.1 53.6 96.3 51.3 96.3 49.1C96.3 47.1 96.2 45.1 95.9 43.1L95.7 41.7Z" fill="white"/>
<path d="M35.1 81.7996H3.9C3.4 81.7996 3 81.3996 3 80.8996V58.4996C3 57.9996 3.4 57.5996 3.9 57.5996H35.1C35.6 57.5996 36 57.9996 36 58.4996V80.8996C36 81.3996 35.6 81.7996 35.1 81.7996Z" fill="white"/>
<path d="M69.7001 81.7996H38.5001C38.0001 81.7996 37.6001 81.3996 37.6001 80.8996V58.4996C37.6001 57.9996 38.0001 57.5996 38.5001 57.5996H69.7001C70.2001 57.5996 70.6001 57.9996 70.6001 58.4996V80.8996C70.7001 81.3996 70.3001 81.7996 69.7001 81.7996Z" fill="white"/>
<path d="M95.5001 57.5996C95.3001 58.7996 95.0001 59.8996 94.7001 60.9996C94.6001 61.3996 94.5001 61.6996 94.4001 62.0996C94.1001 63.1996 93.7001 64.2996 93.3001 65.3996C93.0001 66.1996 92.6001 67.0996 92.3001 67.8996C92.0001 68.4996 91.7001 69.0996 91.4001 69.6996C91.3001 69.9996 91.1001 70.2996 90.9001 70.5996C90.3001 71.6996 89.7001 72.7996 89.0001 73.8996C88.8001 74.1996 88.6001 74.5996 88.3001 74.8996C87.6001 75.8996 86.9001 76.8996 86.2001 77.8996C85.9001 78.2996 85.6001 78.5996 85.3001 78.9996C84.5001 79.9996 83.6001 80.9996 82.7001 81.8996H73.0001C72.5001 81.8996 72.1001 81.4996 72.1001 80.9996V58.4996C72.1001 57.9996 72.5001 57.5996 73.0001 57.5996H95.5001Z" fill="white"/>
<path d="M23.5 70.9002C23.5 71.0002 23.5 71.1002 23.4 71.2002C23.3 71.4002 23.3 71.6002 23.3 71.8002C23.2 71.9002 23.2 72.0002 23.2 72.1002C23.1 72.3002 23.1 72.5002 23 72.6002V72.7002C22.9 72.8002 22.9 72.9002 22.9 72.9002C22.8 73.0002 22.8 73.1002 22.7 73.1002L24.5 74.7002C24.6 74.6002 24.6 74.5002 24.7 74.4002C24.9 74.1002 25.1 73.8002 25.2 73.5002C25.3 73.4002 25.3 73.3002 25.3 73.2002C25.4 72.9002 25.5 72.6002 25.7 72.3002C25.7 72.2002 25.8 72.1002 25.8 72.1002C25.9 71.9002 25.9 71.7002 25.9 71.6002C25.9 71.5002 26 71.4002 26 71.4002C26 71.3002 26 71.2002 26.1 71.2002V71.1002C26.1 71.0002 26.1 70.9002 26.1 70.9002H23.5ZM18.4 75.4002C15.6 75.4002 13.2 73.1002 13.2 70.3002C13.2 67.6002 15.2 65.5002 17.7 65.2002V62.8002C13.9 63.1002 10.8 66.4002 10.8 70.4002C10.8 74.6002 14.2 78.0002 18.4 78.0002C20.5 78.0002 22.4 77.2002 23.7 75.8002L21.9 74.1002C21 75.0002 19.7 75.4002 18.4 75.4002ZM19 62.7002V65.1002C21.4 65.4002 23.2 67.2002 23.5 69.5002H26C25.7 65.9002 22.7 63.0002 19 62.7002Z" fill="#F1F3F9"/>
<path d="M26.0001 69.5998H23.6001C23.3001 67.1998 21.4001 65.3998 19.1001 65.1998V62.7998C22.7001 62.9998 25.7001 65.8998 26.0001 69.5998Z" fill="#AAB2C5"/>
<path d="M26 70.9004C26 71.0004 26 71.1004 26 71.1004V71.2004C26 71.3004 25.9999 71.4004 25.9 71.4004C25.9 71.5004 25.8999 71.6004 25.7999 71.6004C25.6999 71.8004 25.7 72.0004 25.7 72.1004C25.7 72.2004 25.6 72.3004 25.6 72.3004C25.5 72.6004 25.4 72.9004 25.2 73.2004C25.1 73.3004 25.1 73.4004 25.1 73.5004C25 73.8004 24.8 74.1004 24.6 74.4004C24.5 74.5004 24.5 74.6004 24.4 74.7004L22.7 73.1004C22.8 73.0004 22.8 72.9004 22.9 72.9004C23 72.8004 23 72.7004 23 72.7004V72.6004C23.1 72.4004 23.2 72.2004 23.2 72.1004C23.3 72.0004 23.2999 71.9004 23.2999 71.8004C23.3999 71.6004 23.4 71.4004 23.4 71.2004C23.4 71.1004 23.5 71.0004 23.5 70.9004H26Z" fill="#D6DCE8"/>
<path d="M95.9 42.9996C95.9 42.5996 95.8 42.1996 95.7 41.6996L90.4 46.9996C90.2 46.8996 89.9 46.7996 89.7 46.7996C89.5 46.7996 89.2 46.8996 89 46.9996L84.2 42.1996C84.3 41.9996 84.3 41.8996 84.3 41.5996C84.3 40.6996 83.6 40.0996 82.8 40.0996C82 40.0996 81.3 40.7996 81.3 41.5996C81.3 41.7996 81.3 41.9996 81.4 42.1996L77.3 46.0996C77.1 45.9996 76.9 45.9996 76.7 45.9996C75.8 45.9996 75.2 46.6996 75.2 47.4996C75.2 48.2996 75.9 48.9996 76.7 48.9996C77.5 48.9996 78.2 48.2996 78.2 47.4996C78.2 47.2996 78.1 47.0996 78 46.8996L81.9 42.8996C82.2 42.9996 82.3 43.0996 82.5 43.0996C82.7 43.0996 83 42.9996 83.1 42.8996L87.9 47.6996C87.8 47.8996 87.8 47.9996 87.8 48.1996C87.8 49.0996 88.5 49.6996 89.3 49.6996C90.2 49.6996 90.8 48.9996 90.8 48.1996C90.8 47.9996 90.8 47.8996 90.7 47.6996L95.9 42.9996ZM76.8 48.3996C76.4 48.3996 76.1 48.0996 76.1 47.6996C76.1 47.2996 76.4 46.9996 76.8 46.9996C77.2 46.9996 77.5 47.2996 77.5 47.6996C77.5 47.9996 77.2 48.3996 76.8 48.3996ZM82.8 42.2996C82.4 42.2996 82.1 41.9996 82.1 41.5996C82.1 41.1996 82.4 40.8996 82.8 40.8996C83.2 40.8996 83.5 41.1996 83.5 41.5996C83.5 41.9996 83.3 42.2996 82.8 42.2996ZM89.8 49.0996C89.4 49.0996 89.1 48.7996 89.1 48.3996C89.1 47.9996 89.4 47.6996 89.8 47.6996C90.2 47.6996 90.5 47.9996 90.5 48.3996C90.6 48.7996 90.3 49.0996 89.8 49.0996Z" fill="#D6DCE8"/>
<path d="M43.5999 47.7996H42.1999C42.0999 47.7996 41.8999 47.5996 41.8999 47.4996V39.8996C41.8999 39.6996 41.9999 39.5996 42.1999 39.5996H43.5999C43.6999 39.5996 43.8999 39.7996 43.8999 39.8996V47.4996C43.7999 47.5996 43.6999 47.7996 43.5999 47.7996Z" fill="#AAB2C5"/>
<path d="M44.3999 47.7994H42.7999C42.6999 47.7994 42.5999 47.6994 42.5999 47.5994V44.0994C42.5999 43.8994 42.6999 43.8994 42.7999 43.8994H44.3999C44.4999 43.8994 44.5999 43.9994 44.5999 44.0994V47.5994C44.5999 47.6994 44.4999 47.7994 44.3999 47.7994Z" fill="#D6DCE8"/>
<path d="M47.2 47.7994H45.8C45.7 47.7994 45.5 47.5994 45.5 47.4994V42.1994C45.5 41.9994 45.6 41.8994 45.8 41.8994H47.2C47.3 41.8994 47.5 42.0994 47.5 42.1994V47.4994C47.5 47.5994 47.3 47.7994 47.2 47.7994Z" fill="#AAB2C5"/>
<path d="M50.7999 47.7998H49.3999C49.2999 47.7998 49.0999 47.5998 49.0999 47.4998V44.0998C49.0999 43.8998 49.1999 43.7998 49.3999 43.7998H50.7999C50.8999 43.7998 51.0999 43.9998 51.0999 44.0998V47.3998C51.0999 47.5998 50.8999 47.7998 50.7999 47.7998Z" fill="#AAB2C5"/>
<path d="M54.4 47.7994H53C52.9 47.7994 52.7 47.5994 52.7 47.4994V41.1994C52.7 40.9994 52.8 40.8994 53 40.8994H54.4C54.5 40.8994 54.7 41.0994 54.7 41.1994V47.4994C54.7 47.5994 54.6 47.7994 54.4 47.7994Z" fill="#AAB2C5"/>
<path d="M58.0999 47.7994H56.6999C56.5999 47.7994 56.3999 47.5994 56.3999 47.4994V43.6994C56.3999 43.4994 56.4999 43.3994 56.6999 43.3994H58.0999C58.1999 43.3994 58.3999 43.5994 58.3999 43.6994V47.4994C58.3999 47.5994 58.2999 47.7994 58.0999 47.7994Z" fill="#AAB2C5"/>
<path d="M61.7 47.7994H60.3C60.2 47.7994 60 47.5994 60 47.4994V42.1994C60 41.9994 60.1 41.8994 60.3 41.8994H61.7C61.8 41.8994 62 42.0994 62 42.1994V47.4994C62 47.5994 61.9 47.7994 61.7 47.7994Z" fill="#AAB2C5"/>
<path d="M65.4 47.7998H64C63.9 47.7998 63.7 47.5998 63.7 47.4998V44.0998C63.7 43.8998 63.8 43.7998 64 43.7998H65.4C65.5 43.7998 65.6999 43.9998 65.6999 44.0998V47.3998C65.5999 47.5998 65.5 47.7998 65.4 47.7998Z" fill="#AAB2C5"/>
<path d="M48 47.7998H46.2999C46.1999 47.7998 46.2 47.6998 46.2 47.5998V45.4998C46.2 45.3998 46.2999 45.2998 46.2999 45.2998H48C48.1 45.2998 48.0999 45.3998 48.0999 45.4998V47.5998C48.1999 47.6998 48.1 47.7998 48 47.7998Z" fill="#D6DCE8"/>
<path d="M51.6999 47.7994H49.9999C49.8999 47.7994 49.8999 47.6994 49.8999 47.5994V46.5994C49.8999 46.4994 49.9999 46.3994 49.9999 46.3994H51.6999C51.7999 46.3994 51.7999 46.4994 51.7999 46.5994V47.5994C51.7999 47.6994 51.7999 47.7994 51.6999 47.7994Z" fill="#D6DCE8"/>
<path d="M55.3 47.7994H53.6C53.5 47.7994 53.5 47.6994 53.5 47.5994V46.0994C53.5 45.9994 53.6 45.8994 53.6 45.8994H55.3C55.4 45.8994 55.4 45.9994 55.4 46.0994V47.5994C55.5 47.6994 55.5 47.7994 55.3 47.7994Z" fill="#D6DCE8"/>
<path d="M58.9998 47.7992H57.3998C57.2998 47.7992 57.2998 47.6992 57.2998 47.5992V44.8992C57.2998 44.7992 57.3998 44.6992 57.3998 44.6992H58.9998C59.0998 44.6992 59.0998 44.7992 59.0998 44.8992V47.5992C59.1998 47.6992 59.0998 47.7992 58.9998 47.7992Z" fill="#D6DCE8"/>
<path d="M62.7999 47.7996H60.9999C60.8999 47.7996 60.8999 47.7996 60.8999 47.6996V47.1996C60.8999 47.0996 60.8999 47.0996 60.9999 47.0996H62.7999C62.8999 47.0996 62.8999 47.0996 62.8999 47.1996V47.5996C62.8999 47.6996 62.8999 47.7996 62.7999 47.7996Z" fill="#D6DCE8"/>
<path d="M66.4 47.7994H64.6C64.6 47.7994 64.5 47.7994 64.5 47.6994V47.4994C64.5 47.4994 64.5 47.3994 64.6 47.3994H66.4C66.4 47.3994 66.5 47.3994 66.5 47.4994L66.4 47.7994C66.5 47.6994 66.4 47.7994 66.4 47.7994Z" fill="#D6DCE8"/>
<path d="M68 60.7998H40.3V64.4998H68V60.7998Z" fill="#F1F3F9"/>
<path d="M56.4001 62H48.8V63.1H56.4001V62Z" fill="#D6DCE8"/>
<path d="M66 62H63.3V63.1H66V62Z" fill="#D6DCE8"/>
<path d="M68 67.7998H40.3V71.4998H68V67.7998Z" fill="#F1F3F9"/>
<path d="M54.1 69.0996H48.8V70.1996H54.1V69.0996Z" fill="#D6DCE8"/>
<path d="M66 69.0996H61.3V70.1996H66V69.0996Z" fill="#D6DCE8"/>
<path d="M68 74.9004H40.3V78.6004H68V74.9004Z" fill="#F1F3F9"/>
<path d="M57.6 76.2002H48.8V77.3002H57.6V76.2002Z" fill="#D6DCE8"/>
<path d="M66 76.2002H64.5V77.3002H66V76.2002Z" fill="#D6DCE8"/>
<path d="M10.4 22.2002H6.19995C5.89995 22.2002 5.69995 21.9002 5.69995 21.7002V21.2002C5.69995 20.9002 5.99995 20.7002 6.19995 20.7002H10.4C10.7 20.7002 10.9 21.0002 10.9 21.2002V21.7002C10.9 21.9002 10.7 22.2002 10.4 22.2002Z" fill="#D6DCE8"/>
<path d="M39.3 22.2002H14.5C14.2 22.2002 14 21.9002 14 21.7002V21.2002C14 20.9002 14.3 20.7002 14.5 20.7002H39.3C39.6 20.7002 39.8 21.0002 39.8 21.2002V21.7002C39.8 21.9002 39.6 22.2002 39.3 22.2002Z" fill="#F1F3F9"/>
<path d="M10.4 26.2998H6.19995C5.89995 26.2998 5.69995 25.9998 5.69995 25.7998V25.2998C5.69995 24.9998 5.99995 24.7998 6.19995 24.7998H10.4C10.7 24.7998 10.9 25.0998 10.9 25.2998V25.7998C10.9 26.0998 10.7 26.2998 10.4 26.2998Z" fill="#D6DCE8"/>
<path d="M27.8 25.7998C27.8 26.0998 27.5 26.2998 27.3 26.2998H14.5C14.2 26.2998 14 25.9998 14 25.7998V25.2998C14 24.9998 14.3 24.7998 14.5 24.7998H27.3C27.6 24.7998 27.8 25.0998 27.8 25.2998V25.7998Z" fill="#F1F3F9"/>
<path d="M32.5 52.8002H5.69995V36.2002C7.09995 36.3002 8.49995 36.4002 9.79995 36.8002C10.4 37.0002 10.8 37.2002 11.2 37.6002C11.4 37.8002 11.4 37.9002 11.4 38.0002C11.6 38.5002 12 38.8002 12.7 38.9002L13.3 39.0002C14.5 39.1002 15.4 39.8002 15.5 40.6002L15.7 42.0002C17 42.3002 17.1 42.3002 18.3 42.6002C18.5 42.7002 18.5 42.6002 18.6 42.5002C18.7 42.4002 18.8 42.4002 18.9 42.4002C19.1 42.4002 19.1 42.4002 19.3 42.3002C19.5 42.2002 19.7 42.2002 19.8 42.4002C20.3 43.1002 21.3 43.5002 21.9 44.1002C22.6 44.8002 23.8 44.7002 24.6 44.7002C24.8 44.7002 25.0999 44.8002 25.2999 44.9002C26.2999 45.6002 27.9 47.9002 29.2 47.9002C29.7 47.9002 30.1 48.1002 30.4 48.3002C31.5 49.8002 32.2 51.2002 32.5 52.8002Z" fill="#F1F3F9"/>
<path d="M31.7999 53C31.5 51.5 30.8 50.3 29.7 49C29.6 48.9 29.2999 48.8 29 48.8C27.7999 48.8 26.7999 47.7 25.7999 46.7C25.4 46.3 25 45.9 24.7 45.7C24.6 45.6 24.4 45.6 24.4 45.6C24.2 45.6 24.1 45.6 23.9 45.6C23.1 45.6 22 45.5 21.2 44.8C21 44.5 20.7 44.3 20.3 44.1C19.9 43.8 19.5 43.6 19.2 43.2C19.1 43.2 18.9 43.2 18.8 43.2C18.7 43.3 18.3 43.5 17.8 43.3L17.2 43.1C16.6 43 16.3 42.9 15.3 42.7H15L14.8 40.8C14.8 40.3 14.1 39.9 13.3 39.8L12.7 39.7C11.8 39.6 11 39.1 10.8 38.3V38.2C10.5 37.9 10.2 37.7 9.79995 37.6C8.39995 37.1 6.99995 37 5.69995 37L5.79995 35.5C7.19995 35.6 8.69995 35.7 10.1 36.2C10.8 36.4 11.4 36.8 11.8 37.3C11.9 37.4 12.1 37.7 12.2 38.1C12.3 38.3 12.5 38.4 12.8 38.4L13.4 38.5C15 38.6 16.1 39.6 16.3 40.8L16.4 41.6C17 41.7 17.3 41.8 17.8 41.9L18.4 42C18.6 41.9 18.8 41.8 19 41.8C19.1 41.8 19.1 41.8 19.2 41.8C19.7 41.6 20.3 41.8 20.6 42.2C20.8 42.4 21.2 42.7 21.5 42.9C21.9 43.2 22.3 43.4 22.6 43.8C22.9 44.1 23.5999 44.1 24.2999 44.2C24.5 44.2 24.5999 44.2 24.7999 44.2C25.1999 44.2 25.5 44.4 25.7999 44.5L25.9 44.6C26.3 44.9 26.8 45.3 27.2 45.8C27.8 46.5 28.7999 47.4 29.2999 47.4C29.9 47.4 30.5 47.6 31 48C32.4 49.5 33.2 51 33.5 52.8L31.7999 53Z" fill="#D6DCE8"/>
<path d="M31.4 42.7002H19.6C19.1 42.7002 18.7 42.3002 18.7 41.8002V37.6002C18.7 37.1002 19.1 36.7002 19.6 36.7002H31.4C31.9 36.7002 32.2999 37.1002 32.2999 37.6002V41.8002C32.2999 42.3002 31.9 42.7002 31.4 42.7002Z" fill="#AAB2C5"/>
<path d="M29.8999 38.4004H21.1999C20.9999 38.4004 20.8999 38.6004 20.8999 38.7004C20.8999 38.9004 21.0999 39.0004 21.1999 39.0004H29.8999C30.0999 39.0004 30.1999 38.8004 30.1999 38.7004C30.1999 38.6004 29.9999 38.4004 29.8999 38.4004Z" fill="white"/>
<path d="M25.8 40.4004H21.1C20.9 40.4004 20.8 40.6004 20.8 40.7004C20.8 40.8004 21 41.0004 21.1 41.0004H25.8C26 41.0004 26.1 40.8004 26.1 40.7004C26.1 40.6004 25.9 40.4004 25.8 40.4004Z" fill="white"/>
<path d="M83.9 69.6H76V66.3H83.9V69.6ZM76.1 70.6H84V73.9H76.1V70.6ZM76.7 62.1H84V65.5H76.1V62.8C76.1 62.3 76.4 62.1 76.7 62.1ZM76.1 77.2V74.8H84V77.8H76.7C76.4 77.9 76.1 77.6 76.1 77.2ZM94.4 62.1C94.5 61.7 94.6 61.4 94.7 61H76.7C75.8 61 75.2 61.8 75.2 62.7V77.2C75.2 78.1 75.9 78.9 76.7 78.9H85.5C85.8 78.5 86.1 78.2 86.4 77.8H85V74.8H88.5C88.7 74.5 88.9 74.1 89.2 73.8H85V70.5H91C91.2 70.2 91.3 69.9 91.5 69.6H85V66.3H92.4V67.7C92.8 66.9 93.1 66 93.4 65.2H93.3V62.1H94.4ZM92.3 65.4H85V62.1H92.4V65.4H92.3Z" fill="#F1F3F9"/>
<path d="M79.5 13C89.9 21.6 96.5 34.6 96.5 49.2C96.5 64 89.7 77.2 79 85.8" stroke="#D6DCE8" stroke-width="2" stroke-miterlimit="10"/>
<path d="M7.39995 10.4C10.2718 10.4 12.6 8.07189 12.6 5.2C12.6 2.32812 10.2718 0 7.39995 0C4.52807 0 2.19995 2.32812 2.19995 5.2C2.19995 8.07189 4.52807 10.4 7.39995 10.4Z" fill="#EAEEF9"/>
</svg>
