<svg width="42" height="42" viewBox="0 0 42 42" fill="none" xmlns="http://www.w3.org/2000/svg">
<g clip-path="url(#clip0_600_4132)">
<path d="M3.5 35H38.5V38.5H3.5V35ZM7 21H10.5V33.25H7V21ZM15.75 21H19.25V33.25H15.75V21ZM22.75 21H26.25V33.25H22.75V21ZM31.5 21H35V33.25H31.5V21ZM3.5 12.25L21 3.5L38.5 12.25V19.25H3.5V12.25ZM21 14C21.4641 14 21.9092 13.8156 22.2374 13.4874C22.5656 13.1592 22.75 12.7141 22.75 12.25C22.75 11.7859 22.5656 11.3408 22.2374 11.0126C21.9092 10.6844 21.4641 10.5 21 10.5C20.5359 10.5 20.0908 10.6844 19.7626 11.0126C19.4344 11.3408 19.25 11.7859 19.25 12.25C19.25 12.7141 19.4344 13.1592 19.7626 13.4874C20.0908 13.8156 20.5359 14 21 14Z" fill="#290CDD"/>
</g>
<defs>
<clipPath id="clip0_600_4132">
<rect width="42" height="42" fill="white"/>
</clipPath>
</defs>
</svg>
