<svg width="34" height="48" viewBox="0 0 34 48" fill="none" xmlns="http://www.w3.org/2000/svg">
<path d="M3.00033 0.666504H31.0003C31.6192 0.666504 32.2127 0.912336 32.6502 1.34992C33.0878 1.78751 33.3337 2.381 33.3337 2.99984V44.9998C33.3337 45.6187 33.0878 46.2122 32.6502 46.6498C32.2127 47.0873 31.6192 47.3332 31.0003 47.3332H3.00033C2.38149 47.3332 1.78799 47.0873 1.35041 46.6498C0.912825 46.2122 0.666992 45.6187 0.666992 44.9998V2.99984C0.666992 2.381 0.912825 1.78751 1.35041 1.34992C1.78799 0.912336 2.38149 0.666504 3.00033 0.666504ZM17.0003 35.6665C16.3815 35.6665 15.788 35.9123 15.3504 36.3499C14.9128 36.7875 14.667 37.381 14.667 37.9998C14.667 38.6187 14.9128 39.2122 15.3504 39.6498C15.788 40.0873 16.3815 40.3332 17.0003 40.3332C17.6192 40.3332 18.2127 40.0873 18.6502 39.6498C19.0878 39.2122 19.3337 38.6187 19.3337 37.9998C19.3337 37.381 19.0878 36.7875 18.6502 36.3499C18.2127 35.9123 17.6192 35.6665 17.0003 35.6665Z" fill="black"/>
</svg>
