<svg width="24" height="25" viewBox="0 0 24 25" fill="none" xmlns="http://www.w3.org/2000/svg">
<path d="M17 17.5518H19C19.5304 17.5518 20.0391 17.341 20.4142 16.966C20.7893 16.5909 21 16.0822 21 15.5518V11.5518C21 11.0213 20.7893 10.5126 20.4142 10.1375C20.0391 9.76247 19.5304 9.55176 19 9.55176H5C4.46957 9.55176 3.96086 9.76247 3.58579 10.1375C3.21071 10.5126 3 11.0213 3 11.5518V15.5518C3 16.0822 3.21071 16.5909 3.58579 16.966C3.96086 17.341 4.46957 17.5518 5 17.5518H7" stroke="#04091E" stroke-width="1.5" stroke-linecap="round" stroke-linejoin="round"/>
<path d="M17 9.55176V5.55176C17 5.02132 16.7893 4.51262 16.4142 4.13754C16.0391 3.76247 15.5304 3.55176 15 3.55176H9C8.46957 3.55176 7.96086 3.76247 7.58579 4.13754C7.21071 4.51262 7 5.02132 7 5.55176V9.55176" stroke="#04091E" stroke-width="1.5" stroke-linecap="round" stroke-linejoin="round"/>
<path d="M15 13.5518H9C7.89543 13.5518 7 14.4472 7 15.5518V19.5518C7 20.6563 7.89543 21.5518 9 21.5518H15C16.1046 21.5518 17 20.6563 17 19.5518V15.5518C17 14.4472 16.1046 13.5518 15 13.5518Z" stroke="#04091E" stroke-width="1.5" stroke-linecap="round" stroke-linejoin="round"/>
</svg>
