<svg width="44" height="48" viewBox="0 0 44 48" fill="none" xmlns="http://www.w3.org/2000/svg">
<path fill-rule="evenodd" clip-rule="evenodd" d="M29.2503 10.5496C30.4932 11.2882 31.6129 12.2205 32.5681 13.312C33.5097 14.3834 34.2654 15.608 34.8031 16.934C35.1046 17.685 35.3438 18.4599 35.5184 19.2509C35.9137 21.0494 35.9453 22.9099 35.6112 24.721C35.4271 25.6974 35.1474 26.6528 34.776 27.5732L34.7335 27.6709C33.9601 29.6245 32.5758 31.5156 31.2533 33.3832C30.5805 34.3287 29.9116 35.2626 29.3509 36.169C29.1744 36.451 28.9254 36.6792 28.6305 36.8293C28.3356 36.9793 28.0058 37.0455 27.6765 37.0208L17.0351 38.6188C16.5962 38.6833 16.1491 38.5835 15.7781 38.3381C15.407 38.0927 15.1375 37.7187 15.0204 37.2865C14.7559 36.5055 14.4287 35.7476 14.0421 35.0203C13.7211 34.395 13.332 33.8079 12.8821 33.2699C12.333 32.6369 11.7723 31.9883 11.2155 31.2577C10.5943 30.4124 10.0581 29.5067 9.61463 28.5539C9.14832 27.5524 8.78549 26.5049 8.53193 25.4282C8.28026 24.3503 8.15694 23.2458 8.16458 22.1383C8.17578 20.9869 8.32774 19.8412 8.617 18.7274C8.92591 17.5319 9.36828 16.3758 9.93558 15.2812L10.0129 15.1406C10.7441 13.8712 11.6724 12.7288 12.7622 11.757C13.8446 10.8011 15.0769 10.0339 16.4086 9.48689L16.5208 9.44391C17.5159 9.04431 18.5542 8.76496 19.6142 8.61168C20.7352 8.45267 21.8707 8.42645 22.9977 8.53354C24.0977 8.63466 25.1831 8.85874 26.2342 9.20167C27.2867 9.53455 28.2985 9.98675 29.2503 10.5496ZM27.75 44.6789C27.1669 45.6947 26.3329 46.5402 25.3294 47.1326C24.4809 47.6319 23.529 47.9249 22.5491 47.9882C21.5646 48.0517 20.5805 47.8579 19.6916 47.4256C19.055 47.1088 18.481 46.6771 17.9979 46.1519L27.75 44.6789ZM28.678 39.1658V39.8105V40.0332C28.707 40.456 28.707 40.8803 28.678 41.3031L28.4847 42.233L16.6677 44.0068L16.4628 43.5301L16.0026 41.6234V41.0686L28.6471 39.1658H28.678ZM21.7178 1.45764C21.7289 1.06244 21.894 0.687651 22.1771 0.414751C22.4602 0.14185 22.8385 -0.00710656 23.2297 0.00026084H23.3302C23.6939 0.032987 24.0334 0.198244 24.2853 0.465215C24.5516 0.748671 24.6985 1.12548 24.6952 1.51625C24.6972 1.54225 24.6972 1.56838 24.6952 1.59439L24.614 4.79437C24.6159 4.8282 24.6159 4.86212 24.614 4.89596C24.5855 5.27421 24.4151 5.62718 24.1377 5.88279C23.8603 6.1384 23.4968 6.27736 23.1214 6.27128H23.017C22.6546 6.24402 22.3154 6.08099 22.0658 5.81414C21.7979 5.53017 21.6508 5.15147 21.6559 4.7592C21.6539 4.7332 21.6539 4.70707 21.6559 4.68106L21.7332 1.46936L21.7178 1.45764ZM5.41527 7.07225C5.12956 6.79987 4.96031 6.42559 4.94352 6.02904C4.93471 5.83153 4.96473 5.63421 5.03183 5.44849C5.09893 5.26277 5.20179 5.09232 5.33446 4.947C5.46713 4.80168 5.62699 4.68437 5.8048 4.60183C5.9826 4.5193 6.17483 4.47319 6.37038 4.46617C6.76198 4.44949 7.14422 4.58994 7.43375 4.85688L9.80798 7.0957C10.0953 7.36643 10.2651 7.74096 10.2803 8.13764C10.2955 8.53433 10.1549 8.921 9.88918 9.21339C9.61842 9.50266 9.24658 9.6737 8.85287 9.69006C8.46246 9.70655 8.08149 9.56606 7.79336 9.29935L5.41527 7.07225ZM1.54846 23.5684C1.35242 23.5757 1.15687 23.5439 0.973004 23.4748C0.789137 23.4057 0.620556 23.3006 0.476903 23.1656C0.33325 23.0306 0.217341 22.8683 0.135807 22.688C0.0542731 22.5078 0.00871244 22.313 0.0017309 22.1149C-0.00772102 21.9188 0.0216074 21.7228 0.0880014 21.5383C0.154395 21.3538 0.256523 21.1846 0.388412 21.0404C0.521867 20.8969 0.682181 20.7815 0.860067 20.7011C1.03795 20.6206 1.22988 20.5766 1.42472 20.5716L4.66511 20.4622C4.86121 20.4533 5.0571 20.4838 5.2414 20.5521C5.4257 20.6204 5.59472 20.725 5.73864 20.8599C5.88257 20.9948 5.99852 21.1573 6.07975 21.3378C6.16098 21.5184 6.20588 21.7135 6.21184 21.9117V21.9352V21.9899C6.20781 22.3586 6.07025 22.713 5.82516 22.9862C5.68891 23.1295 5.52565 23.2437 5.34502 23.3222C5.16438 23.4007 4.97002 23.4419 4.77338 23.4433H4.71538L1.51366 23.5527L1.54846 23.5684ZM42.382 18.9227H42.4323C42.803 18.9001 43.1685 19.0186 43.457 19.2548C43.7611 19.508 43.9553 19.8711 43.9984 20.2668C43.9984 20.2668 43.9984 20.3059 43.9984 20.3137C44.0162 20.6966 43.8883 21.0719 43.6409 21.3625C43.3936 21.6531 43.0455 21.8371 42.6682 21.8766L39.4432 22.2712C39.0521 22.3116 38.661 22.1937 38.3559 21.9432C38.0507 21.6926 37.8563 21.3301 37.8153 20.9349C37.7753 20.5391 37.8926 20.1434 38.1413 19.8349C38.3901 19.5264 38.7499 19.3304 39.1416 19.29C40.2166 19.1728 41.2993 19.0478 42.3782 18.9423L42.382 18.9227ZM35.9941 5.88057C36.1016 5.71669 36.2402 5.57597 36.4019 5.46653C36.5636 5.35709 36.7451 5.28111 36.9361 5.24296C37.127 5.20482 37.3235 5.20527 37.5142 5.24429C37.7049 5.28331 37.8861 5.36013 38.0473 5.47031C38.2085 5.5795 38.3466 5.72003 38.4535 5.88372C38.5604 6.0474 38.634 6.23095 38.6699 6.42366C38.7451 6.81344 38.666 7.21749 38.4495 7.54893L36.6437 10.284C36.4222 10.6135 36.0802 10.8406 35.6929 10.9153C35.3057 10.9901 34.9049 10.9063 34.5788 10.6825C34.2527 10.4587 34.0279 10.1131 33.9539 9.72181C33.88 9.33053 33.9629 8.92558 34.1844 8.59605L35.9941 5.86103V5.88057ZM23.6898 21.4546H25.9674C26.0456 21.4546 26.123 21.4701 26.1953 21.5004C26.2675 21.5306 26.3332 21.5749 26.3885 21.6308C26.4438 21.6867 26.4876 21.753 26.5176 21.826C26.5475 21.899 26.5629 21.9773 26.5629 22.0563C26.5627 22.1758 26.5277 22.2927 26.4624 22.3923L21.0488 31.7422C21.0087 31.8099 20.9557 31.8689 20.8928 31.9159C20.83 31.9628 20.7586 31.9967 20.6828 32.0156C20.6069 32.0345 20.5281 32.038 20.4509 32.0259C20.3737 32.0139 20.2996 31.9865 20.2329 31.9454C20.1273 31.881 20.0439 31.7854 19.9941 31.6714C19.9443 31.5574 19.9304 31.4307 19.9545 31.3085L20.7549 25.5727L18.0482 25.6196C17.9701 25.6212 17.8926 25.6071 17.82 25.5783C17.7474 25.5494 17.6811 25.5063 17.625 25.4515C17.569 25.3966 17.5242 25.3311 17.4933 25.2587C17.4624 25.1864 17.4459 25.1085 17.4449 25.0296C17.4415 24.9185 17.4697 24.8087 17.5261 24.7132L22.8585 15.3672C22.9397 15.2307 23.0709 15.132 23.2236 15.0925C23.3763 15.053 23.5382 15.0759 23.6744 15.1562C23.7791 15.2138 23.864 15.3021 23.9179 15.4096C23.9718 15.5171 23.992 15.6385 23.976 15.7579L23.7053 21.4546H23.6898Z" fill="black"/>
</svg>
