<svg width="48" height="55" viewBox="0 0 48 55" fill="none" xmlns="http://www.w3.org/2000/svg">
<path d="M24 31.8103C26.2091 31.8103 28 29.7758 28 27.266C28 24.7562 26.2091 22.7217 24 22.7217C21.7909 22.7217 20 24.7562 20 27.266C20 29.7758 21.7909 31.8103 24 31.8103Z" stroke="black" stroke-width="3" stroke-linecap="round" stroke-linejoin="round"/>
<path d="M32.48 17.6319C33.5957 18.898 34.4808 20.4016 35.0847 22.0566C35.6886 23.7116 35.9994 25.4856 35.9994 27.2772C35.9994 29.0688 35.6886 30.8428 35.0847 32.4978C34.4808 34.1528 33.5957 35.6564 32.48 36.9225M15.52 36.8998C14.4043 35.6336 13.5192 34.1301 12.9153 32.4751C12.3114 30.82 12.0006 29.046 12.0006 27.2545C12.0006 25.4629 12.3114 23.6889 12.9153 22.0338C13.5192 20.3788 14.4043 18.8753 15.52 17.6091M38.14 11.2017C41.8894 15.4626 43.9957 21.2409 43.9957 27.2658C43.9957 33.2908 41.8894 39.069 38.14 43.33M9.86 43.33C6.11058 39.069 4.00427 33.2908 4.00427 27.2658C4.00427 21.2409 6.11058 15.4626 9.86 11.2017" stroke="black" stroke-width="3" stroke-linecap="round" stroke-linejoin="round"/>
</svg>
