<svg width="39" height="40" viewBox="0 0 39 40" fill="none" xmlns="http://www.w3.org/2000/svg">
<g clip-path="url(#clip0_2142_15241)">
<path fill-rule="evenodd" clip-rule="evenodd" d="M20.5513 1.24579L38.1846 20.6403C39.3755 21.9493 39.2391 24.0209 37.9262 25.2039L22.4015 39.1852C21.0901 40.3669 19.0536 40.2497 17.8838 38.9232L1.3252 20.1611L1.35679 19.6081L0 0L19.9631 1.27671C20.1552 1.26337 20.3508 1.25295 20.5513 1.24579ZM7.82133 3.87181C9.80044 3.91608 11.3706 5.57333 11.3267 7.57239C11.2829 9.57177 9.6422 11.1574 7.6631 11.1131C5.684 11.0689 4.11386 9.41161 4.15769 7.41256C4.2012 5.41317 5.84191 3.82754 7.82133 3.87181ZM10.9407 17.5019L22.3364 30.0435L20.065 32.1503L8.66924 19.6074L10.9407 17.5019ZM20.5603 8.6297L31.957 21.1722L29.6843 23.2777L18.2886 10.7362L20.5603 8.6297ZM15.9804 12.9595L27.3771 25.5011L25.1044 27.6069L13.709 15.065L15.9804 12.9595Z" fill="black"/>
</g>
<defs>
<clipPath id="clip0_2142_15241">
<rect width="39" height="40" fill="white"/>
</clipPath>
</defs>
</svg>
