<svg width="24" height="25" viewBox="0 0 24 25" fill="none" xmlns="http://www.w3.org/2000/svg">
<path d="M10.325 4.86876C10.751 3.11276 13.249 3.11276 13.675 4.86876C13.7389 5.13256 13.8642 5.37754 14.0407 5.58376C14.2172 5.78998 14.4399 5.95161 14.6907 6.0555C14.9414 6.1594 15.2132 6.20261 15.4838 6.18163C15.7544 6.16064 16.0162 6.07606 16.248 5.93476C17.791 4.99476 19.558 6.76076 18.618 8.30476C18.4769 8.53641 18.3924 8.79809 18.3715 9.06853C18.3506 9.33897 18.3938 9.61053 18.4975 9.86114C18.6013 10.1117 18.7627 10.3343 18.9687 10.5108C19.1747 10.6873 19.4194 10.8127 19.683 10.8768C21.439 11.3028 21.439 13.8008 19.683 14.2268C19.4192 14.2907 19.1742 14.416 18.968 14.5925C18.7618 14.769 18.6001 14.9916 18.4963 15.2424C18.3924 15.4932 18.3491 15.7649 18.3701 16.0355C18.3911 16.3062 18.4757 16.568 18.617 16.7998C19.557 18.3428 17.791 20.1098 16.247 19.1698C16.0153 19.0287 15.7537 18.9442 15.4832 18.9233C15.2128 18.9023 14.9412 18.9455 14.6906 19.0493C14.44 19.1531 14.2174 19.3145 14.0409 19.5205C13.8645 19.7265 13.7391 19.9712 13.675 20.2348C13.249 21.9908 10.751 21.9908 10.325 20.2348C10.2611 19.971 10.1358 19.726 9.95929 19.5198C9.7828 19.3135 9.56011 19.1519 9.30935 19.048C9.05859 18.9441 8.78683 18.9009 8.51621 18.9219C8.24559 18.9429 7.98375 19.0275 7.752 19.1688C6.209 20.1088 4.442 18.3428 5.382 16.7988C5.5231 16.5671 5.60755 16.3054 5.62848 16.035C5.64942 15.7645 5.60624 15.493 5.50247 15.2424C5.3987 14.9918 5.23726 14.7692 5.03127 14.5927C4.82529 14.4162 4.58056 14.2909 4.317 14.2268C2.561 13.8008 2.561 11.3028 4.317 10.8768C4.5808 10.8128 4.82578 10.6875 5.032 10.511C5.23822 10.3346 5.39985 10.1119 5.50375 9.86111C5.60764 9.61034 5.65085 9.33859 5.62987 9.06797C5.60889 8.79735 5.5243 8.53551 5.383 8.30376C4.443 6.76076 6.209 4.99376 7.753 5.93376C8.753 6.54176 10.049 6.00376 10.325 4.86876Z" stroke="#04091E" stroke-width="1.5" stroke-linecap="round" stroke-linejoin="round"/>
<path d="M12 15.5518C13.6569 15.5518 15 14.2086 15 12.5518C15 10.8949 13.6569 9.55176 12 9.55176C10.3431 9.55176 9 10.8949 9 12.5518C9 14.2086 10.3431 15.5518 12 15.5518Z" stroke="#04091E" stroke-width="1.5" stroke-linecap="round" stroke-linejoin="round"/>
</svg>
