<svg width="65" height="65" viewBox="0 0 65 65" fill="none" xmlns="http://www.w3.org/2000/svg">
<g clip-path="url(#clip0_537_3815)">
<path fill-rule="evenodd" clip-rule="evenodd" d="M53.1252 0H11.8075L-0.000107422 20.3125H64.9329L53.1252 0ZM58.9061 48.75H6.09972L6.09364 36.5625H10.083C12.2646 36.5625 15.7238 34.6165 17.1883 31.6387C18.8316 34.5333 21.8988 36.5625 24.8278 36.5625C27.9214 36.5625 31.3279 34.7222 32.4654 32.0612C33.6049 34.6592 36.9402 36.5625 39.9708 36.5625C42.9771 36.5625 46.091 34.3526 47.6673 31.3341C49.5096 34.381 52.1319 36.5625 54.8436 36.5625C55.4388 36.5625 58.3861 36.66 58.9061 36.5625V48.75ZM0.0506614 24.375H-0.000107422C-0.0366699 25.2586 -0.000107422 27.2817 -0.000107422 28.4375C-0.000107422 30.6008 0.777876 32.9652 2.03319 34.5312L2.09412 56.875C2.09412 61.362 5.84584 65 10.473 65H54.4597C59.0869 65 62.9686 61.362 62.9686 56.875V34.5312C64.3905 32.8575 64.9999 31.1391 64.9999 28.4375V24.375H0.0506614Z" fill="#0CAF60"/>
</g>
<defs>
<clipPath id="clip0_537_3815">
<rect width="65" height="65" fill="white"/>
</clipPath>
</defs>
</svg>
