<svg width="67" height="62" viewBox="0 0 67 62" fill="none" xmlns="http://www.w3.org/2000/svg">
<g clip-path="url(#clip0_538_3827)">
<path fill-rule="evenodd" clip-rule="evenodd" d="M55.8333 57.5714H11.1667C9.93387 57.5714 8.93333 58.5634 8.93333 59.7857C8.93333 61.0102 9.93387 62 11.1667 62H55.8333C57.0661 62 58.0667 61.0102 58.0667 59.7857C58.0667 58.5634 57.0661 57.5714 55.8333 57.5714ZM62.5333 48.7143H4.46667C3.23387 48.7143 2.23333 49.7063 2.23333 50.9286C2.23333 52.1531 3.23387 53.1429 4.46667 53.1429H62.5333C63.7661 53.1429 64.7667 52.1531 64.7667 50.9286C64.7667 49.7063 63.7661 48.7143 62.5333 48.7143ZM64.7667 39.8571H2.23333C1.00053 39.8571 0 40.8469 0 42.0714C0 43.2959 1.00053 44.2857 2.23333 44.2857H64.7667C65.9995 44.2857 67 43.2959 67 42.0714C67 40.8469 65.9995 39.8571 64.7667 39.8571ZM33.5 8.85714C34.7328 8.85714 35.7333 7.86736 35.7333 6.64286V2.21429C35.7333 0.989786 34.7328 0 33.5 0C32.2672 0 31.2667 0.989786 31.2667 2.21429V6.64286C31.2667 7.86736 32.2672 8.85714 33.5 8.85714ZM60.3 18.631L63.4579 15.5C64.3312 14.6342 64.3312 13.2348 63.4579 12.369C62.5869 11.5032 61.1732 11.5032 60.3 12.369L57.1421 15.5C56.2688 16.3658 56.2688 17.7652 57.1421 18.631C58.0153 19.4968 59.4268 19.4968 60.3 18.631ZM6.7 18.631C7.57323 19.4968 8.98694 19.4968 9.85794 18.631C10.7312 17.7652 10.7312 16.3658 9.85794 15.5L6.7 12.369C5.82677 11.5032 4.4153 11.5032 3.54206 12.369C2.66883 13.2348 2.66883 14.6342 3.54206 15.5L6.7 18.631ZM60.3 35.4286C58.5826 22.9378 47.1144 13.2857 33.5 13.2857C19.8856 13.2857 8.41743 22.9378 6.7 35.4286H60.3Z" fill="#0CAF60"/>
</g>
<defs>
<clipPath id="clip0_538_3827">
<rect width="67" height="62" fill="white"/>
</clipPath>
</defs>
</svg>
