<svg width="41" height="51" viewBox="0 0 41 51" fill="none" xmlns="http://www.w3.org/2000/svg">
<path d="M2.70866 0.0834961H38.292C38.9661 0.0834961 39.6126 0.351278 40.0892 0.827933C40.5659 1.30459 40.8337 1.95107 40.8337 2.62516V48.3752C40.8337 49.0493 40.5659 49.6957 40.0892 50.1724C39.6126 50.6491 38.9661 50.9168 38.292 50.9168H2.70866C2.03457 50.9168 1.38808 50.6491 0.91143 50.1724C0.434775 49.6957 0.166992 49.0493 0.166992 48.3752V2.62516C0.166992 1.95107 0.434775 1.30459 0.91143 0.827933C1.38808 0.351278 2.03457 0.0834961 2.70866 0.0834961ZM20.5003 38.2085C19.8262 38.2085 19.1798 38.4763 18.7031 38.9529C18.2264 39.4296 17.9587 40.0761 17.9587 40.7502C17.9587 41.4243 18.2264 42.0707 18.7031 42.5474C19.1798 43.0241 19.8262 43.2918 20.5003 43.2918C21.1744 43.2918 21.8209 43.0241 22.2976 42.5474C22.7742 42.0707 23.042 41.4243 23.042 40.7502C23.042 40.0761 22.7742 39.4296 22.2976 38.9529C21.8209 38.4763 21.1744 38.2085 20.5003 38.2085Z" fill="black"/>
</svg>
