<svg width="24" height="25" viewBox="0 0 24 25" fill="none" xmlns="http://www.w3.org/2000/svg">
<path d="M10 14.5516C10.3259 14.8842 10.7148 15.1485 11.1441 15.3289C11.5734 15.5092 12.0344 15.6022 12.5 15.6022C12.9656 15.6022 13.4266 15.5092 13.8559 15.3289C14.2852 15.1485 14.6741 14.8842 15 14.5516L19 10.5516C19.663 9.8886 20.0355 8.98933 20.0355 8.05165C20.0355 7.11396 19.663 6.21469 19 5.55165C18.337 4.88861 17.4377 4.51611 16.5 4.51611C15.5623 4.51611 14.663 4.88861 14 5.55165L13.5 6.05165" stroke="#04091E" stroke-width="1.5" stroke-linecap="round" stroke-linejoin="round"/>
<path d="M14 10.5515C13.6741 10.2189 13.2852 9.95466 12.8559 9.77427C12.4266 9.59389 11.9656 9.50098 11.5 9.50098C11.0344 9.50098 10.5734 9.59389 10.1441 9.77427C9.71486 9.95466 9.32589 10.2189 9.00001 10.5515L5.00001 14.5515C4.33697 15.2145 3.96448 16.1138 3.96448 17.0515C3.96448 17.9892 4.33697 18.8884 5.00001 19.5515C5.66305 20.2145 6.56233 20.587 7.50001 20.587C8.43769 20.587 9.33697 20.2145 10 19.5515L10.5 19.0515" stroke="#04091E" stroke-width="1.5" stroke-linecap="round" stroke-linejoin="round"/>
</svg>
