<svg width="50" height="50" viewBox="0 0 50 50" fill="none" xmlns="http://www.w3.org/2000/svg">
<g clip-path="url(#clip0_472_3596)">
<path d="M25 50C38.8071 50 50 38.8071 50 25C50 11.1929 38.8071 0 25 0C11.1929 0 0 11.1929 0 25C0 38.8071 11.1929 50 25 50Z" fill="#010201"/>
<path d="M18.326 35.0333C18.3557 35.0593 18.3853 35.0889 18.4149 35.1148C18.6927 35.3111 18.8927 35.5926 19.1557 35.8037C19.9779 36.463 20.9038 36.8222 21.9631 36.8889C24.4742 37.0444 26.6631 35.1555 26.9483 32.6704C26.9631 32.5481 26.9557 32.4259 26.9557 32.3037C26.9557 24.8259 26.9557 17.3481 26.9557 9.86666C26.9557 9.36296 26.9557 9.36296 27.4594 9.36296C28.5964 9.36296 29.7335 9.36296 30.8705 9.36296C30.9779 9.36296 31.089 9.34444 31.1853 9.41111C31.1927 9.41851 31.1964 9.42222 31.2038 9.42592C31.2594 9.48148 31.2742 9.55555 31.289 9.62592C31.726 11.6407 32.7853 13.2481 34.4483 14.463C34.552 14.537 34.6409 14.6333 34.7372 14.7148C34.8112 14.7778 34.8816 14.837 34.9557 14.9C35.2223 15.0518 35.4149 15.2963 35.6483 15.4926C36.5668 16.2593 37.6075 16.7889 38.7668 17.0852C38.8705 17.1111 38.9853 17.1111 39.0594 17.2074C39.0631 17.2148 39.0705 17.2185 39.0779 17.2222C39.1446 17.2926 39.1335 17.3852 39.1335 17.4704C39.1335 18.7889 39.1372 20.1074 39.1335 21.4259C39.1335 21.7259 39.0927 21.7444 38.789 21.7444C37.8223 21.7444 36.8742 21.6148 35.9372 21.4C34.3223 21.0296 32.8335 20.3741 31.452 19.4667C31.3816 19.4185 31.3038 19.3185 31.226 19.3518C31.1297 19.3963 31.1779 19.5222 31.1779 19.6111C31.1742 23.3222 31.1927 27.0333 31.1705 30.7481C31.1557 33.3444 30.3298 35.6667 28.6298 37.6407C26.826 39.7407 24.5335 40.9593 21.7816 41.2963C19.6594 41.5555 17.6483 41.1704 15.7372 40.2296C15.4298 40.0778 15.1335 39.9 14.8557 39.6926C14.7668 39.6148 14.6816 39.537 14.5927 39.4593C13.9335 38.9148 13.4779 38.2111 13.0483 37.4926C12.389 36.3815 11.9631 35.1815 11.7557 33.9074C11.6372 33.1778 11.5742 32.4444 11.6149 31.7074C11.7446 29.3296 12.5446 27.2111 14.0779 25.3778C15.3631 23.8407 16.9705 22.7667 18.8631 22.1185C19.652 21.8481 20.4668 21.6815 21.3038 21.6222C21.4594 21.6111 21.6112 21.5741 21.7668 21.5852C21.8409 21.5889 21.9149 21.5815 21.9816 21.6333C21.989 21.6407 21.9964 21.6444 22.0038 21.6481C22.0483 21.7222 22.0372 21.8074 22.0372 21.8852C22.0372 23.2222 22.0372 24.563 22.0372 25.9C22.0372 25.9481 22.0372 25.9963 22.0335 26.0407C22.026 26.1741 21.9594 26.2185 21.8335 26.1852C21.4668 26.0815 21.0927 26.0333 20.7149 26.0148C20.1298 25.9852 19.552 26.0667 19.0001 26.2704C17.1594 26.9481 16.0446 28.2667 15.8112 30.2074C15.5816 32.1185 16.3372 33.6481 17.926 34.7518C18.0668 34.8444 18.2038 34.9296 18.326 35.0333Z" fill="white"/>
<path d="M14.8633 39.6963C14.9337 39.6777 14.9744 39.7333 15.0225 39.7629C16.2188 40.4926 17.5077 40.9703 18.8929 41.1926C19.5892 41.3037 20.2892 41.3518 20.9929 41.3148C23.3448 41.1926 25.4522 40.4111 27.2744 38.9037C29.0262 37.4555 30.1929 35.6259 30.7744 33.4296C30.9596 32.737 31.0596 32.0296 31.0966 31.3111C31.1188 30.9 31.1151 30.4852 31.1151 30.074C31.1151 26.537 31.1151 23 31.1151 19.4629C31.1151 19.3814 31.1151 19.3037 31.1151 19.2222C31.2077 19.1963 31.2485 19.2666 31.3003 19.3C32.5596 20.1629 33.9225 20.8 35.3966 21.2074C36.204 21.4296 37.0262 21.5777 37.8633 21.6518C38.2151 21.6814 38.567 21.6777 38.9151 21.7037C39.067 21.7148 39.0707 21.7074 39.0744 21.5481C39.0781 21.3777 39.0744 21.2111 39.0744 21.0407C39.0744 19.8444 39.0744 18.6481 39.0744 17.4481C39.0744 17.374 39.0781 17.3 39.0818 17.2259C39.3966 17.2629 39.7077 17.3296 40.0262 17.3518C40.2225 17.3666 40.4188 17.3852 40.6151 17.3777C40.7114 17.374 40.7522 17.4074 40.7411 17.5074C40.7374 17.5481 40.7411 17.5889 40.7411 17.6296C40.7411 19.3592 40.7411 21.0926 40.7411 22.8222C40.7411 22.8555 40.7411 22.8889 40.7411 22.9222C40.7374 23.074 40.7374 23.0777 40.5781 23.074C40.0374 23.074 39.4966 23.037 38.9596 22.9666C37.8633 22.8222 36.7966 22.5518 35.767 22.1518C34.7818 21.7666 33.8522 21.2777 32.9781 20.6777C32.9225 20.6407 32.867 20.6074 32.7855 20.5518C32.7855 20.6518 32.7855 20.7222 32.7855 20.7963C32.7855 24.5777 32.7892 28.3555 32.7855 32.137C32.7818 34.1518 32.2633 36.0259 31.1855 37.7333C29.8855 39.7963 28.0855 41.2444 25.7966 42.0777C24.4077 42.5814 22.967 42.7777 21.4892 42.6666C18.9966 42.4814 16.8411 41.5296 15.004 39.8407C14.9522 39.8 14.9114 39.7481 14.8633 39.6963Z" fill="#CB1C54"/>
<path d="M31.1895 9.41109C31.1154 9.41479 31.0414 9.4222 30.9673 9.4222C29.7488 9.4222 28.5303 9.4222 27.3154 9.4222C27.034 9.4222 27.034 9.4222 27.034 9.69627C27.034 17.137 27.034 24.5741 27.0377 32.0148C27.0377 32.5333 27.0006 33.0407 26.8377 33.5333C26.2673 35.2741 25.0969 36.4222 23.3117 36.8296C21.3969 37.2666 19.771 36.6815 18.4747 35.1963C18.4525 35.1703 18.4377 35.1407 18.4229 35.1111C18.7932 35.2592 19.1636 35.4074 19.5562 35.4852C20.8043 35.7333 21.9821 35.5407 23.0636 34.8741C24.3154 34.1037 25.0525 32.9741 25.3117 31.5333C25.3599 31.2592 25.3673 30.9815 25.3673 30.7037C25.3673 23.2518 25.3673 15.7963 25.3673 8.34442C25.3673 7.99627 25.3191 8.04072 25.6636 8.04072C27.3821 8.04072 29.1006 8.04072 30.8191 8.04072C30.8599 8.04072 30.9006 8.04072 30.9414 8.04072C31.1154 8.04442 31.1191 8.04442 31.1191 8.2222C31.1154 8.6222 31.108 9.0185 31.1895 9.41109Z" fill="#6ABAC5"/>
<path d="M21.9892 21.637C20.9411 21.6703 19.9114 21.837 18.9151 22.1703C17.4744 22.6481 16.1929 23.4 15.0744 24.4296C13.6077 25.7815 12.6077 27.4185 12.0596 29.3333C11.8633 30.0148 11.7522 30.7148 11.7003 31.4222C11.6707 31.8481 11.6596 32.274 11.6855 32.6963C11.7485 33.8778 11.9929 35.0185 12.4411 36.1148C12.9411 37.3407 13.6448 38.437 14.5596 39.3963C14.5781 39.4148 14.5892 39.4407 14.604 39.4629C14.3966 39.374 14.23 39.2222 14.0559 39.0852C12.3522 37.7333 11.1485 36.0296 10.4892 33.9518C10.2596 33.2296 10.1151 32.4889 10.0448 31.7333C9.99293 31.1852 9.98922 30.637 10.0226 30.0926C10.104 28.8333 10.404 27.6259 10.9226 26.474C11.467 25.2703 12.2077 24.2037 13.1485 23.2815C14.2448 22.2074 15.5151 21.4 16.9633 20.8815C17.8707 20.5555 18.804 20.3555 19.767 20.2852C20.4633 20.2333 21.1559 20.2481 21.8522 20.3333C21.9448 20.3444 22.0003 20.3629 22.0003 20.474C21.9892 20.8666 21.9892 21.2518 21.9892 21.637Z" fill="#6ABAC5"/>
<path d="M18.3265 35.0333C17.9042 34.8407 17.5376 34.5667 17.2042 34.2481C16.3709 33.4444 15.8746 32.4667 15.745 31.3148C15.4746 28.9 16.9968 26.8185 19.1117 26.1741C20.0154 25.9 20.9191 25.8889 21.8265 26.1333C21.8783 26.1481 21.9265 26.1704 21.982 26.1556C22.0117 26.0815 21.9968 26.0074 21.9968 25.9333C21.9968 24.5815 21.9968 23.2296 21.9968 21.8778C21.9968 21.8037 22.0042 21.7296 22.0079 21.6556C22.5302 21.6185 23.0487 21.6667 23.5635 21.7259C23.645 21.7333 23.6672 21.7741 23.6635 21.8444C23.6635 21.8852 23.6635 21.9259 23.6635 21.9667C23.6635 23.7593 23.6635 25.5518 23.6635 27.3407C23.6635 27.4074 23.682 27.4741 23.6376 27.5481C23.4005 27.5037 23.1709 27.4333 22.9302 27.4C21.545 27.2074 20.2968 27.5296 19.2005 28.3926C18.2376 29.1518 17.645 30.1481 17.445 31.3556C17.2339 32.637 17.5005 33.8259 18.2376 34.9037C18.2746 34.9407 18.3005 34.9889 18.3265 35.0333Z" fill="#CB1C54"/>
<path d="M34.7447 14.7185C34.2225 14.4111 33.767 14.0222 33.3484 13.5888C32.2225 12.4296 31.5114 11.0555 31.2077 9.46662C31.204 9.45181 31.2077 9.4407 31.2077 9.42588C31.6929 9.39996 32.1818 9.42218 32.667 9.41477C32.7521 9.41477 32.7929 9.4481 32.7818 9.53329C32.7781 9.56662 32.7818 9.59996 32.7818 9.63329C32.7558 10.9963 33.1596 12.2407 33.8262 13.4111C34.0633 13.8296 34.3484 14.2148 34.6558 14.5851C34.6892 14.6296 34.7373 14.6592 34.7447 14.7185Z" fill="#CB1C54"/>
<path d="M39.0637 17.2111C37.6785 16.9148 36.46 16.2889 35.4007 15.3481C35.2451 15.2111 35.0859 15.0741 34.96 14.9037C35.0118 14.9 35.0488 14.9296 35.0896 14.9518C35.9303 15.4333 36.8266 15.7481 37.7822 15.9037C38.1526 15.9667 38.5303 16.0037 38.9081 16C39.0674 16 39.0711 16.0037 39.0711 16.1555C39.0711 16.5111 39.0674 16.8593 39.0637 17.2111Z" fill="#6ABAC5"/>
</g>
<defs>
<clipPath id="clip0_472_3596">
<rect width="50" height="50" fill="white"/>
</clipPath>
</defs>
</svg>
