<svg width="50" height="50" viewBox="0 0 50 50" fill="none" xmlns="http://www.w3.org/2000/svg">
<g clip-path="url(#clip0_472_3590)">
<path d="M25 50C38.8071 50 50 38.8071 50 25C50 11.1929 38.8071 0 25 0C11.1929 0 0 11.1929 0 25C0 38.8071 11.1929 50 25 50Z" fill="#5A99EC"/>
<path d="M19.9477 39.4C32.1588 39.4 38.8366 29.2852 38.8366 20.5111C38.8366 20.2222 38.8292 19.937 38.8181 19.6518C40.1144 18.7148 41.2403 17.5444 42.1292 16.2148C40.9403 16.7444 39.6588 17.1 38.3181 17.2593C39.6885 16.437 40.7403 15.137 41.2366 13.5889C39.9551 14.3481 38.5329 14.9037 37.0218 15.2C35.8107 13.9111 34.0848 13.1037 32.1773 13.1037C28.5107 13.1037 25.5366 16.0778 25.5366 19.7407C25.5366 20.263 25.5959 20.7667 25.7107 21.2555C20.1922 20.9778 15.2996 18.337 12.0292 14.3185C11.4588 15.3 11.1292 16.4407 11.1292 17.6555C11.1292 19.9593 12.2996 21.9926 14.0848 23.1815C12.9959 23.1481 11.9736 22.8481 11.0773 22.3518C11.0773 22.3778 11.0773 22.4074 11.0773 22.437C11.0773 25.6518 13.3662 28.337 16.4033 28.9444C15.844 29.0963 15.2588 29.1778 14.6551 29.1778C14.2292 29.1778 13.8107 29.137 13.407 29.0593C14.2514 31.6963 16.7033 33.6148 19.607 33.6704C17.3329 35.4518 14.4736 36.5111 11.3625 36.5111C10.8255 36.5111 10.2996 36.4815 9.77734 36.4185C12.7107 38.3 16.1996 39.4 19.9477 39.4Z" fill="white"/>
</g>
<defs>
<clipPath id="clip0_472_3590">
<rect width="50" height="50" fill="white"/>
</clipPath>
</defs>
</svg>
