<svg width="35" height="26" viewBox="0 0 35 26" fill="none" xmlns="http://www.w3.org/2000/svg">
<mask id="mask0_337_3820" style="mask-type:luminance" maskUnits="userSpaceOnUse" x="1" y="1" width="32" height="24">
<rect x="33" y="25" width="32" height="24" rx="6" transform="rotate(180 33 25)" fill="white"/>
</mask>
<g mask="url(#mask0_337_3820)">
<path fill-rule="evenodd" clip-rule="evenodd" d="M33 25H1V1H33V25Z" fill="#F7FCFF"/>
<path fill-rule="evenodd" clip-rule="evenodd" d="M33 10.3335V8.3335H1V10.3335H33Z" fill="#E31D1C"/>
<path fill-rule="evenodd" clip-rule="evenodd" d="M33 6.6665V4.6665H1V6.6665H33Z" fill="#E31D1C"/>
<path fill-rule="evenodd" clip-rule="evenodd" d="M33 17.6665V15.6665H1V17.6665H33Z" fill="#E31D1C"/>
<path fill-rule="evenodd" clip-rule="evenodd" d="M33 3V1H1V3H33Z" fill="#E31D1C"/>
<path fill-rule="evenodd" clip-rule="evenodd" d="M33 14V12H1V14H33Z" fill="#E31D1C"/>
<path fill-rule="evenodd" clip-rule="evenodd" d="M33 25V23H1V25H33Z" fill="#E31D1C"/>
<path fill-rule="evenodd" clip-rule="evenodd" d="M33 21.3335V19.3335H1V21.3335H33Z" fill="#E31D1C"/>
<rect x="33" y="25" width="20" height="13" transform="rotate(180 33 25)" fill="#2E42A5"/>
<path fill-rule="evenodd" clip-rule="evenodd" d="M31.2778 22.0613L32.0037 21.5524L31.7586 22.458L32.4033 23.0319H31.5612L31.2788 23.771L30.9476 23.0319H30.2298L30.7938 22.458L30.5755 21.5524L31.2778 22.0613ZM27.2778 22.0613L28.0037 21.5524L27.7586 22.458L28.4033 23.0319H27.5612L27.2788 23.771L26.9476 23.0319H26.2298L26.7938 22.458L26.5755 21.5524L27.2778 22.0613ZM24.0037 21.5524L23.2778 22.0613L22.5755 21.5524L22.7938 22.458L22.2298 23.0319H22.9476L23.2788 23.771L23.5612 23.0319H24.4033L23.7586 22.458L24.0037 21.5524ZM19.2778 22.0613L20.0037 21.5524L19.7586 22.458L20.4033 23.0319H19.5612L19.2788 23.771L18.9476 23.0319H18.2298L18.7938 22.458L18.5755 21.5524L19.2778 22.0613ZM32.0037 17.5524L31.2778 18.0613L30.5755 17.5524L30.7938 18.458L30.2298 19.0319H30.9476L31.2788 19.771L31.5612 19.0319H32.4033L31.7586 18.458L32.0037 17.5524ZM27.2778 18.0613L28.0037 17.5524L27.7586 18.458L28.4033 19.0319H27.5612L27.2788 19.771L26.9476 19.0319H26.2298L26.7938 18.458L26.5755 17.5524L27.2778 18.0613ZM24.0037 17.5524L23.2778 18.0613L22.5755 17.5524L22.7938 18.458L22.2298 19.0319H22.9476L23.2788 19.771L23.5612 19.0319H24.4033L23.7586 18.458L24.0037 17.5524ZM19.2778 18.0613L20.0037 17.5524L19.7586 18.458L20.4033 19.0319H19.5612L19.2788 19.771L18.9476 19.0319H18.2298L18.7938 18.458L18.5755 17.5524L19.2778 18.0613ZM32.0037 13.5524L31.2778 14.0613L30.5755 13.5524L30.7938 14.458L30.2298 15.0319H30.9476L31.2788 15.771L31.5612 15.0319H32.4033L31.7586 14.458L32.0037 13.5524ZM27.2778 14.0613L28.0037 13.5524L27.7586 14.458L28.4033 15.0319H27.5612L27.2788 15.771L26.9476 15.0319H26.2298L26.7938 14.458L26.5755 13.5524L27.2778 14.0613ZM24.0037 13.5524L23.2778 14.0613L22.5755 13.5524L22.7938 14.458L22.2298 15.0319H22.9476L23.2788 15.771L23.5612 15.0319H24.4033L23.7586 14.458L24.0037 13.5524ZM19.2778 14.0613L20.0037 13.5524L19.7586 14.458L20.4033 15.0319H19.5612L19.2788 15.771L18.9476 15.0319H18.2298L18.7938 14.458L18.5755 13.5524L19.2778 14.0613ZM16.0037 21.5524L15.2778 22.0613L14.5755 21.5524L14.7938 22.458L14.2298 23.0319H14.9476L15.2788 23.771L15.5612 23.0319H16.4033L15.7586 22.458L16.0037 21.5524ZM15.2778 18.0613L16.0037 17.5524L15.7586 18.458L16.4033 19.0319H15.5612L15.2788 19.771L14.9476 19.0319H14.2298L14.7938 18.458L14.5755 17.5524L15.2778 18.0613ZM16.0037 13.5524L15.2778 14.0613L14.5755 13.5524L14.7938 14.458L14.2298 15.0319H14.9476L15.2788 15.771L15.5612 15.0319H16.4033L15.7586 14.458L16.0037 13.5524ZM29.2778 20.0613L30.0037 19.5524L29.7586 20.458L30.4033 21.0319H29.5612L29.2788 21.771L28.9476 21.0319H28.2298L28.7938 20.458L28.5755 19.5524L29.2778 20.0613ZM26.0037 19.5524L25.2778 20.0613L24.5755 19.5524L24.7938 20.458L24.2298 21.0319H24.9476L25.2788 21.771L25.5612 21.0319H26.4033L25.7586 20.458L26.0037 19.5524ZM21.2778 20.0613L22.0037 19.5524L21.7586 20.458L22.4033 21.0319H21.5612L21.2788 21.771L20.9476 21.0319H20.2298L20.7938 20.458L20.5755 19.5524L21.2778 20.0613ZM30.0037 15.5524L29.2778 16.0613L28.5755 15.5524L28.7938 16.458L28.2298 17.0319H28.9476L29.2788 17.771L29.5612 17.0319H30.4033L29.7586 16.458L30.0037 15.5524ZM25.2778 16.0613L26.0037 15.5524L25.7586 16.458L26.4033 17.0319H25.5612L25.2788 17.771L24.9476 17.0319H24.2298L24.7938 16.458L24.5755 15.5524L25.2778 16.0613ZM22.0037 15.5524L21.2778 16.0613L20.5755 15.5524L20.7938 16.458L20.2298 17.0319H20.9476L21.2788 17.771L21.5612 17.0319H22.4033L21.7586 16.458L22.0037 15.5524ZM17.2778 20.0613L18.0037 19.5524L17.7586 20.458L18.4033 21.0319H17.5612L17.2788 21.771L16.9476 21.0319H16.2298L16.7938 20.458L16.5755 19.5524L17.2778 20.0613ZM18.0037 15.5524L17.2778 16.0613L16.5755 15.5524L16.7938 16.458L16.2298 17.0319H16.9476L17.2788 17.771L17.5612 17.0319H18.4033L17.7586 16.458L18.0037 15.5524Z" fill="#F7FCFF"/>
</g>
</svg>
