<svg width="21" height="21" viewBox="0 0 21 21" fill="none" xmlns="http://www.w3.org/2000/svg">
<path d="M10.7625 10.6925C11.2294 10.2884 11.6039 9.78852 11.8605 9.2269C12.1172 8.66527 12.25 8.055 12.25 7.4375C12.25 6.27718 11.7891 5.16438 10.9686 4.34391C10.1481 3.52344 9.03532 3.0625 7.875 3.0625C6.71468 3.0625 5.60188 3.52344 4.78141 4.34391C3.96094 5.16438 3.5 6.27718 3.5 7.4375C3.49999 8.055 3.63283 8.66527 3.88948 9.2269C4.14614 9.78852 4.52062 10.2884 4.9875 10.6925C3.76262 11.2471 2.72341 12.1428 1.99411 13.2725C1.26481 14.4021 0.876288 15.7179 0.875 17.0625C0.875 17.2946 0.967187 17.5171 1.13128 17.6812C1.29538 17.8453 1.51794 17.9375 1.75 17.9375C1.98206 17.9375 2.20462 17.8453 2.36872 17.6812C2.53281 17.5171 2.625 17.2946 2.625 17.0625C2.625 15.6701 3.17812 14.3348 4.16269 13.3502C5.14726 12.3656 6.48261 11.8125 7.875 11.8125C9.26739 11.8125 10.6027 12.3656 11.5873 13.3502C12.5719 14.3348 13.125 15.6701 13.125 17.0625C13.125 17.2946 13.2172 17.5171 13.3813 17.6812C13.5454 17.8453 13.7679 17.9375 14 17.9375C14.2321 17.9375 14.4546 17.8453 14.6187 17.6812C14.7828 17.5171 14.875 17.2946 14.875 17.0625C14.8737 15.7179 14.4852 14.4021 13.7559 13.2725C13.0266 12.1428 11.9874 11.2471 10.7625 10.6925ZM7.875 10.0625C7.35582 10.0625 6.84831 9.90855 6.41663 9.62011C5.98495 9.33167 5.6485 8.9217 5.44982 8.44204C5.25114 7.96239 5.19915 7.43459 5.30044 6.92539C5.40172 6.41619 5.65173 5.94846 6.01884 5.58135C6.38596 5.21423 6.85369 4.96423 7.36289 4.86294C7.87209 4.76165 8.39989 4.81364 8.87954 5.01232C9.3592 5.211 9.76917 5.54745 10.0576 5.97913C10.346 6.41081 10.5 6.91832 10.5 7.4375C10.5 8.13369 10.2234 8.80137 9.73116 9.29366C9.23887 9.78594 8.57119 10.0625 7.875 10.0625ZM16.3975 10.3425C16.9575 9.71191 17.3233 8.93292 17.4508 8.0993C17.5784 7.26567 17.4623 6.41294 17.1165 5.64375C16.7708 4.87456 16.2101 4.2217 15.5019 3.76374C14.7938 3.30579 13.9683 3.06227 13.125 3.0625C12.8929 3.0625 12.6704 3.15469 12.5063 3.31878C12.3422 3.48288 12.25 3.70544 12.25 3.9375C12.25 4.16956 12.3422 4.39212 12.5063 4.55622C12.6704 4.72031 12.8929 4.8125 13.125 4.8125C13.8212 4.8125 14.4889 5.08906 14.9812 5.58135C15.4734 6.07363 15.75 6.74131 15.75 7.4375C15.7488 7.89708 15.6269 8.34829 15.3966 8.74599C15.1662 9.1437 14.8355 9.47396 14.4375 9.70375C14.3078 9.77858 14.1994 9.88546 14.1228 10.0141C14.0462 10.1428 14.0039 10.289 14 10.4388C13.9963 10.5873 14.0306 10.7343 14.0995 10.866C14.1683 10.9976 14.2696 11.1096 14.3938 11.1912L14.735 11.4187L14.8487 11.48C15.9035 11.9803 16.7933 12.7715 17.4134 13.7605C18.0334 14.7496 18.358 15.8952 18.3487 17.0625C18.3487 17.2946 18.4409 17.5171 18.605 17.6812C18.7691 17.8453 18.9917 17.9375 19.2237 17.9375C19.4558 17.9375 19.6784 17.8453 19.8425 17.6812C20.0066 17.5171 20.0987 17.2946 20.0987 17.0625C20.1059 15.7197 19.7696 14.3975 19.1218 13.2213C18.474 12.0451 17.5362 11.0541 16.3975 10.3425Z" fill="#4E5F70"/>
</svg>
