<svg width="43" height="31" viewBox="0 0 43 31" fill="none" xmlns="http://www.w3.org/2000/svg">
<path d="M14.8906 0.8125C12.0679 0.8125 9.75 3.13037 9.75 5.95312C9.75 8.77588 12.0679 11.0938 14.8906 11.0938C17.7134 11.0938 20.0312 8.77588 20.0312 5.95312C20.0312 3.13037 17.7134 0.8125 14.8906 0.8125ZM28.1094 0.8125C25.2866 0.8125 22.9688 3.13037 22.9688 5.95312C22.9688 8.77588 25.2866 11.0938 28.1094 11.0938C30.9321 11.0938 33.25 8.77588 33.25 5.95312C33.25 3.13037 30.9321 0.8125 28.1094 0.8125ZM14.8906 3.75C16.1241 3.75 17.0938 4.7196 17.0938 5.95312C17.0938 7.18665 16.1241 8.15625 14.8906 8.15625C13.6571 8.15625 12.6875 7.18665 12.6875 5.95312C12.6875 4.7196 13.6571 3.75 14.8906 3.75ZM28.1094 3.75C29.3429 3.75 30.3125 4.7196 30.3125 5.95312C30.3125 7.18665 29.3429 8.15625 28.1094 8.15625C26.8759 8.15625 25.9062 7.18665 25.9062 5.95312C25.9062 4.7196 26.8759 3.75 28.1094 3.75ZM8.28125 9.625C5.05115 9.625 2.40625 12.2699 2.40625 15.5C2.40625 17.1351 3.1062 18.6096 4.19629 19.6768C2.23987 21.0021 0.9375 23.2568 0.9375 25.7812H3.875C3.875 23.3314 5.83142 21.375 8.28125 21.375C10.7311 21.375 12.6875 23.3314 12.6875 25.7812H15.625C15.625 23.2568 14.3226 21.0021 12.3662 19.6768C13.4563 18.6096 14.1562 17.1351 14.1562 15.5C14.1562 12.2699 11.5114 9.625 8.28125 9.625ZM15.625 25.7812C14.707 27.009 14.1562 28.5524 14.1562 30.1875H17.0938C17.0938 27.7377 19.0502 25.7812 21.5 25.7812C23.9498 25.7812 25.9062 27.7377 25.9062 30.1875H28.8438C28.8438 28.5524 28.293 27.009 27.375 25.7812C26.8759 25.1157 26.2734 24.5477 25.585 24.083C26.675 23.0159 27.375 21.5414 27.375 19.9062C27.375 16.6761 24.7301 14.0312 21.5 14.0312C18.2699 14.0312 15.625 16.6761 15.625 19.9062C15.625 21.5414 16.325 23.0159 17.415 24.083C16.7266 24.5477 16.1241 25.1157 15.625 25.7812ZM27.375 25.7812H30.3125C30.3125 23.3314 32.2689 21.375 34.7188 21.375C37.1686 21.375 39.125 23.3314 39.125 25.7812H42.0625C42.0625 23.2568 40.7601 21.0021 38.8037 19.6768C39.8938 18.6096 40.5938 17.1351 40.5938 15.5C40.5938 12.2699 37.9489 9.625 34.7188 9.625C31.4886 9.625 28.8438 12.2699 28.8438 15.5C28.8438 17.1351 29.5437 18.6096 30.6338 19.6768C28.6774 21.0021 27.375 23.2568 27.375 25.7812ZM8.28125 12.5625C9.92212 12.5625 11.2188 13.8591 11.2188 15.5C11.2188 17.1409 9.92212 18.4375 8.28125 18.4375C6.64038 18.4375 5.34375 17.1409 5.34375 15.5C5.34375 13.8591 6.64038 12.5625 8.28125 12.5625ZM34.7188 12.5625C36.3596 12.5625 37.6562 13.8591 37.6562 15.5C37.6562 17.1409 36.3596 18.4375 34.7188 18.4375C33.0779 18.4375 31.7812 17.1409 31.7812 15.5C31.7812 13.8591 33.0779 12.5625 34.7188 12.5625ZM21.5 16.9688C23.1409 16.9688 24.4375 18.2654 24.4375 19.9062C24.4375 21.5471 23.1409 22.8438 21.5 22.8438C19.8591 22.8438 18.5625 21.5471 18.5625 19.9062C18.5625 18.2654 19.8591 16.9688 21.5 16.9688Z" fill="black"/>
</svg>
