<svg width="35" height="28" viewBox="0 0 35 28" fill="none" xmlns="http://www.w3.org/2000/svg">
<path d="M34.9366 3.42679C33.6642 3.98961 32.3149 4.35924 30.9333 4.52346C32.3896 3.65251 33.4795 2.28181 34 0.666788C32.6333 1.48012 31.135 2.05012 29.5733 2.35845C28.5243 1.23609 27.1339 0.491727 25.6182 0.241096C24.1026 -0.00953434 22.5465 0.247607 21.1921 0.972543C19.8376 1.69748 18.7606 2.84959 18.1285 4.24978C17.4964 5.64996 17.3445 7.21976 17.6966 8.71512C14.9251 8.57621 12.2139 7.85599 9.73878 6.60123C7.2637 5.34646 5.08018 3.5852 3.32997 1.43179C2.71045 2.49587 2.38489 3.7055 2.38663 4.93679C2.38663 7.35345 3.61663 9.48845 5.48663 10.7385C4.37998 10.7036 3.29769 10.4048 2.32997 9.86679V9.95345C2.3303 11.563 2.88725 13.1228 3.90638 14.3686C4.92551 15.6143 6.3441 16.4692 7.92163 16.7885C6.89432 17.0669 5.81714 17.1079 4.77163 16.9085C5.21641 18.2938 6.08331 19.5055 7.25095 20.3736C8.41859 21.2418 9.82851 21.7231 11.2833 21.7501C9.83743 22.8857 8.18193 23.7251 6.41143 24.2204C4.64094 24.7157 2.79018 24.8572 0.964966 24.6368C4.15113 26.6858 7.86013 27.7737 11.6483 27.7701C24.47 27.7701 31.4816 17.1485 31.4816 7.93679C31.4816 7.63679 31.4733 7.33346 31.46 7.03679C32.8247 6.0504 34.0026 4.82849 34.9383 3.42846L34.9366 3.42679Z" fill="black"/>
</svg>
