<svg width="100" height="76" viewBox="0 0 100 76" fill="none" xmlns="http://www.w3.org/2000/svg">
<path d="M48.4401 74.8046C68.7017 74.8046 85.1389 58.2861 85.1389 37.8616C85.1389 17.4372 68.7017 1 48.4401 1C28.1784 1 11.7412 17.5186 11.7412 37.943C11.7412 58.3674 28.1784 74.8046 48.4401 74.8046Z" fill="#EAFAE5" stroke="#0CAF60" stroke-width="2" stroke-miterlimit="10"/>
<path d="M66.5047 74.9111C60.89 75.0738 54.2175 74.9111 49.4165 74.8297C44.6969 74.9925 37.943 75.0738 32.3284 74.9111C37.8617 71.7376 39.8146 65.8788 40.0587 61.9729H58.6116C59.0998 65.7974 61.0528 71.7376 66.5047 74.9111Z" fill="#EAFAE5" stroke="#0CAF60" stroke-width="2" stroke-miterlimit="10"/>
<path d="M84.4879 12.7429V61.3221C84.4879 62.5427 83.5115 63.4378 82.4536 63.4378H16.7862C15.647 63.4378 14.7519 62.4613 14.7519 61.3221V12.7429C14.7519 11.6037 15.7284 10.6272 16.7862 10.6272H82.3723C83.5928 10.6272 84.4879 11.6037 84.4879 12.7429Z" fill="#EAFAE5" stroke="#0CAF60" stroke-width="2" stroke-miterlimit="10"/>
<path d="M84.4879 12.7429V54.5682H14.7519V12.7429C14.7519 11.6037 15.7284 10.6272 16.7862 10.6272H82.3723C83.5928 10.6272 84.4879 11.6037 84.4879 12.7429Z" fill="#EAFAE5" stroke="#0CAF60" stroke-width="2" stroke-miterlimit="10"/>
<path d="M49.4979 60.5397C50.4743 60.5397 51.2067 59.8074 51.2067 58.8309C51.2067 57.8544 50.4743 57.1221 49.4979 57.1221C48.5214 57.1221 47.7891 57.8544 47.7891 58.8309C47.7891 59.8074 48.5214 60.5397 49.4979 60.5397Z" fill="#0CAF60"/>
<path d="M78.0595 20.4734V25.4371C78.0595 26.1695 77.4899 26.7391 76.7575 26.7391H22.0754C21.343 26.7391 20.7734 26.1695 20.7734 25.4371V20.4734C20.7734 19.7411 21.343 19.1714 22.0754 19.1714H76.6762C77.4899 19.0901 78.0595 19.7411 78.0595 20.4734Z" fill="#0CAF60"/>
<path d="M28.4225 19.0901V26.8204H21.9941C21.2618 26.8204 20.6921 26.2508 20.6921 25.5185V20.5548C20.6921 19.8224 21.2618 19.2528 21.9941 19.2528L28.4225 19.0901Z" fill="#E3EAF2"/>
<path opacity="0.8" d="M78.0595 30.8889V35.8526C78.0595 36.585 77.4899 37.1546 76.7575 37.1546H22.0754C21.343 37.1546 20.7734 36.585 20.7734 35.8526V30.8889C20.7734 30.1566 21.343 29.587 22.0754 29.587H76.6762C77.4899 29.5056 78.0595 30.1566 78.0595 30.8889Z" fill="#0CAF60"/>
<path d="M28.4225 19.0901V26.8204H21.9941C21.2618 26.8204 20.6921 26.2508 20.6921 25.5185V20.5548C20.6921 19.8224 21.2618 19.2528 21.9941 19.2528L28.4225 19.0901Z" fill="#989FB0"/>
<path d="M24.3539 24.6233C24.1911 24.6233 24.0284 24.5419 23.947 24.4605L22.7264 23.24C22.4823 22.9958 22.4823 22.6703 22.7264 22.4262C22.9705 22.1821 23.296 22.1821 23.5402 22.4262L24.2725 23.1586L26.0627 21.3684C26.3068 21.1243 26.6323 21.1243 26.8764 21.3684C27.1205 21.6125 27.1205 21.938 26.8764 22.1821L24.6794 24.3792C24.598 24.5419 24.4352 24.6233 24.3539 24.6233Z" fill="white"/>
<path opacity="0.5" d="M78.0595 41.3046V46.2683C78.0595 47.0006 77.4899 47.5702 76.7575 47.5702H22.0754C21.343 47.5702 20.7734 47.0006 20.7734 46.2683V41.3046C20.7734 40.5722 21.343 40.0026 22.0754 40.0026H76.6762C77.4899 39.9212 78.0595 40.4908 78.0595 41.3046Z" fill="#0CAF60"/>
<path opacity="0.3" d="M78.0594 51.5974V53.9518H20.692V51.5974C20.692 50.865 21.2616 50.2954 21.9939 50.2954H76.6761C77.4898 50.2954 78.0594 50.865 78.0594 51.5974Z" fill="#0CAF60"/>
<path d="M20.0411 72.226C20.0411 73.6094 18.9019 74.7486 17.5186 74.7486H3.52254C2.13921 74.7486 1 73.6094 1 72.226V39.3516C1 37.9683 2.13921 36.8291 3.52254 36.8291H17.4372C18.8205 36.8291 19.9597 37.9683 19.9597 39.3516L20.0411 72.226Z" fill="white"/>
<path d="M17.5186 36.7478C18.9019 36.7478 20.0411 37.887 20.0411 39.2703V72.1447C20.0411 73.528 18.9019 74.6673 17.5186 74.6673H3.52254C2.13921 74.6673 1 73.528 1 72.1447V39.3517C1 37.9684 2.13921 36.8292 3.52254 36.8292L17.5186 36.7478Z" fill="#F1F3F9" stroke="#0CAF60" stroke-width="2" stroke-miterlimit="10"/>
<path d="M18.8206 39.3518V72.2262C18.8206 72.8772 18.3324 73.5282 17.6 73.5282H17.5187H3.52265H3.44128C2.7903 73.5282 2.22069 72.9586 2.22069 72.2262V39.3518C2.22069 38.6195 2.7903 38.0499 3.44128 38.0499H5.47558C5.80107 38.0499 5.96381 38.294 5.96381 38.5381C5.96381 39.0263 6.37068 39.5146 6.94028 39.5146H14.0197C14.5079 39.5146 14.9961 39.1077 14.9961 38.5381C14.9961 38.2126 15.2403 38.0499 15.403 38.0499H17.3559C18.1696 37.9685 18.8206 38.6195 18.8206 39.3518Z" fill="#EAFAE5"/>
<path d="M11.7412 38.5379H9.86966C9.70692 38.5379 9.54417 38.3752 9.54417 38.2125C9.54417 38.0497 9.70692 37.887 9.86966 37.887H11.7412C11.904 37.887 12.0667 38.0497 12.0667 38.2125C11.9853 38.3752 11.8226 38.5379 11.7412 38.5379Z" fill="white"/>
<path d="M8.81172 38.5379H8.64897C8.48623 38.5379 8.32348 38.3752 8.32348 38.2125C8.32348 38.0497 8.48623 37.887 8.64897 37.887H8.81172C8.97446 37.887 9.13721 38.0497 9.13721 38.2125C9.13721 38.3752 8.97446 38.5379 8.81172 38.5379Z" fill="white"/>
<path d="M16.8676 50.2555H4.17349C3.76662 50.2555 3.52251 49.93 3.52251 49.6045V43.1761C3.52251 42.7693 3.848 42.5251 4.17349 42.5251H16.9489C17.3558 42.5251 17.5999 42.8506 17.5999 43.1761V49.6045C17.5185 49.93 17.2744 50.2555 16.8676 50.2555Z" fill="#989FB0"/>
<path d="M10.0324 48.0583C9.86966 48.0583 9.70691 47.977 9.62554 47.8956L8.40496 46.675C8.16084 46.4309 8.16084 46.1054 8.40496 45.8613C8.64907 45.6172 8.97456 45.6172 9.21868 45.8613L9.95103 46.5936L11.7412 44.8034C11.9853 44.5593 12.3108 44.5593 12.5549 44.8034C12.7991 45.0476 12.7991 45.3731 12.5549 45.6172L10.4393 47.7329C10.2765 47.977 10.1138 48.0583 10.0324 48.0583Z" fill="white"/>
<path opacity="0.8" d="M16.8676 59.8576H4.17349C3.76662 59.8576 3.52251 59.5321 3.52251 59.2066V52.7782C3.52251 52.3713 3.848 52.1272 4.17349 52.1272H16.9489C17.3558 52.1272 17.5999 52.4527 17.5999 52.7782V59.2066C17.5185 59.5321 17.2744 59.8576 16.8676 59.8576Z" fill="#0CAF60"/>
<path opacity="0.5" d="M16.8676 69.4594H4.17349C3.76662 69.4594 3.52251 69.1339 3.52251 68.8084V62.38C3.52251 61.9731 3.848 61.729 4.17349 61.729H16.9489C17.3558 61.729 17.5999 62.0545 17.5999 62.38V68.8084C17.5185 69.2152 17.2744 69.4594 16.8676 69.4594Z" fill="#0CAF60"/>
<path opacity="0.3" d="M17.5186 72.1446V73.4466H17.4372H3.52259H3.44122V72.1446C3.44122 71.7378 3.76671 71.4937 4.09219 71.4937H16.8676C17.2745 71.4937 17.5186 71.8191 17.5186 72.1446Z" fill="#0CAF60"/>
<path d="M19.797 16.3233C20.2039 16.3233 20.5294 15.9979 20.5294 15.591C20.5294 15.1841 20.2039 14.8586 19.797 14.8586C19.3902 14.8586 19.0647 15.1841 19.0647 15.591C19.0647 15.9979 19.3902 16.3233 19.797 16.3233Z" fill="#E3EAF2"/>
<path d="M22.1568 16.3233C22.5636 16.3233 22.8891 15.9979 22.8891 15.591C22.8891 15.1841 22.5636 14.8586 22.1568 14.8586C21.7499 14.8586 21.4244 15.1841 21.4244 15.591C21.4244 15.9979 21.7499 16.3233 22.1568 16.3233Z" fill="#E3EAF2"/>
<path d="M24.5165 16.3233C24.9234 16.3233 25.2489 15.9979 25.2489 15.591C25.2489 15.1841 24.9234 14.8586 24.5165 14.8586C24.1097 14.8586 23.7842 15.1841 23.7842 15.591C23.7842 15.9979 24.1097 16.3233 24.5165 16.3233Z" fill="#E3EAF2"/>
<path d="M98.0067 61.7637C97.6812 63.147 97.1929 64.6117 96.6233 65.8323C95.0773 68.8431 92.6361 71.2029 89.6253 72.7489C86.5332 74.295 82.8714 74.946 79.2097 74.1323C70.5842 72.3421 65.0509 63.8794 66.8411 55.2539C68.6313 46.6285 77.0126 41.0138 85.6381 42.8853C88.7302 43.5363 91.4155 45.0824 93.6939 47.1981C97.5184 51.1039 99.0645 56.5559 98.0067 61.7637Z" fill="#EAFAE5" stroke="#0CAF60" stroke-width="2" stroke-miterlimit="10"/>
<path d="M87.4282 56.1256H84.7665V53.4639C84.7665 52.2181 83.7872 51.0806 82.3831 51.0806C81.1374 51.0806 79.9998 52.0598 79.9998 53.4639V56.1256H77.3381C76.0923 56.1256 74.9547 57.1049 74.9547 58.509C74.9547 59.1554 75.1851 59.7638 75.6341 60.2129C76.0832 60.662 76.6917 60.8923 77.3381 60.8923H79.9998V63.554C79.9998 64.7998 80.9791 65.9374 82.3831 65.9374C83.6289 65.9374 84.7665 64.9581 84.7665 63.554V60.8923H87.4282C88.6592 60.8923 89.7845 59.9362 89.8111 58.5589C89.9328 57.0514 88.6761 56.1256 87.4282 56.1256Z" fill="white" stroke="#0CAF60" stroke-width="2"/>
<path d="M1.25303 75L95.2456 75" stroke="#0CAF60" stroke-width="2" stroke-miterlimit="10" stroke-linecap="round" stroke-linejoin="round"/>
<path d="M7.34473 33.5004C8.69191 33.5004 9.78402 32.4083 9.78402 31.0611C9.78402 29.7139 8.69191 28.6218 7.34473 28.6218C5.99755 28.6218 4.90545 29.7139 4.90545 31.0611C4.90545 32.4083 5.99755 33.5004 7.34473 33.5004Z" fill="#F1F3F9"/>
<path d="M4.90535 25.5876C5.82537 25.5876 6.5712 24.8417 6.5712 23.9217C6.5712 23.0017 5.82537 22.2559 4.90535 22.2559C3.98532 22.2559 3.23949 23.0017 3.23949 23.9217C3.23949 24.8417 3.98532 25.5876 4.90535 25.5876Z" fill="#F1F3F9"/>
<path d="M74.5287 6.06584C75.4488 6.06584 76.1946 5.32001 76.1946 4.39999C76.1946 3.47996 75.4488 2.73413 74.5287 2.73413C73.6087 2.73413 72.8629 3.47996 72.8629 4.39999C72.8629 5.32001 73.6087 6.06584 74.5287 6.06584Z" fill="#F1F3F9"/>
<path d="M92.1519 39.6364C93.8606 39.6364 95.2457 38.2513 95.2457 36.5427C95.2457 34.8341 93.8606 33.449 92.1519 33.449C90.4433 33.449 89.0582 34.8341 89.0582 36.5427C89.0582 38.2513 90.4433 39.6364 92.1519 39.6364Z" fill="#F1F3F9"/>
</svg>
