<svg width="39" height="39" viewBox="0 0 39 39" fill="none" xmlns="http://www.w3.org/2000/svg">
<path d="M19.5 0.75C24.5944 0.75 25.23 0.76875 27.2288 0.8625C29.2256 0.95625 30.585 1.26938 31.7812 1.73438C33.0187 2.21063 34.0613 2.85562 35.1038 3.89625C36.0572 4.83355 36.7949 5.96735 37.2656 7.21875C37.7288 8.41312 38.0438 9.77437 38.1375 11.7712C38.2256 13.77 38.25 14.4056 38.25 19.5C38.25 24.5944 38.2313 25.23 38.1375 27.2288C38.0438 29.2256 37.7288 30.585 37.2656 31.7812C36.7963 33.0333 36.0584 34.1674 35.1038 35.1038C34.1662 36.0569 33.0325 36.7945 31.7812 37.2656C30.5869 37.7288 29.2256 38.0438 27.2288 38.1375C25.23 38.2256 24.5944 38.25 19.5 38.25C14.4056 38.25 13.77 38.2313 11.7712 38.1375C9.77437 38.0438 8.415 37.7288 7.21875 37.2656C5.96686 36.7959 4.83286 36.058 3.89625 35.1038C2.94264 34.1666 2.20487 33.0328 1.73438 31.7812C1.26938 30.5869 0.95625 29.2256 0.8625 27.2288C0.774375 25.23 0.75 24.5944 0.75 19.5C0.75 14.4056 0.76875 13.77 0.8625 11.7712C0.95625 9.7725 1.26938 8.415 1.73438 7.21875C2.20357 5.96659 2.94151 4.83248 3.89625 3.89625C4.83313 2.94231 5.96705 2.20449 7.21875 1.73438C8.415 1.26938 9.7725 0.95625 11.7712 0.8625C13.77 0.774375 14.4056 0.75 19.5 0.75ZM19.5 10.125C17.0136 10.125 14.629 11.1127 12.8709 12.8709C11.1127 14.629 10.125 17.0136 10.125 19.5C10.125 21.9864 11.1127 24.371 12.8709 26.1291C14.629 27.8873 17.0136 28.875 19.5 28.875C21.9864 28.875 24.371 27.8873 26.1291 26.1291C27.8873 24.371 28.875 21.9864 28.875 19.5C28.875 17.0136 27.8873 14.629 26.1291 12.8709C24.371 11.1127 21.9864 10.125 19.5 10.125ZM31.6875 9.65625C31.6875 9.03465 31.4406 8.43851 31.001 7.99897C30.5615 7.55943 29.9654 7.3125 29.3438 7.3125C28.7221 7.3125 28.126 7.55943 27.6865 7.99897C27.2469 8.43851 27 9.03465 27 9.65625C27 10.2779 27.2469 10.874 27.6865 11.3135C28.126 11.7531 28.7221 12 29.3438 12C29.9654 12 30.5615 11.7531 31.001 11.3135C31.4406 10.874 31.6875 10.2779 31.6875 9.65625ZM19.5 13.875C20.9918 13.875 22.4226 14.4676 23.4775 15.5225C24.5324 16.5774 25.125 18.0082 25.125 19.5C25.125 20.9918 24.5324 22.4226 23.4775 23.4775C22.4226 24.5324 20.9918 25.125 19.5 25.125C18.0082 25.125 16.5774 24.5324 15.5225 23.4775C14.4676 22.4226 13.875 20.9918 13.875 19.5C13.875 18.0082 14.4676 16.5774 15.5225 15.5225C16.5774 14.4676 18.0082 13.875 19.5 13.875Z" fill="black"/>
</svg>
