<svg width="85" height="78" viewBox="0 0 85 78" fill="none" xmlns="http://www.w3.org/2000/svg">
<path d="M43.6695 73.908C62.2076 73.908 77.2356 58.7854 77.2356 40.1309C77.2356 21.4763 62.2076 6.35376 43.6695 6.35376C25.1315 6.35376 10.1034 21.4763 10.1034 40.1309C10.1034 58.7854 25.1315 73.908 43.6695 73.908Z" fill="#EAFAE5" stroke="#0CAF60" stroke-width="2" stroke-miterlimit="10"/>
<path d="M68.7806 12.2173L80.7189 30.6222L80.8847 30.788L44.4065 75.7226L8.09409 30.788L8.42571 30.6222L20.1982 12.2173H68.7806Z" fill="#FEFEFE" stroke="#0CAF60" stroke-width="2" stroke-miterlimit="10" stroke-linecap="round" stroke-linejoin="round"/>
<path d="M32.6342 30.6222L44.4067 75.7226L57.0083 30.6222L44.4067 12.2173L32.6342 30.6222Z" fill="#EAFAE5" stroke="#0CAF60" stroke-width="2" stroke-miterlimit="10" stroke-linecap="round" stroke-linejoin="round"/>
<path d="M57.0082 30.6222L44.4066 75.7226L80.8848 30.788L68.7807 12.2173L57.0082 30.6222Z" fill="#EAFAE5" stroke="#0CAF60" stroke-width="2" stroke-miterlimit="10" stroke-linecap="round" stroke-linejoin="round"/>
<path d="M8.42581 30.6222L20.1983 12.2173L32.6341 30.6222H8.42581Z" fill="#EAFAE5" stroke="#0CAF60" stroke-width="2" stroke-miterlimit="10" stroke-linecap="round" stroke-linejoin="round"/>
<path d="M8.42581 30.6222L20.1983 12.2173H68.7807L80.719 30.6222H8.42581Z" stroke="#0CAF60" stroke-width="2" stroke-miterlimit="10" stroke-linecap="round" stroke-linejoin="round"/>
<path d="M29.442 25.9659L32.6336 25.0039C32.8648 24.9368 32.8648 24.6012 32.6336 24.5341L29.442 23.5722C29.36 23.5498 29.3003 23.4901 29.2779 23.4081L28.316 20.2239C28.2489 19.9927 27.9133 19.9927 27.8462 20.2239L26.8842 23.4081C26.8618 23.4901 26.8022 23.5498 26.7201 23.5722L23.536 24.5341C23.3048 24.6012 23.3048 24.9368 23.536 25.0039L26.7276 25.9659C26.8096 25.9883 26.8693 26.0479 26.8917 26.13L27.8536 29.3216C27.9207 29.5528 28.2563 29.5528 28.3234 29.3216L29.2854 26.13C29.3003 26.0479 29.36 25.9883 29.442 25.9659Z" fill="#52C41A"/>
<path d="M46.3083 13.4785L50.0039 12.3647C50.2716 12.2869 50.2716 11.8984 50.0039 11.8207L46.3083 10.7068C46.2134 10.6809 46.1443 10.6118 46.1184 10.5169L45.0045 6.8299C44.9268 6.56223 44.5383 6.56223 44.4605 6.8299L43.3467 10.5169C43.3208 10.6118 43.2517 10.6809 43.1567 10.7068L39.4698 11.8207C39.2021 11.8984 39.2021 12.2869 39.4698 12.3647L43.1654 13.4785C43.2603 13.5044 43.3294 13.5735 43.3553 13.6685L44.4692 17.3641C44.5469 17.6317 44.9354 17.6317 45.0132 17.3641L46.127 13.6685C46.1443 13.5735 46.2134 13.5044 46.3083 13.4785Z" fill="#52C41A"/>
<path d="M81.9892 31.3078L84.8449 30.4471C85.0517 30.3871 85.0517 30.0868 84.8449 30.0268L81.9892 29.1661C81.9158 29.146 81.8624 29.0927 81.8424 29.0193L80.9817 26.1703C80.9216 25.9634 80.6214 25.9634 80.5613 26.1703L79.7006 29.0193C79.6806 29.0927 79.6272 29.146 79.5539 29.1661L76.7048 30.0268C76.498 30.0868 76.498 30.3871 76.7048 30.4471L79.5605 31.3078C79.6339 31.3278 79.6873 31.3812 79.7073 31.4546L80.568 34.3103C80.6281 34.5171 80.9283 34.5171 80.9884 34.3103L81.8491 31.4546C81.8624 31.3812 81.9158 31.3278 81.9892 31.3078Z" fill="#52C41A"/>
<path d="M6.78639 38.1609L9.03155 36.3564C9.195 36.2277 9.08629 35.9589 8.87936 35.98L6.01095 36.2433C5.93799 36.252 5.87088 36.2235 5.82638 36.165L4.02426 33.9259C3.89561 33.7624 3.62679 33.8711 3.64791 34.0781L3.90879 36.9405C3.91745 37.0134 3.88898 37.0806 3.83052 37.1251L1.59133 38.9272C1.42788 39.0558 1.53659 39.3247 1.74352 39.3035L4.61193 39.0402C4.68489 39.0316 4.75201 39.06 4.7965 39.1185L6.60104 41.3637C6.72969 41.5271 6.99851 41.4184 6.97739 41.2115L6.71409 38.3431C6.69946 38.2725 6.72793 38.2054 6.78639 38.1609Z" fill="#52C41A"/>
<path d="M28.7098 5.29149L30.2036 4.09087C30.3124 4.00527 30.24 3.82642 30.1024 3.84047L28.1939 4.01565C28.1454 4.02141 28.1007 4.00247 28.0711 3.96357L26.8721 2.47377C26.7865 2.36503 26.6077 2.43735 26.6217 2.57503L26.7953 4.4795C26.801 4.52804 26.7821 4.57269 26.7432 4.6023L25.2534 5.80131C25.1447 5.8869 25.217 6.06576 25.3547 6.05171L27.2631 5.87652C27.3116 5.87077 27.3563 5.88971 27.3859 5.92861L28.5865 7.42238C28.6721 7.53113 28.851 7.4588 28.8369 7.32112L28.6617 5.41268C28.652 5.36575 28.6709 5.32109 28.7098 5.29149Z" fill="#52C41A"/>
<path d="M77.5888 63.4148L80.2311 64.7727C80.4209 64.8727 80.6285 64.6575 80.5218 64.4714L79.0699 61.8795C79.0311 61.8144 79.0298 61.7392 79.0662 61.6728L80.4195 59.0353C80.5194 58.8455 80.3042 58.6378 80.1181 58.7446L77.5309 60.1917C77.4658 60.2304 77.3906 60.2318 77.3242 60.1954L74.6866 58.8421C74.4969 58.7421 74.2892 58.9574 74.396 59.1434L75.8478 61.7353C75.8866 61.8004 75.8879 61.8756 75.8515 61.942L74.4937 64.5843C74.3937 64.7741 74.6089 64.9818 74.795 64.875L77.3868 63.4232C77.4471 63.3798 77.5223 63.3784 77.5888 63.4148Z" fill="#52C41A"/>
<path d="M22.797 59.6681L24.8007 60.6978C24.9447 60.7736 25.1021 60.6104 25.0212 60.4693L23.9202 58.5038C23.8908 58.4544 23.8898 58.3974 23.9174 58.347L24.9436 56.3469C25.0194 56.2029 24.8562 56.0455 24.7151 56.1264L22.7531 57.2238C22.7037 57.2532 22.6467 57.2542 22.5963 57.2266L20.5961 56.2004C20.4522 56.1245 20.2948 56.2878 20.3757 56.4289L21.4767 58.3944C21.5061 58.4438 21.5071 58.5008 21.4795 58.5512L20.4498 60.5549C20.374 60.6989 20.5372 60.8563 20.6783 60.7754L22.6438 59.6744C22.6896 59.6415 22.7466 59.6405 22.797 59.6681Z" fill="#52C41A"/>
<path d="M21.4255 74.3843L23.3911 75.3944C23.5323 75.4687 23.6867 75.3086 23.6073 75.1702L22.5273 73.2422C22.4985 73.1937 22.4975 73.1378 22.5246 73.0884L23.5312 71.1264C23.6056 70.9852 23.4455 70.8307 23.3071 70.9101L21.3825 71.9866C21.334 72.0154 21.2781 72.0164 21.2287 71.9893L19.2667 70.9827C19.1255 70.9083 18.971 71.0684 19.0504 71.2068L20.1304 73.1349C20.1593 73.1833 20.1603 73.2392 20.1332 73.2886L19.1231 75.2542C19.0487 75.3954 19.2088 75.5499 19.3473 75.4705L21.2753 74.3904C21.3202 74.3582 21.3761 74.3572 21.4255 74.3843Z" fill="#52C41A"/>
<path d="M58.5923 5.52438L60.5242 6.51719C60.663 6.5903 60.8148 6.43293 60.7368 6.29687L59.6753 4.40184C59.6469 4.35423 59.6459 4.29927 59.6725 4.25068L60.662 2.32225C60.7351 2.18348 60.5777 2.03167 60.4417 2.10971L58.55 3.16774C58.5024 3.19609 58.4474 3.19707 58.3988 3.17045L56.4704 2.18102C56.3316 2.10791 56.1798 2.26528 56.2579 2.40133L57.3194 4.29637C57.3477 4.34397 57.3487 4.39894 57.3221 4.44753L56.3293 6.37945C56.2562 6.51822 56.4136 6.67004 56.5496 6.59199L58.4447 5.53047C58.4888 5.49875 58.5437 5.49776 58.5923 5.52438Z" fill="#52C41A"/>
</svg>
