<svg width="33" height="33" viewBox="0 0 33 33" fill="none" xmlns="http://www.w3.org/2000/svg">
<path d="M27.8502 27.8574H23.0754V20.3736C23.0754 18.5891 23.0396 16.2922 20.585 16.2922C18.0964 16.2922 17.7165 18.2343 17.7165 20.2428V27.8574H12.94V12.4688H17.5266V14.565H17.5893C18.2307 13.3574 19.7895 12.08 22.1187 12.08C26.9562 12.08 27.852 15.2655 27.852 19.4097V27.8574H27.8502ZM7.54704 10.3635C7.18254 10.364 6.82152 10.2925 6.4847 10.1532C6.14787 10.0139 5.84185 9.80945 5.58419 9.55162C5.32653 9.29379 5.12229 8.98765 4.98319 8.65073C4.84408 8.31381 4.77283 7.95275 4.77354 7.58825C4.7739 7.0397 4.93691 6.50358 5.24196 6.04768C5.54701 5.59178 5.9804 5.23657 6.48732 5.02698C6.99425 4.81738 7.55194 4.76282 8.08988 4.87018C8.62782 4.97755 9.12184 5.24202 9.50947 5.63015C9.8971 6.01828 10.1609 6.51264 10.2676 7.05072C10.3743 7.58879 10.319 8.14641 10.1087 8.65307C9.89849 9.15972 9.54272 9.59266 9.08642 9.89712C8.63013 10.2016 8.09559 10.3639 7.54704 10.3635ZM9.94071 27.8574H5.15158V12.4688H9.9425V27.8574H9.94071ZM30.2421 0.375H2.75612C1.43746 0.375 0.375 1.41417 0.375 2.69879V30.3012C0.375 31.5858 1.43925 32.625 2.75433 32.625H30.2349C31.55 32.625 32.625 31.5858 32.625 30.3012V2.69879C32.625 1.41417 31.55 0.375 30.2349 0.375H30.2421Z" fill="black"/>
</svg>
