<svg width="33" height="33" viewBox="0 0 33 33" fill="none" xmlns="http://www.w3.org/2000/svg">
<path d="M16.5 0.25C7.5625 0.25 0.25 7.5625 0.25 16.5C0.25 25.4375 7.5625 32.75 16.5 32.75C25.4375 32.75 32.75 25.4375 32.75 16.5C32.75 7.5625 25.5188 0.25 16.5 0.25ZM22.5938 24.0562C18.775 21.7 13.9812 21.2125 8.29375 22.5125C7.725 22.675 7.2375 22.2688 7.075 21.7812C6.9125 21.2125 7.31875 20.725 7.80625 20.5625C13.9812 19.1812 19.3438 19.75 23.5688 22.35C24.1375 22.5938 24.2188 23.2438 23.975 23.7313C23.65 24.2188 23.0813 24.3812 22.5938 24.0562ZM24.2188 19.6687C19.8312 16.9875 13.1688 16.175 8.05 17.8C7.4 17.9625 6.66875 17.6375 6.50625 16.9875C6.34375 16.3375 6.66875 15.6063 7.31875 15.4438C13.25 13.6563 20.5625 14.55 25.6 17.6375C26.0875 17.8812 26.3312 18.6937 25.925 19.2625C25.5187 19.8312 24.7875 20.075 24.2188 19.6687ZM7.2375 12.8438C6.425 13.0875 5.6125 12.6 5.36875 11.8687C5.125 11.0562 5.6125 10.2438 6.34375 10C12.1125 8.29375 21.6188 8.61875 27.6313 12.1938C28.3625 12.6 28.6063 13.575 28.2 14.3062C27.7938 14.875 26.8187 15.1187 26.0875 14.7125C20.8875 11.625 12.1937 11.3 7.2375 12.8438Z" fill="black"/>
</svg>
