<svg width="37" height="37" viewBox="0 0 37 37" fill="none" xmlns="http://www.w3.org/2000/svg">
<path d="M0.590443 36.4166L3.01278 27.5156C1.41665 24.7794 0.578073 21.6676 0.583276 18.4999C0.583276 8.60454 8.60457 0.583252 18.4999 0.583252C28.3953 0.583252 36.4166 8.60454 36.4166 18.4999C36.4166 28.3953 28.3953 36.4166 18.4999 36.4166C15.3337 36.4217 12.2231 35.5838 9.48786 33.9889L0.590443 36.4166ZM12.0338 10.0934C11.8024 10.1078 11.5764 10.1687 11.3691 10.2726C11.1748 10.3826 10.9973 10.5202 10.8424 10.6811C10.6274 10.8835 10.5055 11.0591 10.3747 11.2293C9.71255 12.0911 9.35637 13.149 9.36244 14.2358C9.36602 15.1137 9.59536 15.9683 9.95369 16.7674C10.6865 18.3835 11.8923 20.0945 13.4851 21.6801C13.8685 22.0617 14.2429 22.4452 14.6461 22.8017C16.623 24.5422 18.9788 25.7974 21.5261 26.4675L22.5455 26.6233C22.877 26.6413 23.2084 26.6162 23.5417 26.6C24.0635 26.5731 24.573 26.4318 25.0341 26.1862C25.3316 26.0285 25.4713 25.9497 25.7204 25.792C25.7204 25.792 25.7974 25.7418 25.9443 25.6307C26.1862 25.4516 26.3349 25.3244 26.5356 25.1147C26.6843 24.9607 26.8133 24.7797 26.9118 24.5737C27.0516 24.2816 27.1913 23.7244 27.2486 23.2604C27.2916 22.9056 27.2791 22.7121 27.2737 22.5921C27.2666 22.4004 27.1071 22.2015 26.9333 22.1173L25.8906 21.6497C25.8906 21.6497 24.3318 20.9706 23.3804 20.537C23.2801 20.4933 23.1726 20.4684 23.0633 20.4636C22.9407 20.451 22.8169 20.4648 22.7001 20.504C22.5832 20.5433 22.4762 20.6071 22.3861 20.6911V20.6875C22.3771 20.6875 22.2571 20.7897 20.9617 22.3592C20.8873 22.4591 20.7849 22.5346 20.6675 22.5761C20.5501 22.6175 20.423 22.6231 20.3024 22.5921C20.1856 22.5609 20.0713 22.5214 19.9601 22.4738C19.738 22.3807 19.6609 22.3448 19.5086 22.2785L19.4997 22.275C18.4747 21.8274 17.5257 21.223 16.6868 20.4833C16.461 20.2862 16.2514 20.0712 16.0364 19.8634C15.3315 19.1883 14.7172 18.4247 14.2089 17.5915L14.1032 17.4213C14.0273 17.307 13.9659 17.1836 13.9204 17.054C13.8524 16.7907 14.0297 16.5793 14.0297 16.5793C14.0297 16.5793 14.4651 16.1027 14.6676 15.8447C14.8361 15.6302 14.9934 15.4072 15.1388 15.1764C15.3502 14.836 15.4165 14.4866 15.3054 14.216C14.8037 12.9905 14.2841 11.7704 13.7502 10.5593C13.6445 10.3192 13.331 10.1472 13.0461 10.1131C12.9494 10.1024 12.8526 10.0916 12.7559 10.0845C12.5152 10.0725 12.2741 10.0767 12.0338 10.0934Z" fill="black"/>
</svg>
