<svg width="34" height="32" viewBox="0 0 34 32" fill="none" xmlns="http://www.w3.org/2000/svg">
<path d="M16.785 31.2733C14.8017 31.2733 13.4783 30.3383 12.2967 29.5133C11.4583 28.9183 10.67 28.3533 9.74167 28.1967C9.29967 28.1206 8.85182 28.0838 8.40334 28.0867C7.61667 28.0867 6.99167 28.205 6.54667 28.295C6.26334 28.345 6.02667 28.3917 5.84 28.3917C5.64667 28.3917 5.40167 28.3383 5.30667 28.0117C5.22334 27.745 5.17167 27.4917 5.12001 27.2467C4.98667 26.63 4.875 26.2517 4.64334 26.2133C2.16167 25.835 0.676671 25.2633 0.386671 24.5867C0.363338 24.5133 0.335004 24.4367 0.335004 24.3783C0.318337 24.17 0.468338 24 0.676671 23.9617C2.645 23.635 4.41334 22.5883 5.90667 20.865C7.06667 19.5267 7.63167 18.2333 7.68334 18.0933C7.68334 18.0767 7.69834 18.0767 7.69834 18.0767C7.98167 17.4917 8.04 16.9933 7.86834 16.585C7.55 15.8183 6.49334 15.4917 5.77334 15.2683C5.58834 15.2183 5.43167 15.1583 5.29834 15.1133C4.68167 14.8683 3.655 14.3467 3.79 13.6267C3.88667 13.1067 4.57667 12.735 5.14167 12.735C5.29834 12.735 5.43167 12.7583 5.54167 12.8183C6.175 13.1067 6.74667 13.255 7.23667 13.255C7.84667 13.255 8.13667 13.025 8.21 12.9517C8.19449 12.622 8.17504 12.2925 8.15167 11.9633C8.00167 9.68833 7.83167 6.865 8.55167 5.24667C10.715 0.401666 15.3067 0.0133332 16.6667 0.0133332L17.26 0H17.3433C18.7017 0 23.2933 0.378333 25.4567 5.23167C26.185 6.85 26.0067 9.68167 25.8567 11.9483L25.8433 12.06C25.8267 12.3633 25.805 12.6533 25.79 12.9517C25.865 13.01 26.1317 13.2333 26.6817 13.24C27.1583 13.2267 27.6783 13.07 28.2717 12.8017C28.4359 12.7306 28.6127 12.6932 28.7917 12.6917C29 12.6917 29.2083 12.7417 29.3867 12.8017H29.4017C29.9 12.9883 30.2267 13.3367 30.2267 13.7017C30.2417 14.0433 29.9733 14.5633 28.7033 15.0767C28.57 15.1267 28.4133 15.1883 28.2283 15.2317C27.5217 15.4483 26.4667 15.79 26.1317 16.5483C25.9467 16.9483 26.0217 17.4617 26.3033 18.04C26.3033 18.0567 26.3183 18.0567 26.3183 18.0567C26.4 18.2633 28.5467 23.1383 33.325 23.9333C33.4227 23.9498 33.5111 24.0011 33.5739 24.0777C33.6367 24.1543 33.6697 24.251 33.6667 24.35C33.6667 24.4233 33.6517 24.4983 33.615 24.565C33.325 25.2483 31.8533 25.805 29.3567 26.1917C29.1267 26.2283 29.015 26.6083 28.8817 27.225C28.8283 27.4821 28.766 27.7372 28.695 27.99C28.6217 28.235 28.465 28.3683 28.1983 28.3683H28.16C27.99 28.3683 27.76 28.3467 27.455 28.2867C26.8442 28.1565 26.2212 28.0917 25.5967 28.0933C25.1583 28.0933 24.705 28.1317 24.26 28.205C23.3383 28.355 22.5433 28.9267 21.7033 29.5217C20.5083 30.3383 19.1783 31.2733 17.2083 31.2733H16.785Z" fill="black"/>
</svg>
