<svg width="90" height="79" viewBox="0 0 90 79" fill="none" xmlns="http://www.w3.org/2000/svg">
<path d="M46.0709 67.2065C64.3168 67.2065 79.109 52.4143 79.109 34.1032C79.109 15.7922 64.2516 1 46.0709 1C27.825 1 13.0328 15.7922 13.0328 34.1032C13.0328 52.4143 27.825 67.2065 46.0709 67.2065Z" fill="#EAFAE5" stroke="#0CAF60" stroke-width="2" stroke-miterlimit="10"/>
<path d="M83.3031 23.6149C84.7786 23.6149 85.9748 22.4188 85.9748 20.9432C85.9748 19.4677 84.7786 18.2715 83.3031 18.2715C81.8275 18.2715 80.6313 19.4677 80.6313 20.9432C80.6313 22.4188 81.8275 23.6149 83.3031 23.6149Z" fill="#0CAF60"/>
<path d="M87.2127 13.1887C88.2204 13.1887 89.0373 12.3718 89.0373 11.3641C89.0373 10.3564 88.2204 9.53955 87.2127 9.53955C86.205 9.53955 85.3881 10.3564 85.3881 11.3641C85.3881 12.3718 86.205 13.1887 87.2127 13.1887Z" fill="#0CAF60"/>
<path d="M14.5316 12.4036C15.5393 12.4036 16.3562 11.5867 16.3562 10.579C16.3562 9.57129 15.5393 8.75439 14.5316 8.75439C13.5239 8.75439 12.707 9.57129 12.707 10.579C12.707 11.5867 13.5239 12.4036 14.5316 12.4036Z" fill="#EAFAE5"/>
<path d="M3.38852 47.5922C5.25995 47.5922 6.77704 46.0751 6.77704 44.2037C6.77704 42.3323 5.25995 40.8152 3.38852 40.8152C1.51709 40.8152 0 42.3323 0 44.2037C0 46.0751 1.51709 47.5922 3.38852 47.5922Z" fill="#0CAF60"/>
<path d="M65.3886 60.1514H74.849C76.0373 60.1514 77.0558 59.1334 77.0558 57.9458V13.8328C77.0558 12.6452 76.0373 11.6272 74.849 11.6272H65.6823" fill="#EAFAE5"/>
<path d="M65.3886 60.1514H74.849C76.0373 60.1514 77.0558 59.1334 77.0558 57.9458V13.8328C77.0558 12.6452 76.0373 11.6272 74.849 11.6272H65.6823L65.3886 60.1514Z" stroke="#0CAF60" stroke-width="2" stroke-miterlimit="10"/>
<path d="M27.8275 60.1514H18.6608C17.4726 60.1514 16.454 59.1334 16.454 57.9458V13.8328C16.454 12.6452 17.4726 11.6272 18.6608 11.6272H27.6386" fill="#EAFAE5"/>
<path d="M27.8275 60.1514H18.6608C17.4726 60.1514 16.454 59.1334 16.454 57.9458V13.8328C16.454 12.6452 17.4726 11.6272 18.6608 11.6272H27.6386L27.8275 60.1514Z" stroke="#0CAF60" stroke-width="2" stroke-miterlimit="10"/>
<path d="M22.8312 20.4497H27.4145" stroke="#0CAF60" stroke-width="2" stroke-miterlimit="10" stroke-linecap="round"/>
<path d="M22.8312 26.3879H27.4145" stroke="#0CAF60" stroke-width="2" stroke-miterlimit="10" stroke-linecap="round"/>
<path d="M22.8312 32.4961H27.4145" stroke="#0CAF60" stroke-width="2" stroke-miterlimit="10" stroke-linecap="round"/>
<path d="M22.8312 38.604H27.4145" stroke="#0CAF60" stroke-width="2" stroke-miterlimit="10" stroke-linecap="round"/>
<path d="M22.8312 50.4805H27.4145" stroke="#0CAF60" stroke-width="2" stroke-miterlimit="10" stroke-linecap="round"/>
<path d="M70.0959 20.4497H65.6823" stroke="#0CAF60" stroke-width="2" stroke-miterlimit="10"/>
<path d="M70.0959 26.3879H65.6823" stroke="#0CAF60" stroke-width="2" stroke-miterlimit="10" stroke-linecap="round"/>
<path d="M70.0959 32.4961H65.6823" stroke="#0CAF60" stroke-width="2" stroke-miterlimit="10" stroke-linecap="round"/>
<path d="M70.0959 38.604H65.6823" stroke="#0CAF60" stroke-width="2" stroke-miterlimit="10" stroke-linecap="round"/>
<path d="M70.0959 50.4805H65.6823" stroke="#0CAF60" stroke-width="2" stroke-miterlimit="10" stroke-linecap="round"/>
<path d="M63.4755 63.8841H29.8645C28.6762 63.8841 27.6577 62.8661 27.6577 61.6784V10.4395C27.6577 9.25188 28.6762 8.23389 29.8645 8.23389H63.4755C64.6638 8.23389 65.6823 9.25188 65.6823 10.4395V61.6784C65.6823 62.8661 64.6638 63.8841 63.4755 63.8841Z" fill="#EAFAE5" stroke="#0CAF60" stroke-width="2" stroke-miterlimit="10"/>
<path d="M59.4014 24.8342H35.9755C35.4663 24.8342 35.1268 24.5267 35.1268 24.0655V22.0668C35.1268 21.6056 35.4663 21.2981 35.9755 21.2981H59.4014C59.9107 21.2981 60.2502 21.6056 60.2502 22.0668V24.0655C60.2502 24.373 59.9107 24.8342 59.4014 24.8342Z" fill="#EAFAE5" stroke="#0CAF60" stroke-width="2" stroke-miterlimit="10"/>
<path d="M59.4014 33.9958H35.9755C35.4663 33.9958 35.1268 33.6883 35.1268 33.2271V31.2284C35.1268 30.7672 35.4663 30.4597 35.9755 30.4597H59.4014C59.9107 30.4597 60.2502 30.7672 60.2502 31.2284V33.2271C60.2502 33.6883 59.9107 33.9958 59.4014 33.9958Z" fill="#EAFAE5" stroke="#0CAF60" stroke-width="2" stroke-miterlimit="10"/>
<path d="M59.4014 43.3276H35.9755C35.4663 43.3276 35.1268 43.0201 35.1268 42.5589V40.5602C35.1268 40.099 35.4663 39.7915 35.9755 39.7915H59.4014C59.9107 39.7915 60.2502 40.099 60.2502 40.5602V42.5589C60.2502 43.0201 59.9107 43.3276 59.4014 43.3276Z" fill="#EAFAE5" stroke="#0CAF60" stroke-width="2" stroke-miterlimit="10"/>
<path d="M59.4016 52.8288H50.0652C49.5559 52.8288 49.2164 52.5213 49.2164 52.0601V50.0614C49.2164 49.6002 49.5559 49.2927 50.0652 49.2927H59.4016C59.9108 49.2927 60.2504 49.6002 60.2504 50.0614V52.0601C60.2504 52.5213 59.9108 52.8288 59.4016 52.8288Z" fill="#EAFAE5" stroke="#0CAF60" stroke-width="2" stroke-miterlimit="10"/>
<path d="M56.9914 69.7168C56.7795 70.6175 56.4616 71.5713 56.0907 72.3661C55.084 74.3265 53.4944 75.8631 51.5339 76.8698C49.5205 77.8765 47.1362 78.3004 44.7518 77.7706C39.1354 76.6049 35.5324 71.0944 36.6981 65.478C37.8638 59.8616 43.3212 56.2056 48.9377 57.4242C50.9511 57.8481 52.6996 58.8548 54.1832 60.2324C56.6735 62.7228 57.7332 66.3257 56.9914 69.7168Z" fill="#EAFAE5" stroke="#0CAF60" stroke-width="2" stroke-miterlimit="10"/>
<path d="M50.1564 65.6965H48.7721V64.3121C48.7721 63.3218 47.9915 62.4114 46.8713 62.4114C45.881 62.4114 44.9706 63.1919 44.9706 64.3121V65.6965H43.5862C42.596 65.6965 41.6855 66.477 41.6855 67.5972C41.6855 68.1017 41.8662 68.5895 42.2301 68.9534C42.594 69.3173 43.0818 69.498 43.5862 69.498H44.9706V70.8823C44.9706 71.8726 45.7511 72.783 46.8713 72.783C47.8616 72.783 48.7721 72.0025 48.7721 70.8823V69.498H50.1564C51.1467 69.498 52.0572 68.7174 52.0572 67.5972C52.0572 66.477 51.1467 65.6965 50.1564 65.6965Z" fill="white" stroke="#0CAF60" stroke-width="2"/>
</svg>
