<svg width="38" height="33" viewBox="0 0 38 33" fill="none" xmlns="http://www.w3.org/2000/svg">
<path d="M22.5184 26.7771C21.3339 28.2091 19.8988 29.6287 18.2226 31.0359C18.5844 30.9864 18.9463 30.9276 19.2988 30.8596C20.2669 30.6647 21.1947 30.3802 22.0947 29.9905C22.5524 29.7926 22.9978 29.5792 23.4246 29.3472L23.4586 29.4462C23.6225 29.9132 23.839 30.2998 24.0957 30.6091C23.6256 30.8627 23.1431 31.0977 22.6483 31.308C21.6524 31.7379 20.6256 32.0503 19.5679 32.2668C18.5133 32.4833 17.4184 32.5884 16.2927 32.5884C15.1669 32.5884 14.0844 32.4802 13.0174 32.2668C11.9721 32.0627 10.9638 31.7503 9.97725 31.3297C9.96797 31.3297 9.94941 31.3204 9.93704 31.3111C8.95973 30.8905 8.0319 30.3833 7.15974 29.8049C6.29068 29.2297 5.48965 28.5647 4.75357 27.8318C4.01131 27.0988 3.35565 26.2978 2.78039 25.4256C2.19277 24.5565 1.69483 23.6256 1.27422 22.6483C0.844324 21.6524 0.531955 20.6256 0.315462 19.5679C0.108247 18.5133 0 17.4184 0 16.2958C0 15.1731 0.108247 14.0875 0.321647 13.0205C0.525769 11.9752 0.841231 10.9669 1.25875 9.98034C1.25875 9.97106 1.26803 9.95251 1.27731 9.94014C1.69793 8.95355 2.20514 8.035 2.78349 7.16284C3.35874 6.29377 4.02368 5.49275 4.75667 4.75667C5.48965 4.0144 6.29068 3.35874 7.16284 2.78349C8.0319 2.19586 8.96282 1.69793 9.94014 1.27731C10.936 0.847417 11.9628 0.535048 13.0205 0.318554C14.0752 0.108247 15.17 0 16.2958 0C17.4215 0 18.504 0.108247 19.571 0.321647C20.6163 0.52577 21.6246 0.838139 22.6112 1.25875C22.6205 1.25875 22.639 1.26803 22.6514 1.27731C23.6287 1.69793 24.5565 2.20514 25.4287 2.78349C26.2978 3.35874 27.0988 4.02368 27.8349 4.75667C28.5771 5.48965 29.2328 6.29068 29.808 7.16284C30.3957 8.0319 30.8936 8.96282 31.3142 9.94014C31.7441 10.936 32.0565 11.9628 32.273 13.0205C32.2853 13.0824 32.2977 13.1442 32.3101 13.2061L30.7297 12.6494C30.5472 11.9164 30.3091 11.2051 30.006 10.5092C29.7616 9.93395 29.4864 9.38653 29.1864 8.85767H24.4081C24.7823 9.49787 25.1101 10.135 25.3916 10.7721L23.4741 10.0979C23.2483 9.68653 23.004 9.2721 22.738 8.85767H19.9452C19.6174 8.75561 19.2648 8.73087 18.9215 8.78344C18.8133 8.802 18.705 8.82674 18.5968 8.85767H17.0071V15.5813H18.5751L19.0762 17.0071H17.0071V23.7308H21.4452L21.9462 25.1565H17.0071V30.1854C19.0205 28.5338 20.672 26.8637 21.9586 25.1936L22.5184 26.7771ZM34.7317 28.7008C34.4936 28.9142 34.1255 28.9173 33.909 28.7008L29.5854 24.4019L27.5349 28.4812C26.9163 29.7122 25.8153 30.2689 25.2957 28.7967L19.0762 11.1339C18.9494 10.7721 19.1009 10.6267 19.4597 10.7535L37.1193 16.97C38.5915 17.4896 38.0317 18.5906 36.8039 19.2091L32.7245 21.2596L37.0234 25.5802C37.2369 25.7967 37.2369 26.1679 37.0234 26.4029L34.7317 28.7008ZM14.3782 31.0359C12.071 29.0998 10.2247 27.1452 8.85458 25.1627H4.34842C4.77832 25.7503 5.25769 26.2978 5.77419 26.8142C6.44841 27.4885 7.17211 28.0854 7.96386 28.6142C8.74633 29.1431 9.59684 29.6008 10.5154 29.9936C10.5278 29.9998 10.537 29.9998 10.5463 30.0091C11.437 30.3802 12.3556 30.674 13.3112 30.8596C13.6638 30.9276 14.0257 30.9864 14.3875 31.0359H14.3782ZM3.41132 23.7339H7.9484C6.68655 21.5256 6.00305 19.2772 5.92573 17.0102H1.44741C1.48762 17.7927 1.57422 18.5442 1.72267 19.2865C1.91751 20.2545 2.20205 21.1823 2.59173 22.0823C2.83606 22.6576 3.10823 23.205 3.41132 23.7339ZM1.44741 15.5813H5.95357C6.12058 13.3515 6.86284 11.1154 8.18345 8.85767H3.41132C3.10823 9.38653 2.83606 9.93395 2.59173 10.5092C2.58246 10.5185 2.58246 10.5278 2.57318 10.537C2.20205 11.4278 1.90823 12.3463 1.72267 13.302C1.57422 14.0473 1.47525 14.7989 1.44741 15.5813ZM4.33914 7.42881H9.0989C10.4597 5.47419 12.2473 3.51028 14.4772 1.53401C14.0752 1.58349 13.6855 1.64226 13.3051 1.71958C12.337 1.91442 11.4092 2.19895 10.5092 2.58864C9.59993 2.97833 8.74942 3.43915 7.95768 3.96801C7.16593 4.49688 6.44222 5.09069 5.768 5.768C5.25151 6.28758 4.77213 6.83191 4.34224 7.41954V7.42881H4.33914ZM18.1143 1.53401C20.3535 3.50719 22.1411 5.47419 23.4895 7.42881H28.2493C27.8194 6.84119 27.34 6.29377 26.8235 5.77728C26.1493 5.10306 25.4256 4.50615 24.6338 3.97729C23.8514 3.44843 23.0009 2.9907 22.0823 2.59792C22.073 2.58864 22.0638 2.58864 22.0545 2.57936C21.1638 2.20823 20.2452 1.91442 19.2896 1.72885C18.8999 1.65153 18.5071 1.59277 18.1174 1.54329V1.53401H18.1143ZM17.0071 2.46184V7.42881H21.739C20.4988 5.78656 18.9246 4.13502 17.0071 2.46184ZM15.5813 30.1854V25.1596H10.6051C11.8855 26.8421 13.5494 28.5245 15.5813 30.1854ZM15.5813 23.7339V17.0071H7.35149C7.43809 19.2648 8.202 21.504 9.60921 23.7308H15.5813V23.7339ZM15.5813 15.5813V8.85767H9.85354C8.38757 11.1339 7.5649 13.3731 7.37933 15.5813H15.5813ZM15.5813 7.42881V2.46184C13.6669 4.13193 12.0927 5.78656 10.8494 7.42881H15.5813Z" fill="black"/>
</svg>
