<svg width="50" height="50" viewBox="0 0 50 50" fill="none" xmlns="http://www.w3.org/2000/svg">
<g clip-path="url(#clip0_472_3565)">
<path d="M25 50C38.8071 50 50 38.8071 50 25C50 11.1929 38.8071 0 25 0C11.1929 0 0 11.1929 0 25C0 38.8071 11.1929 50 25 50Z" fill="#DA0000"/>
<path d="M40.97 16.9778C40.5849 15.5445 39.4589 14.4149 38.0219 14.0297C35.4219 13.3334 24.9997 13.3334 24.9997 13.3334C24.9997 13.3334 14.5775 13.3334 11.9775 14.0297C10.5441 14.4149 9.41449 15.5408 9.0293 16.9778C8.33301 19.5778 8.33301 25 8.33301 25C8.33301 25 8.33301 30.4223 9.0293 33.0223C9.41079 34.4556 10.5404 35.5852 11.9775 35.9704C14.5775 36.6667 24.9997 36.6667 24.9997 36.6667C24.9997 36.6667 35.4219 36.6667 38.0219 35.9704C39.4552 35.5852 40.5849 34.4593 40.97 33.0223C41.6663 30.4223 41.6663 25 41.6663 25C41.6663 25 41.6663 19.5778 40.97 16.9778ZM21.6663 30V20L30.3256 25L21.6663 30Z" fill="white"/>
</g>
<defs>
<clipPath id="clip0_472_3565">
<rect width="50" height="50" fill="white"/>
</clipPath>
</defs>
</svg>
